%TF.GenerationSoftware,KiCad,Pcbnew,(5.1.6)-1*%
%TF.CreationDate,2020-07-06T22:25:42+02:00*%
%TF.ProjectId,Power_supply,506f7765-725f-4737-9570-706c792e6b69,rev?*%
%TF.SameCoordinates,PX2b5d568PYa62d478*%
%TF.FileFunction,Legend,Bot*%
%TF.FilePolarity,Positive*%
%FSLAX46Y46*%
G04 Gerber Fmt 4.6, Leading zero omitted, Abs format (unit mm)*
G04 Created by KiCad (PCBNEW (5.1.6)-1) date 2020-07-06 22:25:42*
%MOMM*%
%LPD*%
G01*
G04 APERTURE LIST*
%ADD10C,0.200000*%
G04 APERTURE END LIST*
D10*
X81078127Y139952980D02*
X81078127Y139238694D01*
X81125746Y139095837D01*
X81220984Y139000599D01*
X81363841Y138952980D01*
X81459080Y138952980D01*
X80125746Y138952980D02*
X80601937Y138952980D01*
X80601937Y139952980D01*
X79220984Y139048218D02*
X79268603Y139000599D01*
X79411460Y138952980D01*
X79506699Y138952980D01*
X79649556Y139000599D01*
X79744794Y139095837D01*
X79792413Y139191075D01*
X79840032Y139381551D01*
X79840032Y139524408D01*
X79792413Y139714884D01*
X79744794Y139810122D01*
X79649556Y139905360D01*
X79506699Y139952980D01*
X79411460Y139952980D01*
X79268603Y139905360D01*
X79220984Y139857741D01*
X78506699Y139952980D02*
X78506699Y139238694D01*
X78554318Y139095837D01*
X78649556Y139000599D01*
X78792413Y138952980D01*
X78887651Y138952980D01*
X77554318Y138952980D02*
X78030508Y138952980D01*
X78030508Y139952980D01*
X76649556Y139048218D02*
X76697175Y139000599D01*
X76840032Y138952980D01*
X76935270Y138952980D01*
X77078127Y139000599D01*
X77173365Y139095837D01*
X77220984Y139191075D01*
X77268603Y139381551D01*
X77268603Y139524408D01*
X77220984Y139714884D01*
X77173365Y139810122D01*
X77078127Y139905360D01*
X76935270Y139952980D01*
X76840032Y139952980D01*
X76697175Y139905360D01*
X76649556Y139857741D01*
X75935270Y139952980D02*
X75935270Y139238694D01*
X75982889Y139095837D01*
X76078127Y139000599D01*
X76220984Y138952980D01*
X76316222Y138952980D01*
X74982889Y138952980D02*
X75459080Y138952980D01*
X75459080Y139952980D01*
X74078127Y139048218D02*
X74125746Y139000599D01*
X74268603Y138952980D01*
X74363841Y138952980D01*
X74506699Y139000599D01*
X74601937Y139095837D01*
X74649556Y139191075D01*
X74697175Y139381551D01*
X74697175Y139524408D01*
X74649556Y139714884D01*
X74601937Y139810122D01*
X74506699Y139905360D01*
X74363841Y139952980D01*
X74268603Y139952980D01*
X74125746Y139905360D01*
X74078127Y139857741D01*
X73363841Y139952980D02*
X73363841Y139238694D01*
X73411460Y139095837D01*
X73506699Y139000599D01*
X73649556Y138952980D01*
X73744794Y138952980D01*
X72411460Y138952980D02*
X72887651Y138952980D01*
X72887651Y139952980D01*
X71506699Y139048218D02*
X71554318Y139000599D01*
X71697175Y138952980D01*
X71792413Y138952980D01*
X71935270Y139000599D01*
X72030508Y139095837D01*
X72078127Y139191075D01*
X72125746Y139381551D01*
X72125746Y139524408D01*
X72078127Y139714884D01*
X72030508Y139810122D01*
X71935270Y139905360D01*
X71792413Y139952980D01*
X71697175Y139952980D01*
X71554318Y139905360D01*
X71506699Y139857741D01*
M02*
