%TF.GenerationSoftware,KiCad,Pcbnew,(5.1.6)-1*%
%TF.CreationDate,2020-07-06T22:25:42+02:00*%
%TF.ProjectId,Power_supply,506f7765-725f-4737-9570-706c792e6b69,rev?*%
%TF.SameCoordinates,PX2b5d568PYa62d478*%
%TF.FileFunction,Soldermask,Top*%
%TF.FilePolarity,Negative*%
%FSLAX46Y46*%
G04 Gerber Fmt 4.6, Leading zero omitted, Abs format (unit mm)*
G04 Created by KiCad (PCBNEW (5.1.6)-1) date 2020-07-06 22:25:42*
%MOMM*%
%LPD*%
G01*
G04 APERTURE LIST*
%ADD10C,0.100000*%
G04 APERTURE END LIST*
D10*
G36*
X9676741Y11670028D02*
G01*
X10250005Y11432574D01*
X10765928Y11087845D01*
X11204685Y10649088D01*
X11549414Y10133165D01*
X11786868Y9559901D01*
X11907920Y8951328D01*
X11907920Y8330832D01*
X11786868Y7722259D01*
X11549414Y7148995D01*
X11204685Y6633072D01*
X10765928Y6194315D01*
X10250005Y5849586D01*
X9676741Y5612132D01*
X9068168Y5491080D01*
X8447672Y5491080D01*
X7839099Y5612132D01*
X7265835Y5849586D01*
X6749912Y6194315D01*
X6311155Y6633072D01*
X5966426Y7148995D01*
X5728972Y7722259D01*
X5607920Y8330832D01*
X5607920Y8951328D01*
X5728972Y9559901D01*
X5966426Y10133165D01*
X6311155Y10649088D01*
X6749912Y11087845D01*
X7265835Y11432574D01*
X7839099Y11670028D01*
X8447672Y11791080D01*
X9068168Y11791080D01*
X9676741Y11670028D01*
G37*
G36*
X142899741Y11797028D02*
G01*
X143473005Y11559574D01*
X143988928Y11214845D01*
X144427685Y10776088D01*
X144772414Y10260165D01*
X145009868Y9686901D01*
X145130920Y9078328D01*
X145130920Y8457832D01*
X145009868Y7849259D01*
X144772414Y7275995D01*
X144427685Y6760072D01*
X143988928Y6321315D01*
X143473005Y5976586D01*
X142899741Y5739132D01*
X142291168Y5618080D01*
X141670672Y5618080D01*
X141062099Y5739132D01*
X140488835Y5976586D01*
X139972912Y6321315D01*
X139534155Y6760072D01*
X139189426Y7275995D01*
X138951972Y7849259D01*
X138830920Y8457832D01*
X138830920Y9078328D01*
X138951972Y9686901D01*
X139189426Y10260165D01*
X139534155Y10776088D01*
X139972912Y11214845D01*
X140488835Y11559574D01*
X141062099Y11797028D01*
X141670672Y11918080D01*
X142291168Y11918080D01*
X142899741Y11797028D01*
G37*
G36*
X94143869Y13443357D02*
G01*
X94407753Y13334053D01*
X94645241Y13175369D01*
X94847209Y12973401D01*
X95005893Y12735913D01*
X95115197Y12472029D01*
X95170920Y12191893D01*
X95170920Y11906267D01*
X95115197Y11626131D01*
X95005893Y11362247D01*
X94847209Y11124759D01*
X94645241Y10922791D01*
X94407753Y10764107D01*
X94143869Y10654803D01*
X93863733Y10599080D01*
X93578107Y10599080D01*
X93297971Y10654803D01*
X93034087Y10764107D01*
X92796599Y10922791D01*
X92594631Y11124759D01*
X92435947Y11362247D01*
X92326643Y11626131D01*
X92270920Y11906267D01*
X92270920Y12191893D01*
X92326643Y12472029D01*
X92435947Y12735913D01*
X92594631Y12973401D01*
X92796599Y13175369D01*
X93034087Y13334053D01*
X93297971Y13443357D01*
X93578107Y13499080D01*
X93863733Y13499080D01*
X94143869Y13443357D01*
G37*
G36*
X85010920Y10599080D02*
G01*
X82110920Y10599080D01*
X82110920Y13499080D01*
X85010920Y13499080D01*
X85010920Y10599080D01*
G37*
G36*
X114971869Y13443357D02*
G01*
X115235753Y13334053D01*
X115473241Y13175369D01*
X115675209Y12973401D01*
X115833893Y12735913D01*
X115943197Y12472029D01*
X115998920Y12191893D01*
X115998920Y11906267D01*
X115943197Y11626131D01*
X115833893Y11362247D01*
X115675209Y11124759D01*
X115473241Y10922791D01*
X115235753Y10764107D01*
X114971869Y10654803D01*
X114691733Y10599080D01*
X114406107Y10599080D01*
X114125971Y10654803D01*
X113862087Y10764107D01*
X113624599Y10922791D01*
X113422631Y11124759D01*
X113263947Y11362247D01*
X113154643Y11626131D01*
X113098920Y11906267D01*
X113098920Y12191893D01*
X113154643Y12472029D01*
X113263947Y12735913D01*
X113422631Y12973401D01*
X113624599Y13175369D01*
X113862087Y13334053D01*
X114125971Y13443357D01*
X114406107Y13499080D01*
X114691733Y13499080D01*
X114971869Y13443357D01*
G37*
G36*
X105838920Y10599080D02*
G01*
X102938920Y10599080D01*
X102938920Y13499080D01*
X105838920Y13499080D01*
X105838920Y10599080D01*
G37*
G36*
X77146920Y11919080D02*
G01*
X75146920Y11919080D01*
X75146920Y12819080D01*
X77146920Y12819080D01*
X77146920Y11919080D01*
G37*
G36*
X74146920Y12869080D02*
G01*
X72146920Y12869080D01*
X72146920Y13769080D01*
X74146920Y13769080D01*
X74146920Y12869080D01*
G37*
G36*
X77146920Y13819080D02*
G01*
X75146920Y13819080D01*
X75146920Y14719080D01*
X77146920Y14719080D01*
X77146920Y13819080D01*
G37*
G36*
X126685444Y17784575D02*
G01*
X126874415Y17727251D01*
X127048573Y17634162D01*
X127201225Y17508885D01*
X127326502Y17356233D01*
X127419591Y17182074D01*
X127476915Y16993103D01*
X127491420Y16845832D01*
X127491420Y16652327D01*
X127476915Y16505056D01*
X127419591Y16316085D01*
X127326502Y16141927D01*
X127201225Y15989275D01*
X127048573Y15863998D01*
X126874414Y15770909D01*
X126685443Y15713585D01*
X126488920Y15694229D01*
X126292396Y15713585D01*
X126103425Y15770909D01*
X125929267Y15863998D01*
X125776615Y15989275D01*
X125651338Y16141927D01*
X125558249Y16316086D01*
X125500925Y16505057D01*
X125486420Y16652328D01*
X125486420Y16845833D01*
X125500925Y16993104D01*
X125558249Y17182075D01*
X125651338Y17356233D01*
X125776615Y17508884D01*
X125862303Y17579206D01*
X125929266Y17634161D01*
X125958325Y17649693D01*
X126103426Y17727251D01*
X126292397Y17784575D01*
X126488920Y17803931D01*
X126685444Y17784575D01*
G37*
G36*
X124145444Y17784575D02*
G01*
X124334415Y17727251D01*
X124508573Y17634162D01*
X124661225Y17508885D01*
X124786502Y17356233D01*
X124879591Y17182074D01*
X124936915Y16993103D01*
X124951420Y16845832D01*
X124951420Y16652327D01*
X124936915Y16505056D01*
X124879591Y16316085D01*
X124786502Y16141927D01*
X124661225Y15989275D01*
X124508573Y15863998D01*
X124334414Y15770909D01*
X124145443Y15713585D01*
X123948920Y15694229D01*
X123752396Y15713585D01*
X123563425Y15770909D01*
X123389267Y15863998D01*
X123236615Y15989275D01*
X123111338Y16141927D01*
X123018249Y16316086D01*
X122960925Y16505057D01*
X122946420Y16652328D01*
X122946420Y16845833D01*
X122960925Y16993104D01*
X123018249Y17182075D01*
X123111338Y17356233D01*
X123236615Y17508884D01*
X123322303Y17579206D01*
X123389266Y17634161D01*
X123418325Y17649693D01*
X123563426Y17727251D01*
X123752397Y17784575D01*
X123948920Y17803931D01*
X124145444Y17784575D01*
G37*
G36*
X130031420Y15699080D02*
G01*
X128026420Y15699080D01*
X128026420Y17799080D01*
X130031420Y17799080D01*
X130031420Y15699080D01*
G37*
G36*
X64331070Y19264347D02*
G01*
X64535807Y19179542D01*
X64720066Y19056424D01*
X64876764Y18899726D01*
X64999882Y18715467D01*
X65084687Y18510730D01*
X65127920Y18293383D01*
X65127920Y18071777D01*
X65084687Y17854430D01*
X65032007Y17727250D01*
X64999882Y17649693D01*
X64876764Y17465434D01*
X64720066Y17308736D01*
X64535807Y17185618D01*
X64331070Y17100813D01*
X64113723Y17057580D01*
X63892117Y17057580D01*
X63674770Y17100813D01*
X63470033Y17185618D01*
X63285774Y17308736D01*
X63129076Y17465434D01*
X63005958Y17649693D01*
X62973833Y17727250D01*
X62921153Y17854430D01*
X62877920Y18071777D01*
X62877920Y18293383D01*
X62921153Y18510730D01*
X63005958Y18715467D01*
X63129076Y18899726D01*
X63285774Y19056424D01*
X63470033Y19179542D01*
X63674770Y19264347D01*
X63892117Y19307580D01*
X64113723Y19307580D01*
X64331070Y19264347D01*
G37*
G36*
X61831070Y21764347D02*
G01*
X62035807Y21679542D01*
X62220066Y21556424D01*
X62376764Y21399726D01*
X62499882Y21215467D01*
X62584687Y21010730D01*
X62627920Y20793383D01*
X62627920Y20571777D01*
X62584687Y20354430D01*
X62499882Y20149693D01*
X62376764Y19965434D01*
X62220066Y19808736D01*
X62035807Y19685618D01*
X61831070Y19600813D01*
X61613723Y19557580D01*
X61392117Y19557580D01*
X61174770Y19600813D01*
X60970033Y19685618D01*
X60785774Y19808736D01*
X60629076Y19965434D01*
X60505958Y20149693D01*
X60421153Y20354430D01*
X60377920Y20571777D01*
X60377920Y20793383D01*
X60421153Y21010730D01*
X60505958Y21215467D01*
X60629076Y21399726D01*
X60785774Y21556424D01*
X60970033Y21679542D01*
X61174770Y21764347D01*
X61392117Y21807580D01*
X61613723Y21807580D01*
X61831070Y21764347D01*
G37*
G36*
X64331070Y24264347D02*
G01*
X64535807Y24179542D01*
X64720066Y24056424D01*
X64876764Y23899726D01*
X64999882Y23715467D01*
X65084687Y23510730D01*
X65127920Y23293383D01*
X65127920Y23071777D01*
X65084687Y22854430D01*
X64999882Y22649693D01*
X64876764Y22465434D01*
X64720066Y22308736D01*
X64535807Y22185618D01*
X64331070Y22100813D01*
X64113723Y22057580D01*
X63892117Y22057580D01*
X63674770Y22100813D01*
X63470033Y22185618D01*
X63285774Y22308736D01*
X63129076Y22465434D01*
X63005958Y22649693D01*
X62921153Y22854430D01*
X62877920Y23071777D01*
X62877920Y23293383D01*
X62921153Y23510730D01*
X63005958Y23715467D01*
X63129076Y23899726D01*
X63285774Y24056424D01*
X63470033Y24179542D01*
X63674770Y24264347D01*
X63892117Y24307580D01*
X64113723Y24307580D01*
X64331070Y24264347D01*
G37*
G36*
X39428363Y26256886D02*
G01*
X39637649Y26170197D01*
X39826003Y26044343D01*
X39986183Y25884163D01*
X40112037Y25695809D01*
X40198726Y25486523D01*
X40242920Y25264344D01*
X40242920Y25037816D01*
X40198726Y24815637D01*
X40112037Y24606351D01*
X39986183Y24417997D01*
X39826003Y24257817D01*
X39637649Y24131963D01*
X39428363Y24045274D01*
X39206185Y24001080D01*
X38979655Y24001080D01*
X38757477Y24045274D01*
X38548191Y24131963D01*
X38359837Y24257817D01*
X38199657Y24417997D01*
X38073803Y24606351D01*
X37987114Y24815637D01*
X37942920Y25037816D01*
X37942920Y25264344D01*
X37987114Y25486523D01*
X38073803Y25695809D01*
X38199657Y25884163D01*
X38359837Y26044343D01*
X38548191Y26170197D01*
X38757477Y26256886D01*
X38979655Y26301080D01*
X39206185Y26301080D01*
X39428363Y26256886D01*
G37*
G36*
X47828363Y26256886D02*
G01*
X48037649Y26170197D01*
X48226003Y26044343D01*
X48386183Y25884163D01*
X48512037Y25695809D01*
X48598726Y25486523D01*
X48642920Y25264344D01*
X48642920Y25037816D01*
X48598726Y24815637D01*
X48512037Y24606351D01*
X48386183Y24417997D01*
X48226003Y24257817D01*
X48037649Y24131963D01*
X47828363Y24045274D01*
X47606185Y24001080D01*
X47379655Y24001080D01*
X47157477Y24045274D01*
X46948191Y24131963D01*
X46759837Y24257817D01*
X46599657Y24417997D01*
X46473803Y24606351D01*
X46387114Y24815637D01*
X46342920Y25037816D01*
X46342920Y25264344D01*
X46387114Y25486523D01*
X46473803Y25695809D01*
X46599657Y25884163D01*
X46759837Y26044343D01*
X46948191Y26170197D01*
X47157477Y26256886D01*
X47379655Y26301080D01*
X47606185Y26301080D01*
X47828363Y26256886D01*
G37*
G36*
X77623891Y28375632D02*
G01*
X77837408Y28333162D01*
X77989469Y28270176D01*
X78078543Y28233280D01*
X78078544Y28233279D01*
X78295559Y28088275D01*
X78480115Y27903719D01*
X78522937Y27839631D01*
X78625120Y27686703D01*
X78662016Y27597629D01*
X78725002Y27445568D01*
X78775920Y27189580D01*
X78775920Y26928580D01*
X78725002Y26672592D01*
X78662016Y26520531D01*
X78625120Y26431457D01*
X78625119Y26431456D01*
X78480115Y26214441D01*
X78295559Y26029885D01*
X78150554Y25932996D01*
X78078543Y25884880D01*
X77989469Y25847984D01*
X77837408Y25784998D01*
X77623891Y25742528D01*
X77581421Y25734080D01*
X77320419Y25734080D01*
X77277949Y25742528D01*
X77064432Y25784998D01*
X76912371Y25847984D01*
X76823297Y25884880D01*
X76751286Y25932996D01*
X76606281Y26029885D01*
X76421725Y26214441D01*
X76276721Y26431456D01*
X76276720Y26431457D01*
X76239824Y26520531D01*
X76176838Y26672592D01*
X76125920Y26928580D01*
X76125920Y27189580D01*
X76176838Y27445568D01*
X76239824Y27597629D01*
X76276720Y27686703D01*
X76378903Y27839631D01*
X76421725Y27903719D01*
X76606281Y28088275D01*
X76823296Y28233279D01*
X76823297Y28233280D01*
X76912371Y28270176D01*
X77064432Y28333162D01*
X77277949Y28375632D01*
X77320419Y28384080D01*
X77581421Y28384080D01*
X77623891Y28375632D01*
G37*
G36*
X85123891Y28375632D02*
G01*
X85337408Y28333162D01*
X85489469Y28270176D01*
X85578543Y28233280D01*
X85578544Y28233279D01*
X85795559Y28088275D01*
X85980115Y27903719D01*
X86022937Y27839631D01*
X86125120Y27686703D01*
X86162016Y27597629D01*
X86225002Y27445568D01*
X86275920Y27189580D01*
X86275920Y26928580D01*
X86225002Y26672592D01*
X86162016Y26520531D01*
X86125120Y26431457D01*
X86125119Y26431456D01*
X85980115Y26214441D01*
X85795559Y26029885D01*
X85650554Y25932996D01*
X85578543Y25884880D01*
X85489469Y25847984D01*
X85337408Y25784998D01*
X85123891Y25742528D01*
X85081421Y25734080D01*
X84820419Y25734080D01*
X84777949Y25742528D01*
X84564432Y25784998D01*
X84412371Y25847984D01*
X84323297Y25884880D01*
X84251286Y25932996D01*
X84106281Y26029885D01*
X83921725Y26214441D01*
X83776721Y26431456D01*
X83776720Y26431457D01*
X83739824Y26520531D01*
X83676838Y26672592D01*
X83625920Y26928580D01*
X83625920Y27189580D01*
X83676838Y27445568D01*
X83739824Y27597629D01*
X83776720Y27686703D01*
X83878903Y27839631D01*
X83921725Y27903719D01*
X84106281Y28088275D01*
X84323296Y28233279D01*
X84323297Y28233280D01*
X84412371Y28270176D01*
X84564432Y28333162D01*
X84777949Y28375632D01*
X84820419Y28384080D01*
X85081421Y28384080D01*
X85123891Y28375632D01*
G37*
G36*
X92623891Y28375632D02*
G01*
X92837408Y28333162D01*
X92989469Y28270176D01*
X93078543Y28233280D01*
X93078544Y28233279D01*
X93295559Y28088275D01*
X93480115Y27903719D01*
X93522937Y27839631D01*
X93625120Y27686703D01*
X93662016Y27597629D01*
X93725002Y27445568D01*
X93775920Y27189580D01*
X93775920Y26928580D01*
X93725002Y26672592D01*
X93662016Y26520531D01*
X93625120Y26431457D01*
X93625119Y26431456D01*
X93480115Y26214441D01*
X93295559Y26029885D01*
X93150554Y25932996D01*
X93078543Y25884880D01*
X92989469Y25847984D01*
X92837408Y25784998D01*
X92623891Y25742528D01*
X92581421Y25734080D01*
X92320419Y25734080D01*
X92277949Y25742528D01*
X92064432Y25784998D01*
X91912371Y25847984D01*
X91823297Y25884880D01*
X91751286Y25932996D01*
X91606281Y26029885D01*
X91421725Y26214441D01*
X91276721Y26431456D01*
X91276720Y26431457D01*
X91239824Y26520531D01*
X91176838Y26672592D01*
X91125920Y26928580D01*
X91125920Y27189580D01*
X91176838Y27445568D01*
X91239824Y27597629D01*
X91276720Y27686703D01*
X91378903Y27839631D01*
X91421725Y27903719D01*
X91606281Y28088275D01*
X91823296Y28233279D01*
X91823297Y28233280D01*
X91912371Y28270176D01*
X92064432Y28333162D01*
X92277949Y28375632D01*
X92320419Y28384080D01*
X92581421Y28384080D01*
X92623891Y28375632D01*
G37*
G36*
X137577869Y29656857D02*
G01*
X137841753Y29547553D01*
X138079241Y29388869D01*
X138281209Y29186901D01*
X138439893Y28949413D01*
X138549197Y28685529D01*
X138604920Y28405393D01*
X138604920Y28119767D01*
X138549197Y27839631D01*
X138439893Y27575747D01*
X138281209Y27338259D01*
X138079241Y27136291D01*
X137841753Y26977607D01*
X137577869Y26868303D01*
X137297733Y26812580D01*
X137012107Y26812580D01*
X136731971Y26868303D01*
X136468087Y26977607D01*
X136230599Y27136291D01*
X136028631Y27338259D01*
X135869947Y27575747D01*
X135760643Y27839631D01*
X135704920Y28119767D01*
X135704920Y28405393D01*
X135760643Y28685529D01*
X135869947Y28949413D01*
X136028631Y29186901D01*
X136230599Y29388869D01*
X136468087Y29547553D01*
X136731971Y29656857D01*
X137012107Y29712580D01*
X137297733Y29712580D01*
X137577869Y29656857D01*
G37*
G36*
X128444920Y26812580D02*
G01*
X125544920Y26812580D01*
X125544920Y29712580D01*
X128444920Y29712580D01*
X128444920Y26812580D01*
G37*
G36*
X104593305Y28549421D02*
G01*
X104627913Y28538922D01*
X104659816Y28521870D01*
X104687770Y28498930D01*
X104710710Y28470976D01*
X104727762Y28439073D01*
X104738261Y28404465D01*
X104742420Y28362240D01*
X104742420Y27219920D01*
X104738261Y27177695D01*
X104727762Y27143087D01*
X104710710Y27111184D01*
X104687770Y27083230D01*
X104659816Y27060290D01*
X104627913Y27043238D01*
X104593305Y27032739D01*
X104551080Y27028580D01*
X103083760Y27028580D01*
X103041535Y27032739D01*
X103006927Y27043238D01*
X102975024Y27060290D01*
X102947070Y27083230D01*
X102924130Y27111184D01*
X102907078Y27143087D01*
X102896579Y27177695D01*
X102892420Y27219920D01*
X102892420Y28362240D01*
X102896579Y28404465D01*
X102907078Y28439073D01*
X102924130Y28470976D01*
X102947070Y28498930D01*
X102975024Y28521870D01*
X103006927Y28538922D01*
X103041535Y28549421D01*
X103083760Y28553580D01*
X104551080Y28553580D01*
X104593305Y28549421D01*
G37*
G36*
X115670369Y30312177D02*
G01*
X115934253Y30202873D01*
X116171741Y30044189D01*
X116373709Y29842221D01*
X116532393Y29604733D01*
X116641697Y29340849D01*
X116697420Y29060713D01*
X116697420Y28775087D01*
X116641697Y28494951D01*
X116532393Y28231067D01*
X116373709Y27993579D01*
X116171741Y27791611D01*
X115934253Y27632927D01*
X115670369Y27523623D01*
X115390233Y27467900D01*
X115104607Y27467900D01*
X114824471Y27523623D01*
X114560587Y27632927D01*
X114323099Y27791611D01*
X114121131Y27993579D01*
X113962447Y28231067D01*
X113853143Y28494951D01*
X113797420Y28775087D01*
X113797420Y29060713D01*
X113853143Y29340849D01*
X113962447Y29604733D01*
X114121131Y29842221D01*
X114323099Y30044189D01*
X114560587Y30202873D01*
X114824471Y30312177D01*
X115104607Y30367900D01*
X115390233Y30367900D01*
X115670369Y30312177D01*
G37*
G36*
X104593305Y31524421D02*
G01*
X104627913Y31513922D01*
X104659816Y31496870D01*
X104687770Y31473930D01*
X104710710Y31445976D01*
X104727762Y31414073D01*
X104738261Y31379465D01*
X104742420Y31337240D01*
X104742420Y30194920D01*
X104738261Y30152695D01*
X104727762Y30118087D01*
X104710710Y30086184D01*
X104687770Y30058230D01*
X104659816Y30035290D01*
X104627913Y30018238D01*
X104593305Y30007739D01*
X104551080Y30003580D01*
X103083760Y30003580D01*
X103041535Y30007739D01*
X103006927Y30018238D01*
X102975024Y30035290D01*
X102947070Y30058230D01*
X102924130Y30086184D01*
X102907078Y30118087D01*
X102896579Y30152695D01*
X102892420Y30194920D01*
X102892420Y31337240D01*
X102896579Y31379465D01*
X102907078Y31414073D01*
X102924130Y31445976D01*
X102947070Y31473930D01*
X102975024Y31496870D01*
X103006927Y31513922D01*
X103041535Y31524421D01*
X103083760Y31528580D01*
X104551080Y31528580D01*
X104593305Y31524421D01*
G37*
G36*
X29334223Y33861711D02*
G01*
X29407987Y33839336D01*
X29475961Y33803003D01*
X29535544Y33754104D01*
X29584443Y33694521D01*
X29620776Y33626547D01*
X29643151Y33552783D01*
X29651320Y33469846D01*
X29651320Y31919914D01*
X29643151Y31836977D01*
X29620776Y31763213D01*
X29584443Y31695239D01*
X29535544Y31635656D01*
X29475961Y31586757D01*
X29407987Y31550424D01*
X29334223Y31528049D01*
X29251286Y31519880D01*
X26161354Y31519880D01*
X26078417Y31528049D01*
X26004653Y31550424D01*
X25936679Y31586757D01*
X25877096Y31635656D01*
X25828197Y31695239D01*
X25791864Y31763213D01*
X25769489Y31836977D01*
X25761320Y31919914D01*
X25761320Y33469846D01*
X25769489Y33552783D01*
X25791864Y33626547D01*
X25828197Y33694521D01*
X25877096Y33754104D01*
X25936679Y33803003D01*
X26004653Y33839336D01*
X26078417Y33861711D01*
X26161354Y33869880D01*
X29251286Y33869880D01*
X29334223Y33861711D01*
G37*
G36*
X61423920Y34969080D02*
G01*
X59723920Y34969080D01*
X59723920Y36669080D01*
X61423920Y36669080D01*
X61423920Y34969080D01*
G37*
G36*
X104593305Y37221921D02*
G01*
X104627913Y37211422D01*
X104659816Y37194370D01*
X104687770Y37171430D01*
X104710710Y37143476D01*
X104727762Y37111573D01*
X104738261Y37076965D01*
X104742420Y37034740D01*
X104742420Y35892420D01*
X104738261Y35850195D01*
X104727762Y35815587D01*
X104710710Y35783684D01*
X104687770Y35755730D01*
X104659816Y35732790D01*
X104627913Y35715738D01*
X104593305Y35705239D01*
X104551080Y35701080D01*
X103083760Y35701080D01*
X103041535Y35705239D01*
X103006927Y35715738D01*
X102975024Y35732790D01*
X102947070Y35755730D01*
X102924130Y35783684D01*
X102907078Y35815587D01*
X102896579Y35850195D01*
X102892420Y35892420D01*
X102892420Y37034740D01*
X102896579Y37076965D01*
X102907078Y37111573D01*
X102924130Y37143476D01*
X102947070Y37171430D01*
X102975024Y37194370D01*
X103006927Y37211422D01*
X103041535Y37221921D01*
X103083760Y37226080D01*
X104551080Y37226080D01*
X104593305Y37221921D01*
G37*
G36*
X137402856Y39239915D02*
G01*
X137557546Y39175840D01*
X137696764Y39082818D01*
X137815158Y38964424D01*
X137908180Y38825206D01*
X137972255Y38670516D01*
X138004920Y38506298D01*
X138004920Y38338862D01*
X137972255Y38174644D01*
X137908180Y38019954D01*
X137815158Y37880736D01*
X137696764Y37762342D01*
X137557546Y37669320D01*
X137402856Y37605245D01*
X137238638Y37572580D01*
X137071202Y37572580D01*
X136906984Y37605245D01*
X136752294Y37669320D01*
X136613076Y37762342D01*
X136494682Y37880736D01*
X136401660Y38019954D01*
X136337585Y38174644D01*
X136304920Y38338862D01*
X136304920Y38506298D01*
X136337585Y38670516D01*
X136401660Y38825206D01*
X136494682Y38964424D01*
X136613076Y39082818D01*
X136752294Y39175840D01*
X136906984Y39239915D01*
X137071202Y39272580D01*
X137238638Y39272580D01*
X137402856Y39239915D01*
G37*
G36*
X127242856Y39239915D02*
G01*
X127397546Y39175840D01*
X127536764Y39082818D01*
X127655158Y38964424D01*
X127748180Y38825206D01*
X127812255Y38670516D01*
X127844920Y38506298D01*
X127844920Y38338862D01*
X127812255Y38174644D01*
X127748180Y38019954D01*
X127655158Y37880736D01*
X127536764Y37762342D01*
X127397546Y37669320D01*
X127242856Y37605245D01*
X127078638Y37572580D01*
X126911202Y37572580D01*
X126746984Y37605245D01*
X126592294Y37669320D01*
X126453076Y37762342D01*
X126334682Y37880736D01*
X126241660Y38019954D01*
X126177585Y38174644D01*
X126144920Y38338862D01*
X126144920Y38506298D01*
X126177585Y38670516D01*
X126241660Y38825206D01*
X126334682Y38964424D01*
X126453076Y39082818D01*
X126592294Y39175840D01*
X126746984Y39239915D01*
X126911202Y39272580D01*
X127078638Y39272580D01*
X127242856Y39239915D01*
G37*
G36*
X116697420Y37627900D02*
G01*
X113797420Y37627900D01*
X113797420Y40527900D01*
X116697420Y40527900D01*
X116697420Y37627900D01*
G37*
G36*
X29359623Y40389511D02*
G01*
X29433387Y40367136D01*
X29501361Y40330803D01*
X29560944Y40281904D01*
X29609843Y40222321D01*
X29646176Y40154347D01*
X29668551Y40080583D01*
X29676720Y39997646D01*
X29676720Y38447714D01*
X29668551Y38364777D01*
X29646176Y38291013D01*
X29609843Y38223039D01*
X29560944Y38163456D01*
X29501361Y38114557D01*
X29433387Y38078224D01*
X29359623Y38055849D01*
X29276686Y38047680D01*
X26186754Y38047680D01*
X26103817Y38055849D01*
X26030053Y38078224D01*
X25962079Y38114557D01*
X25902496Y38163456D01*
X25853597Y38223039D01*
X25817264Y38291013D01*
X25794889Y38364777D01*
X25786720Y38447714D01*
X25786720Y39997646D01*
X25794889Y40080583D01*
X25817264Y40154347D01*
X25853597Y40222321D01*
X25902496Y40281904D01*
X25962079Y40330803D01*
X26030053Y40367136D01*
X26103817Y40389511D01*
X26186754Y40397680D01*
X29276686Y40397680D01*
X29359623Y40389511D01*
G37*
G36*
X60821856Y40136415D02*
G01*
X60976546Y40072340D01*
X61115764Y39979318D01*
X61234158Y39860924D01*
X61327180Y39721706D01*
X61391255Y39567016D01*
X61423920Y39402798D01*
X61423920Y39235362D01*
X61391255Y39071144D01*
X61327180Y38916454D01*
X61234158Y38777236D01*
X61115764Y38658842D01*
X60976546Y38565820D01*
X60821856Y38501745D01*
X60657638Y38469080D01*
X60490202Y38469080D01*
X60325984Y38501745D01*
X60171294Y38565820D01*
X60032076Y38658842D01*
X59913682Y38777236D01*
X59820660Y38916454D01*
X59756585Y39071144D01*
X59723920Y39235362D01*
X59723920Y39402798D01*
X59756585Y39567016D01*
X59820660Y39721706D01*
X59913682Y39860924D01*
X60032076Y39979318D01*
X60171294Y40072340D01*
X60325984Y40136415D01*
X60490202Y40169080D01*
X60657638Y40169080D01*
X60821856Y40136415D01*
G37*
G36*
X104593305Y40196921D02*
G01*
X104627913Y40186422D01*
X104659816Y40169370D01*
X104687770Y40146430D01*
X104710710Y40118476D01*
X104727762Y40086573D01*
X104738261Y40051965D01*
X104742420Y40009740D01*
X104742420Y38867420D01*
X104738261Y38825195D01*
X104727762Y38790587D01*
X104710710Y38758684D01*
X104687770Y38730730D01*
X104659816Y38707790D01*
X104627913Y38690738D01*
X104593305Y38680239D01*
X104551080Y38676080D01*
X103083760Y38676080D01*
X103041535Y38680239D01*
X103006927Y38690738D01*
X102975024Y38707790D01*
X102947070Y38730730D01*
X102924130Y38758684D01*
X102907078Y38790587D01*
X102896579Y38825195D01*
X102892420Y38867420D01*
X102892420Y40009740D01*
X102896579Y40051965D01*
X102907078Y40086573D01*
X102924130Y40118476D01*
X102947070Y40146430D01*
X102975024Y40169370D01*
X103006927Y40186422D01*
X103041535Y40196921D01*
X103083760Y40201080D01*
X104551080Y40201080D01*
X104593305Y40196921D01*
G37*
G36*
X92623891Y42345632D02*
G01*
X92837408Y42303162D01*
X92989469Y42240176D01*
X93078543Y42203280D01*
X93078544Y42203279D01*
X93295559Y42058275D01*
X93480115Y41873719D01*
X93577004Y41728714D01*
X93625120Y41656703D01*
X93662016Y41567629D01*
X93725002Y41415568D01*
X93775920Y41159580D01*
X93775920Y40898580D01*
X93725002Y40642592D01*
X93677494Y40527900D01*
X93625120Y40401457D01*
X93625119Y40401456D01*
X93480115Y40184441D01*
X93295559Y39999885D01*
X93196260Y39933536D01*
X93078543Y39854880D01*
X92989469Y39817984D01*
X92837408Y39754998D01*
X92623891Y39712528D01*
X92581421Y39704080D01*
X92320419Y39704080D01*
X92277949Y39712528D01*
X92064432Y39754998D01*
X91912371Y39817984D01*
X91823297Y39854880D01*
X91705580Y39933536D01*
X91606281Y39999885D01*
X91421725Y40184441D01*
X91276721Y40401456D01*
X91276720Y40401457D01*
X91224346Y40527900D01*
X91176838Y40642592D01*
X91125920Y40898580D01*
X91125920Y41159580D01*
X91176838Y41415568D01*
X91239824Y41567629D01*
X91276720Y41656703D01*
X91324836Y41728714D01*
X91421725Y41873719D01*
X91606281Y42058275D01*
X91823296Y42203279D01*
X91823297Y42203280D01*
X91912371Y42240176D01*
X92064432Y42303162D01*
X92277949Y42345632D01*
X92320419Y42354080D01*
X92581421Y42354080D01*
X92623891Y42345632D01*
G37*
G36*
X85123891Y42345632D02*
G01*
X85337408Y42303162D01*
X85489469Y42240176D01*
X85578543Y42203280D01*
X85578544Y42203279D01*
X85795559Y42058275D01*
X85980115Y41873719D01*
X86077004Y41728714D01*
X86125120Y41656703D01*
X86162016Y41567629D01*
X86225002Y41415568D01*
X86275920Y41159580D01*
X86275920Y40898580D01*
X86225002Y40642592D01*
X86177494Y40527900D01*
X86125120Y40401457D01*
X86125119Y40401456D01*
X85980115Y40184441D01*
X85795559Y39999885D01*
X85696260Y39933536D01*
X85578543Y39854880D01*
X85489469Y39817984D01*
X85337408Y39754998D01*
X85123891Y39712528D01*
X85081421Y39704080D01*
X84820419Y39704080D01*
X84777949Y39712528D01*
X84564432Y39754998D01*
X84412371Y39817984D01*
X84323297Y39854880D01*
X84205580Y39933536D01*
X84106281Y39999885D01*
X83921725Y40184441D01*
X83776721Y40401456D01*
X83776720Y40401457D01*
X83724346Y40527900D01*
X83676838Y40642592D01*
X83625920Y40898580D01*
X83625920Y41159580D01*
X83676838Y41415568D01*
X83739824Y41567629D01*
X83776720Y41656703D01*
X83824836Y41728714D01*
X83921725Y41873719D01*
X84106281Y42058275D01*
X84323296Y42203279D01*
X84323297Y42203280D01*
X84412371Y42240176D01*
X84564432Y42303162D01*
X84777949Y42345632D01*
X84820419Y42354080D01*
X85081421Y42354080D01*
X85123891Y42345632D01*
G37*
G36*
X77623891Y42345632D02*
G01*
X77837408Y42303162D01*
X77989469Y42240176D01*
X78078543Y42203280D01*
X78078544Y42203279D01*
X78295559Y42058275D01*
X78480115Y41873719D01*
X78577004Y41728714D01*
X78625120Y41656703D01*
X78662016Y41567629D01*
X78725002Y41415568D01*
X78775920Y41159580D01*
X78775920Y40898580D01*
X78725002Y40642592D01*
X78677494Y40527900D01*
X78625120Y40401457D01*
X78625119Y40401456D01*
X78480115Y40184441D01*
X78295559Y39999885D01*
X78196260Y39933536D01*
X78078543Y39854880D01*
X77989469Y39817984D01*
X77837408Y39754998D01*
X77623891Y39712528D01*
X77581421Y39704080D01*
X77320419Y39704080D01*
X77277949Y39712528D01*
X77064432Y39754998D01*
X76912371Y39817984D01*
X76823297Y39854880D01*
X76705580Y39933536D01*
X76606281Y39999885D01*
X76421725Y40184441D01*
X76276721Y40401456D01*
X76276720Y40401457D01*
X76224346Y40527900D01*
X76176838Y40642592D01*
X76125920Y40898580D01*
X76125920Y41159580D01*
X76176838Y41415568D01*
X76239824Y41567629D01*
X76276720Y41656703D01*
X76324836Y41728714D01*
X76421725Y41873719D01*
X76606281Y42058275D01*
X76823296Y42203279D01*
X76823297Y42203280D01*
X76912371Y42240176D01*
X77064432Y42303162D01*
X77277949Y42345632D01*
X77320419Y42354080D01*
X77581421Y42354080D01*
X77623891Y42345632D01*
G37*
G36*
X24627285Y44451301D02*
G01*
X24661893Y44440802D01*
X24693796Y44423750D01*
X24721750Y44400810D01*
X24744690Y44372856D01*
X24761742Y44340953D01*
X24772241Y44306345D01*
X24776400Y44264120D01*
X24776400Y43121800D01*
X24772241Y43079575D01*
X24761742Y43044967D01*
X24744690Y43013064D01*
X24721750Y42985110D01*
X24693796Y42962170D01*
X24661893Y42945118D01*
X24627285Y42934619D01*
X24585060Y42930460D01*
X23117740Y42930460D01*
X23075515Y42934619D01*
X23040907Y42945118D01*
X23009004Y42962170D01*
X22981050Y42985110D01*
X22958110Y43013064D01*
X22941058Y43044967D01*
X22930559Y43079575D01*
X22926400Y43121800D01*
X22926400Y44264120D01*
X22930559Y44306345D01*
X22941058Y44340953D01*
X22958110Y44372856D01*
X22981050Y44400810D01*
X23009004Y44423750D01*
X23040907Y44440802D01*
X23075515Y44451301D01*
X23117740Y44455460D01*
X24585060Y44455460D01*
X24627285Y44451301D01*
G37*
G36*
X122231520Y45169720D02*
G01*
X120531520Y45169720D01*
X120531520Y46869720D01*
X122231520Y46869720D01*
X122231520Y45169720D01*
G37*
G36*
X119629456Y46837055D02*
G01*
X119784146Y46772980D01*
X119923364Y46679958D01*
X120041758Y46561564D01*
X120134780Y46422346D01*
X120198855Y46267656D01*
X120231520Y46103438D01*
X120231520Y45936002D01*
X120198855Y45771784D01*
X120134780Y45617094D01*
X120041758Y45477876D01*
X119923364Y45359482D01*
X119784146Y45266460D01*
X119629456Y45202385D01*
X119465238Y45169720D01*
X119297802Y45169720D01*
X119133584Y45202385D01*
X118978894Y45266460D01*
X118839676Y45359482D01*
X118721282Y45477876D01*
X118628260Y45617094D01*
X118564185Y45771784D01*
X118531520Y45936002D01*
X118531520Y46103438D01*
X118564185Y46267656D01*
X118628260Y46422346D01*
X118721282Y46561564D01*
X118839676Y46679958D01*
X118978894Y46772980D01*
X119133584Y46837055D01*
X119297802Y46869720D01*
X119465238Y46869720D01*
X119629456Y46837055D01*
G37*
G36*
X127242856Y46859915D02*
G01*
X127397546Y46795840D01*
X127536764Y46702818D01*
X127655158Y46584424D01*
X127748180Y46445206D01*
X127812255Y46290516D01*
X127844920Y46126298D01*
X127844920Y45958862D01*
X127812255Y45794644D01*
X127748180Y45639954D01*
X127655158Y45500736D01*
X127536764Y45382342D01*
X127397546Y45289320D01*
X127242856Y45225245D01*
X127078638Y45192580D01*
X126911202Y45192580D01*
X126746984Y45225245D01*
X126592294Y45289320D01*
X126453076Y45382342D01*
X126334682Y45500736D01*
X126241660Y45639954D01*
X126177585Y45794644D01*
X126144920Y45958862D01*
X126144920Y46126298D01*
X126177585Y46290516D01*
X126241660Y46445206D01*
X126334682Y46584424D01*
X126453076Y46702818D01*
X126592294Y46795840D01*
X126746984Y46859915D01*
X126911202Y46892580D01*
X127078638Y46892580D01*
X127242856Y46859915D01*
G37*
G36*
X137402856Y46859915D02*
G01*
X137557546Y46795840D01*
X137696764Y46702818D01*
X137815158Y46584424D01*
X137908180Y46445206D01*
X137972255Y46290516D01*
X138004920Y46126298D01*
X138004920Y45958862D01*
X137972255Y45794644D01*
X137908180Y45639954D01*
X137815158Y45500736D01*
X137696764Y45382342D01*
X137557546Y45289320D01*
X137402856Y45225245D01*
X137238638Y45192580D01*
X137071202Y45192580D01*
X136906984Y45225245D01*
X136752294Y45289320D01*
X136613076Y45382342D01*
X136494682Y45500736D01*
X136401660Y45639954D01*
X136337585Y45794644D01*
X136304920Y45958862D01*
X136304920Y46126298D01*
X136337585Y46290516D01*
X136401660Y46445206D01*
X136494682Y46584424D01*
X136613076Y46702818D01*
X136752294Y46795840D01*
X136906984Y46859915D01*
X137071202Y46892580D01*
X137238638Y46892580D01*
X137402856Y46859915D01*
G37*
G36*
X24627285Y47426301D02*
G01*
X24661893Y47415802D01*
X24693796Y47398750D01*
X24721750Y47375810D01*
X24744690Y47347856D01*
X24761742Y47315953D01*
X24772241Y47281345D01*
X24776400Y47239120D01*
X24776400Y46096800D01*
X24772241Y46054575D01*
X24761742Y46019967D01*
X24744690Y45988064D01*
X24721750Y45960110D01*
X24693796Y45937170D01*
X24661893Y45920118D01*
X24627285Y45909619D01*
X24585060Y45905460D01*
X23117740Y45905460D01*
X23075515Y45909619D01*
X23040907Y45920118D01*
X23009004Y45937170D01*
X22981050Y45960110D01*
X22958110Y45988064D01*
X22941058Y46019967D01*
X22930559Y46054575D01*
X22926400Y46096800D01*
X22926400Y47239120D01*
X22930559Y47281345D01*
X22941058Y47315953D01*
X22958110Y47347856D01*
X22981050Y47375810D01*
X23009004Y47398750D01*
X23040907Y47415802D01*
X23075515Y47426301D01*
X23117740Y47430460D01*
X24585060Y47430460D01*
X24627285Y47426301D01*
G37*
G36*
X76975885Y50563601D02*
G01*
X77010493Y50553102D01*
X77042396Y50536050D01*
X77070350Y50513110D01*
X77093290Y50485156D01*
X77110342Y50453253D01*
X77120841Y50418645D01*
X77125000Y50376420D01*
X77125000Y49234100D01*
X77120841Y49191875D01*
X77110342Y49157267D01*
X77093290Y49125364D01*
X77070350Y49097410D01*
X77042396Y49074470D01*
X77010493Y49057418D01*
X76975885Y49046919D01*
X76933660Y49042760D01*
X75466340Y49042760D01*
X75424115Y49046919D01*
X75389507Y49057418D01*
X75357604Y49074470D01*
X75329650Y49097410D01*
X75306710Y49125364D01*
X75289658Y49157267D01*
X75279159Y49191875D01*
X75275000Y49234100D01*
X75275000Y50376420D01*
X75279159Y50418645D01*
X75289658Y50453253D01*
X75306710Y50485156D01*
X75329650Y50513110D01*
X75357604Y50536050D01*
X75389507Y50553102D01*
X75424115Y50563601D01*
X75466340Y50567760D01*
X76933660Y50567760D01*
X76975885Y50563601D01*
G37*
G36*
X24447805Y51217921D02*
G01*
X24482413Y51207422D01*
X24514316Y51190370D01*
X24542270Y51167430D01*
X24565210Y51139476D01*
X24582262Y51107573D01*
X24592761Y51072965D01*
X24596920Y51030740D01*
X24596920Y49563420D01*
X24592761Y49521195D01*
X24582262Y49486587D01*
X24565210Y49454684D01*
X24542270Y49426730D01*
X24514316Y49403790D01*
X24482413Y49386738D01*
X24447805Y49376239D01*
X24405580Y49372080D01*
X23263260Y49372080D01*
X23221035Y49376239D01*
X23186427Y49386738D01*
X23154524Y49403790D01*
X23126570Y49426730D01*
X23103630Y49454684D01*
X23086578Y49486587D01*
X23076079Y49521195D01*
X23071920Y49563420D01*
X23071920Y51030740D01*
X23076079Y51072965D01*
X23086578Y51107573D01*
X23103630Y51139476D01*
X23126570Y51167430D01*
X23154524Y51190370D01*
X23186427Y51207422D01*
X23221035Y51217921D01*
X23263260Y51222080D01*
X24405580Y51222080D01*
X24447805Y51217921D01*
G37*
G36*
X21472805Y51217921D02*
G01*
X21507413Y51207422D01*
X21539316Y51190370D01*
X21567270Y51167430D01*
X21590210Y51139476D01*
X21607262Y51107573D01*
X21617761Y51072965D01*
X21621920Y51030740D01*
X21621920Y49563420D01*
X21617761Y49521195D01*
X21607262Y49486587D01*
X21590210Y49454684D01*
X21567270Y49426730D01*
X21539316Y49403790D01*
X21507413Y49386738D01*
X21472805Y49376239D01*
X21430580Y49372080D01*
X20288260Y49372080D01*
X20246035Y49376239D01*
X20211427Y49386738D01*
X20179524Y49403790D01*
X20151570Y49426730D01*
X20128630Y49454684D01*
X20111578Y49486587D01*
X20101079Y49521195D01*
X20096920Y49563420D01*
X20096920Y51030740D01*
X20101079Y51072965D01*
X20111578Y51107573D01*
X20128630Y51139476D01*
X20151570Y51167430D01*
X20179524Y51190370D01*
X20211427Y51207422D01*
X20246035Y51217921D01*
X20288260Y51222080D01*
X21430580Y51222080D01*
X21472805Y51217921D01*
G37*
G36*
X17534805Y51091921D02*
G01*
X17569413Y51081422D01*
X17601316Y51064370D01*
X17629270Y51041430D01*
X17652210Y51013476D01*
X17669262Y50981573D01*
X17679761Y50946965D01*
X17683920Y50904740D01*
X17683920Y49762420D01*
X17679761Y49720195D01*
X17669262Y49685587D01*
X17652210Y49653684D01*
X17629270Y49625730D01*
X17601316Y49602790D01*
X17569413Y49585738D01*
X17534805Y49575239D01*
X17492580Y49571080D01*
X16025260Y49571080D01*
X15983035Y49575239D01*
X15948427Y49585738D01*
X15916524Y49602790D01*
X15888570Y49625730D01*
X15865630Y49653684D01*
X15848578Y49685587D01*
X15838079Y49720195D01*
X15833920Y49762420D01*
X15833920Y50904740D01*
X15838079Y50946965D01*
X15848578Y50981573D01*
X15865630Y51013476D01*
X15888570Y51041430D01*
X15916524Y51064370D01*
X15948427Y51081422D01*
X15983035Y51091921D01*
X16025260Y51096080D01*
X17492580Y51096080D01*
X17534805Y51091921D01*
G37*
G36*
X52779845Y51709141D02*
G01*
X52814453Y51698642D01*
X52846356Y51681590D01*
X52874310Y51658650D01*
X52897250Y51630696D01*
X52914302Y51598793D01*
X52924801Y51564185D01*
X52928960Y51521960D01*
X52928960Y50379640D01*
X52924801Y50337415D01*
X52914302Y50302807D01*
X52897250Y50270904D01*
X52874310Y50242950D01*
X52846356Y50220010D01*
X52814453Y50202958D01*
X52779845Y50192459D01*
X52737620Y50188300D01*
X51270300Y50188300D01*
X51228075Y50192459D01*
X51193467Y50202958D01*
X51161564Y50220010D01*
X51133610Y50242950D01*
X51110670Y50270904D01*
X51093618Y50302807D01*
X51083119Y50337415D01*
X51078960Y50379640D01*
X51078960Y51521960D01*
X51083119Y51564185D01*
X51093618Y51598793D01*
X51110670Y51630696D01*
X51133610Y51658650D01*
X51161564Y51681590D01*
X51193467Y51698642D01*
X51228075Y51709141D01*
X51270300Y51713300D01*
X52737620Y51713300D01*
X52779845Y51709141D01*
G37*
G36*
X34279025Y52099572D02*
G01*
X34451914Y52027959D01*
X34607510Y51923993D01*
X34739833Y51791670D01*
X34843799Y51636074D01*
X34915412Y51463185D01*
X34951920Y51279647D01*
X34951920Y51092513D01*
X34915412Y50908975D01*
X34843799Y50736086D01*
X34739833Y50580490D01*
X34607510Y50448167D01*
X34451914Y50344201D01*
X34279025Y50272588D01*
X34095487Y50236080D01*
X33908353Y50236080D01*
X33724815Y50272588D01*
X33551926Y50344201D01*
X33396330Y50448167D01*
X33264007Y50580490D01*
X33160041Y50736086D01*
X33088428Y50908975D01*
X33051920Y51092513D01*
X33051920Y51279647D01*
X33088428Y51463185D01*
X33160041Y51636074D01*
X33264007Y51791670D01*
X33396330Y51923993D01*
X33551926Y52027959D01*
X33724815Y52099572D01*
X33908353Y52136080D01*
X34095487Y52136080D01*
X34279025Y52099572D01*
G37*
G36*
X37679025Y52099572D02*
G01*
X37851914Y52027959D01*
X38007510Y51923993D01*
X38139833Y51791670D01*
X38243799Y51636074D01*
X38315412Y51463185D01*
X38351920Y51279647D01*
X38351920Y51092513D01*
X38315412Y50908975D01*
X38243799Y50736086D01*
X38139833Y50580490D01*
X38007510Y50448167D01*
X37851914Y50344201D01*
X37679025Y50272588D01*
X37495487Y50236080D01*
X37308353Y50236080D01*
X37124815Y50272588D01*
X36951926Y50344201D01*
X36796330Y50448167D01*
X36664007Y50580490D01*
X36560041Y50736086D01*
X36488428Y50908975D01*
X36451920Y51092513D01*
X36451920Y51279647D01*
X36488428Y51463185D01*
X36560041Y51636074D01*
X36664007Y51791670D01*
X36796330Y51923993D01*
X36951926Y52027959D01*
X37124815Y52099572D01*
X37308353Y52136080D01*
X37495487Y52136080D01*
X37679025Y52099572D01*
G37*
G36*
X31551920Y50236080D02*
G01*
X29651920Y50236080D01*
X29651920Y52136080D01*
X31551920Y52136080D01*
X31551920Y50236080D01*
G37*
G36*
X46887045Y51759941D02*
G01*
X46921653Y51749442D01*
X46953556Y51732390D01*
X46981510Y51709450D01*
X47004450Y51681496D01*
X47021502Y51649593D01*
X47032001Y51614985D01*
X47036160Y51572760D01*
X47036160Y50430440D01*
X47032001Y50388215D01*
X47021502Y50353607D01*
X47004450Y50321704D01*
X46981510Y50293750D01*
X46953556Y50270810D01*
X46921653Y50253758D01*
X46887045Y50243259D01*
X46844820Y50239100D01*
X45377500Y50239100D01*
X45335275Y50243259D01*
X45300667Y50253758D01*
X45268764Y50270810D01*
X45240810Y50293750D01*
X45217870Y50321704D01*
X45200818Y50353607D01*
X45190319Y50388215D01*
X45186160Y50430440D01*
X45186160Y51572760D01*
X45190319Y51614985D01*
X45200818Y51649593D01*
X45217870Y51681496D01*
X45240810Y51709450D01*
X45268764Y51732390D01*
X45300667Y51749442D01*
X45335275Y51759941D01*
X45377500Y51764100D01*
X46844820Y51764100D01*
X46887045Y51759941D01*
G37*
G36*
X76975885Y53538601D02*
G01*
X77010493Y53528102D01*
X77042396Y53511050D01*
X77070350Y53488110D01*
X77093290Y53460156D01*
X77110342Y53428253D01*
X77120841Y53393645D01*
X77125000Y53351420D01*
X77125000Y52209100D01*
X77120841Y52166875D01*
X77110342Y52132267D01*
X77093290Y52100364D01*
X77070350Y52072410D01*
X77042396Y52049470D01*
X77010493Y52032418D01*
X76975885Y52021919D01*
X76933660Y52017760D01*
X75466340Y52017760D01*
X75424115Y52021919D01*
X75389507Y52032418D01*
X75357604Y52049470D01*
X75329650Y52072410D01*
X75306710Y52100364D01*
X75289658Y52132267D01*
X75279159Y52166875D01*
X75275000Y52209100D01*
X75275000Y53351420D01*
X75279159Y53393645D01*
X75289658Y53428253D01*
X75306710Y53460156D01*
X75329650Y53488110D01*
X75357604Y53511050D01*
X75389507Y53528102D01*
X75424115Y53538601D01*
X75466340Y53542760D01*
X76933660Y53542760D01*
X76975885Y53538601D01*
G37*
G36*
X64394570Y54744347D02*
G01*
X64579047Y54667934D01*
X64599307Y54659542D01*
X64783566Y54536424D01*
X64940264Y54379726D01*
X65006571Y54280490D01*
X65063382Y54195467D01*
X65148187Y53990730D01*
X65191420Y53773383D01*
X65191420Y53551777D01*
X65148187Y53334430D01*
X65063382Y53129693D01*
X64940264Y52945434D01*
X64783566Y52788736D01*
X64643572Y52695195D01*
X64599307Y52665618D01*
X64394570Y52580813D01*
X64177223Y52537580D01*
X63955617Y52537580D01*
X63738270Y52580813D01*
X63533533Y52665618D01*
X63489268Y52695195D01*
X63349274Y52788736D01*
X63192576Y52945434D01*
X63069458Y53129693D01*
X62984653Y53334430D01*
X62941420Y53551777D01*
X62941420Y53773383D01*
X62984653Y53990730D01*
X63069458Y54195467D01*
X63126269Y54280490D01*
X63192576Y54379726D01*
X63349274Y54536424D01*
X63533533Y54659542D01*
X63553793Y54667934D01*
X63738270Y54744347D01*
X63955617Y54787580D01*
X64177223Y54787580D01*
X64394570Y54744347D01*
G37*
G36*
X17534805Y54066921D02*
G01*
X17569413Y54056422D01*
X17601316Y54039370D01*
X17629270Y54016430D01*
X17652210Y53988476D01*
X17669262Y53956573D01*
X17679761Y53921965D01*
X17683920Y53879740D01*
X17683920Y52737420D01*
X17679761Y52695195D01*
X17669262Y52660587D01*
X17652210Y52628684D01*
X17629270Y52600730D01*
X17601316Y52577790D01*
X17569413Y52560738D01*
X17534805Y52550239D01*
X17492580Y52546080D01*
X16025260Y52546080D01*
X15983035Y52550239D01*
X15948427Y52560738D01*
X15916524Y52577790D01*
X15888570Y52600730D01*
X15865630Y52628684D01*
X15848578Y52660587D01*
X15838079Y52695195D01*
X15833920Y52737420D01*
X15833920Y53879740D01*
X15838079Y53921965D01*
X15848578Y53956573D01*
X15865630Y53988476D01*
X15888570Y54016430D01*
X15916524Y54039370D01*
X15948427Y54056422D01*
X15983035Y54066921D01*
X16025260Y54071080D01*
X17492580Y54071080D01*
X17534805Y54066921D01*
G37*
G36*
X52779845Y54684141D02*
G01*
X52814453Y54673642D01*
X52846356Y54656590D01*
X52874310Y54633650D01*
X52897250Y54605696D01*
X52914302Y54573793D01*
X52924801Y54539185D01*
X52928960Y54496960D01*
X52928960Y53354640D01*
X52924801Y53312415D01*
X52914302Y53277807D01*
X52897250Y53245904D01*
X52874310Y53217950D01*
X52846356Y53195010D01*
X52814453Y53177958D01*
X52779845Y53167459D01*
X52737620Y53163300D01*
X51270300Y53163300D01*
X51228075Y53167459D01*
X51193467Y53177958D01*
X51161564Y53195010D01*
X51133610Y53217950D01*
X51110670Y53245904D01*
X51093618Y53277807D01*
X51083119Y53312415D01*
X51078960Y53354640D01*
X51078960Y54496960D01*
X51083119Y54539185D01*
X51093618Y54573793D01*
X51110670Y54605696D01*
X51133610Y54633650D01*
X51161564Y54656590D01*
X51193467Y54673642D01*
X51228075Y54684141D01*
X51270300Y54688300D01*
X52737620Y54688300D01*
X52779845Y54684141D01*
G37*
G36*
X46887045Y54734941D02*
G01*
X46921653Y54724442D01*
X46953556Y54707390D01*
X46981510Y54684450D01*
X47004450Y54656496D01*
X47021502Y54624593D01*
X47032001Y54589985D01*
X47036160Y54547760D01*
X47036160Y53405440D01*
X47032001Y53363215D01*
X47021502Y53328607D01*
X47004450Y53296704D01*
X46981510Y53268750D01*
X46953556Y53245810D01*
X46921653Y53228758D01*
X46887045Y53218259D01*
X46844820Y53214100D01*
X45377500Y53214100D01*
X45335275Y53218259D01*
X45300667Y53228758D01*
X45268764Y53245810D01*
X45240810Y53268750D01*
X45217870Y53296704D01*
X45200818Y53328607D01*
X45190319Y53363215D01*
X45186160Y53405440D01*
X45186160Y54547760D01*
X45190319Y54589985D01*
X45200818Y54624593D01*
X45217870Y54656496D01*
X45240810Y54684450D01*
X45268764Y54707390D01*
X45300667Y54724442D01*
X45335275Y54734941D01*
X45377500Y54739100D01*
X46844820Y54739100D01*
X46887045Y54734941D01*
G37*
G36*
X35979025Y55799572D02*
G01*
X36151914Y55727959D01*
X36307510Y55623993D01*
X36439833Y55491670D01*
X36543799Y55336074D01*
X36615412Y55163185D01*
X36651920Y54979647D01*
X36651920Y54792513D01*
X36615412Y54608975D01*
X36543799Y54436086D01*
X36439833Y54280490D01*
X36307510Y54148167D01*
X36151914Y54044201D01*
X35979025Y53972588D01*
X35795487Y53936080D01*
X35608353Y53936080D01*
X35424815Y53972588D01*
X35251926Y54044201D01*
X35096330Y54148167D01*
X34964007Y54280490D01*
X34860041Y54436086D01*
X34788428Y54608975D01*
X34751920Y54792513D01*
X34751920Y54979647D01*
X34788428Y55163185D01*
X34860041Y55336074D01*
X34964007Y55491670D01*
X35096330Y55623993D01*
X35251926Y55727959D01*
X35424815Y55799572D01*
X35608353Y55836080D01*
X35795487Y55836080D01*
X35979025Y55799572D01*
G37*
G36*
X32579025Y55799572D02*
G01*
X32751914Y55727959D01*
X32907510Y55623993D01*
X33039833Y55491670D01*
X33143799Y55336074D01*
X33215412Y55163185D01*
X33251920Y54979647D01*
X33251920Y54792513D01*
X33215412Y54608975D01*
X33143799Y54436086D01*
X33039833Y54280490D01*
X32907510Y54148167D01*
X32751914Y54044201D01*
X32579025Y53972588D01*
X32395487Y53936080D01*
X32208353Y53936080D01*
X32024815Y53972588D01*
X31851926Y54044201D01*
X31696330Y54148167D01*
X31564007Y54280490D01*
X31460041Y54436086D01*
X31388428Y54608975D01*
X31351920Y54792513D01*
X31351920Y54979647D01*
X31388428Y55163185D01*
X31460041Y55336074D01*
X31564007Y55491670D01*
X31696330Y55623993D01*
X31851926Y55727959D01*
X32024815Y55799572D01*
X32208353Y55836080D01*
X32395487Y55836080D01*
X32579025Y55799572D01*
G37*
G36*
X85010920Y54689080D02*
G01*
X82110920Y54689080D01*
X82110920Y57589080D01*
X85010920Y57589080D01*
X85010920Y54689080D01*
G37*
G36*
X111923869Y57533357D02*
G01*
X112187753Y57424053D01*
X112425241Y57265369D01*
X112627209Y57063401D01*
X112785893Y56825913D01*
X112895197Y56562029D01*
X112950920Y56281893D01*
X112950920Y55996267D01*
X112895197Y55716131D01*
X112785893Y55452247D01*
X112627209Y55214759D01*
X112425241Y55012791D01*
X112187753Y54854107D01*
X111923869Y54744803D01*
X111643733Y54689080D01*
X111358107Y54689080D01*
X111077971Y54744803D01*
X110814087Y54854107D01*
X110576599Y55012791D01*
X110374631Y55214759D01*
X110215947Y55452247D01*
X110106643Y55716131D01*
X110050920Y55996267D01*
X110050920Y56281893D01*
X110106643Y56562029D01*
X110215947Y56825913D01*
X110374631Y57063401D01*
X110576599Y57265369D01*
X110814087Y57424053D01*
X111077971Y57533357D01*
X111358107Y57589080D01*
X111643733Y57589080D01*
X111923869Y57533357D01*
G37*
G36*
X94143869Y57533357D02*
G01*
X94407753Y57424053D01*
X94645241Y57265369D01*
X94847209Y57063401D01*
X95005893Y56825913D01*
X95115197Y56562029D01*
X95170920Y56281893D01*
X95170920Y55996267D01*
X95115197Y55716131D01*
X95005893Y55452247D01*
X94847209Y55214759D01*
X94645241Y55012791D01*
X94407753Y54854107D01*
X94143869Y54744803D01*
X93863733Y54689080D01*
X93578107Y54689080D01*
X93297971Y54744803D01*
X93034087Y54854107D01*
X92796599Y55012791D01*
X92594631Y55214759D01*
X92435947Y55452247D01*
X92326643Y55716131D01*
X92270920Y55996267D01*
X92270920Y56281893D01*
X92326643Y56562029D01*
X92435947Y56825913D01*
X92594631Y57063401D01*
X92796599Y57265369D01*
X93034087Y57424053D01*
X93297971Y57533357D01*
X93578107Y57589080D01*
X93863733Y57589080D01*
X94143869Y57533357D01*
G37*
G36*
X102790920Y54689080D02*
G01*
X99890920Y54689080D01*
X99890920Y57589080D01*
X102790920Y57589080D01*
X102790920Y54689080D01*
G37*
G36*
X138604920Y54752580D02*
G01*
X135704920Y54752580D01*
X135704920Y57652580D01*
X138604920Y57652580D01*
X138604920Y54752580D01*
G37*
G36*
X127417869Y57596857D02*
G01*
X127681753Y57487553D01*
X127919241Y57328869D01*
X128121209Y57126901D01*
X128279893Y56889413D01*
X128389197Y56625529D01*
X128444920Y56345393D01*
X128444920Y56059767D01*
X128389197Y55779631D01*
X128279893Y55515747D01*
X128121209Y55278259D01*
X127919241Y55076291D01*
X127681753Y54917607D01*
X127417869Y54808303D01*
X127137733Y54752580D01*
X126852107Y54752580D01*
X126571971Y54808303D01*
X126308087Y54917607D01*
X126070599Y55076291D01*
X125868631Y55278259D01*
X125709947Y55515747D01*
X125600643Y55779631D01*
X125544920Y56059767D01*
X125544920Y56345393D01*
X125600643Y56625529D01*
X125709947Y56889413D01*
X125868631Y57126901D01*
X126070599Y57328869D01*
X126308087Y57487553D01*
X126571971Y57596857D01*
X126852107Y57652580D01*
X127137733Y57652580D01*
X127417869Y57596857D01*
G37*
G36*
X61894570Y57244347D02*
G01*
X62099307Y57159542D01*
X62283566Y57036424D01*
X62440264Y56879726D01*
X62476221Y56825912D01*
X62563382Y56695467D01*
X62648187Y56490730D01*
X62691420Y56273383D01*
X62691420Y56051777D01*
X62648187Y55834430D01*
X62604085Y55727959D01*
X62563382Y55629693D01*
X62440264Y55445434D01*
X62283566Y55288736D01*
X62099307Y55165618D01*
X61894570Y55080813D01*
X61677223Y55037580D01*
X61455617Y55037580D01*
X61238270Y55080813D01*
X61033533Y55165618D01*
X60849274Y55288736D01*
X60692576Y55445434D01*
X60569458Y55629693D01*
X60528755Y55727959D01*
X60484653Y55834430D01*
X60441420Y56051777D01*
X60441420Y56273383D01*
X60484653Y56490730D01*
X60569458Y56695467D01*
X60656619Y56825912D01*
X60692576Y56879726D01*
X60849274Y57036424D01*
X61033533Y57159542D01*
X61238270Y57244347D01*
X61455617Y57287580D01*
X61677223Y57287580D01*
X61894570Y57244347D01*
G37*
G36*
X13490780Y55395760D02*
G01*
X11790780Y55395760D01*
X11790780Y57095760D01*
X13490780Y57095760D01*
X13490780Y55395760D01*
G37*
G36*
X22305380Y55395760D02*
G01*
X20605380Y55395760D01*
X20605380Y57095760D01*
X22305380Y57095760D01*
X22305380Y55395760D01*
G37*
G36*
X77170920Y57279080D02*
G01*
X75170920Y57279080D01*
X75170920Y58179080D01*
X77170920Y58179080D01*
X77170920Y57279080D01*
G37*
G36*
X21703316Y59063095D02*
G01*
X21858006Y58999020D01*
X21997224Y58905998D01*
X22115618Y58787604D01*
X22208640Y58648386D01*
X22272715Y58493696D01*
X22305380Y58329478D01*
X22305380Y58162042D01*
X22272715Y57997824D01*
X22208640Y57843134D01*
X22115618Y57703916D01*
X21997224Y57585522D01*
X21858006Y57492500D01*
X21703316Y57428425D01*
X21539098Y57395760D01*
X21371662Y57395760D01*
X21207444Y57428425D01*
X21052754Y57492500D01*
X20913536Y57585522D01*
X20795142Y57703916D01*
X20702120Y57843134D01*
X20638045Y57997824D01*
X20605380Y58162042D01*
X20605380Y58329478D01*
X20638045Y58493696D01*
X20702120Y58648386D01*
X20795142Y58787604D01*
X20913536Y58905998D01*
X21052754Y58999020D01*
X21207444Y59063095D01*
X21371662Y59095760D01*
X21539098Y59095760D01*
X21703316Y59063095D01*
G37*
G36*
X12888716Y59063095D02*
G01*
X13043406Y58999020D01*
X13182624Y58905998D01*
X13301018Y58787604D01*
X13394040Y58648386D01*
X13458115Y58493696D01*
X13490780Y58329478D01*
X13490780Y58162042D01*
X13458115Y57997824D01*
X13394040Y57843134D01*
X13301018Y57703916D01*
X13182624Y57585522D01*
X13043406Y57492500D01*
X12888716Y57428425D01*
X12724498Y57395760D01*
X12557062Y57395760D01*
X12392844Y57428425D01*
X12238154Y57492500D01*
X12098936Y57585522D01*
X11980542Y57703916D01*
X11887520Y57843134D01*
X11823445Y57997824D01*
X11790780Y58162042D01*
X11790780Y58329478D01*
X11823445Y58493696D01*
X11887520Y58648386D01*
X11980542Y58787604D01*
X12098936Y58905998D01*
X12238154Y58999020D01*
X12392844Y59063095D01*
X12557062Y59095760D01*
X12724498Y59095760D01*
X12888716Y59063095D01*
G37*
G36*
X64394570Y59744347D02*
G01*
X64599307Y59659542D01*
X64783566Y59536424D01*
X64940264Y59379726D01*
X65063382Y59195467D01*
X65148187Y58990730D01*
X65191420Y58773383D01*
X65191420Y58551777D01*
X65148187Y58334430D01*
X65083839Y58179080D01*
X65063382Y58129693D01*
X64940264Y57945434D01*
X64783566Y57788736D01*
X64656625Y57703917D01*
X64599307Y57665618D01*
X64394570Y57580813D01*
X64177223Y57537580D01*
X63955617Y57537580D01*
X63738270Y57580813D01*
X63533533Y57665618D01*
X63476215Y57703917D01*
X63349274Y57788736D01*
X63192576Y57945434D01*
X63069458Y58129693D01*
X63049001Y58179080D01*
X62984653Y58334430D01*
X62941420Y58551777D01*
X62941420Y58773383D01*
X62984653Y58990730D01*
X63069458Y59195467D01*
X63192576Y59379726D01*
X63349274Y59536424D01*
X63533533Y59659542D01*
X63738270Y59744347D01*
X63955617Y59787580D01*
X64177223Y59787580D01*
X64394570Y59744347D01*
G37*
G36*
X74170920Y58229080D02*
G01*
X72170920Y58229080D01*
X72170920Y59129080D01*
X74170920Y59129080D01*
X74170920Y58229080D01*
G37*
G36*
X77170920Y59179080D02*
G01*
X75170920Y59179080D01*
X75170920Y60079080D01*
X77170920Y60079080D01*
X77170920Y59179080D01*
G37*
G36*
X136201518Y66956101D02*
G01*
X136260664Y66931601D01*
X136319811Y66907102D01*
X136426271Y66835968D01*
X136516808Y66745431D01*
X136587942Y66638971D01*
X136636941Y66520677D01*
X136661920Y66395099D01*
X136661920Y66267061D01*
X136636941Y66141483D01*
X136587942Y66023189D01*
X136516808Y65916729D01*
X136426271Y65826192D01*
X136319811Y65755058D01*
X136260664Y65730558D01*
X136201518Y65706059D01*
X136075939Y65681080D01*
X135947901Y65681080D01*
X135822322Y65706059D01*
X135763176Y65730559D01*
X135704029Y65755058D01*
X135597569Y65826192D01*
X135507032Y65916729D01*
X135435898Y66023189D01*
X135386899Y66141483D01*
X135361920Y66267061D01*
X135361920Y66395099D01*
X135386899Y66520677D01*
X135435898Y66638971D01*
X135507032Y66745431D01*
X135597569Y66835968D01*
X135704029Y66907102D01*
X135763176Y66931602D01*
X135822322Y66956101D01*
X135947901Y66981080D01*
X136075939Y66981080D01*
X136201518Y66956101D01*
G37*
G36*
X136661920Y67681080D02*
G01*
X135361920Y67681080D01*
X135361920Y68981080D01*
X136661920Y68981080D01*
X136661920Y67681080D01*
G37*
G36*
X12789490Y71588357D02*
G01*
X13006965Y71498276D01*
X13202689Y71367497D01*
X13369137Y71201049D01*
X13499916Y71005325D01*
X13589997Y70787850D01*
X13635920Y70556977D01*
X13635920Y70321583D01*
X13589997Y70090710D01*
X13499916Y69873235D01*
X13369137Y69677511D01*
X13202689Y69511063D01*
X13006965Y69380284D01*
X12789490Y69290203D01*
X12558617Y69244280D01*
X12323223Y69244280D01*
X12092350Y69290203D01*
X11874875Y69380284D01*
X11679151Y69511063D01*
X11512703Y69677511D01*
X11381924Y69873235D01*
X11291843Y70090710D01*
X11245920Y70321583D01*
X11245920Y70556977D01*
X11291843Y70787850D01*
X11381924Y71005325D01*
X11512703Y71201049D01*
X11679151Y71367497D01*
X11874875Y71498276D01*
X12092350Y71588357D01*
X12323223Y71634280D01*
X12558617Y71634280D01*
X12789490Y71588357D01*
G37*
G36*
X73097741Y76353028D02*
G01*
X73671005Y76115574D01*
X74186928Y75770845D01*
X74625685Y75332088D01*
X74970414Y74816165D01*
X75207868Y74242901D01*
X75328920Y73634328D01*
X75328920Y73013832D01*
X75207868Y72405259D01*
X74970414Y71831995D01*
X74625685Y71316072D01*
X74186928Y70877315D01*
X73671005Y70532586D01*
X73097741Y70295132D01*
X72489168Y70174080D01*
X71868672Y70174080D01*
X71260099Y70295132D01*
X70686835Y70532586D01*
X70170912Y70877315D01*
X69732155Y71316072D01*
X69387426Y71831995D01*
X69149972Y72405259D01*
X69028920Y73013832D01*
X69028920Y73634328D01*
X69149972Y74242901D01*
X69387426Y74816165D01*
X69732155Y75332088D01*
X70170912Y75770845D01*
X70686835Y76115574D01*
X71260099Y76353028D01*
X71868672Y76474080D01*
X72489168Y76474080D01*
X73097741Y76353028D01*
G37*
G36*
X34845891Y73203632D02*
G01*
X35059408Y73161162D01*
X35211469Y73098176D01*
X35300543Y73061280D01*
X35300544Y73061279D01*
X35517559Y72916275D01*
X35702115Y72731719D01*
X35799004Y72586714D01*
X35847120Y72514703D01*
X35884016Y72425629D01*
X35947002Y72273568D01*
X35997920Y72017580D01*
X35997920Y71756580D01*
X35947002Y71500592D01*
X35884016Y71348531D01*
X35847120Y71259457D01*
X35847119Y71259456D01*
X35702115Y71042441D01*
X35517559Y70857885D01*
X35412742Y70787849D01*
X35300543Y70712880D01*
X35211469Y70675984D01*
X35059408Y70612998D01*
X34845891Y70570528D01*
X34803421Y70562080D01*
X34542419Y70562080D01*
X34499949Y70570528D01*
X34286432Y70612998D01*
X34134371Y70675984D01*
X34045297Y70712880D01*
X33933098Y70787849D01*
X33828281Y70857885D01*
X33643725Y71042441D01*
X33498721Y71259456D01*
X33498720Y71259457D01*
X33461824Y71348531D01*
X33398838Y71500592D01*
X33347920Y71756580D01*
X33347920Y72017580D01*
X33398838Y72273568D01*
X33461824Y72425629D01*
X33498720Y72514703D01*
X33546836Y72586714D01*
X33643725Y72731719D01*
X33828281Y72916275D01*
X34045296Y73061279D01*
X34045297Y73061280D01*
X34134371Y73098176D01*
X34286432Y73161162D01*
X34499949Y73203632D01*
X34542419Y73212080D01*
X34803421Y73212080D01*
X34845891Y73203632D01*
G37*
G36*
X27345891Y73203632D02*
G01*
X27559408Y73161162D01*
X27711469Y73098176D01*
X27800543Y73061280D01*
X27800544Y73061279D01*
X28017559Y72916275D01*
X28202115Y72731719D01*
X28299004Y72586714D01*
X28347120Y72514703D01*
X28384016Y72425629D01*
X28447002Y72273568D01*
X28497920Y72017580D01*
X28497920Y71756580D01*
X28447002Y71500592D01*
X28384016Y71348531D01*
X28347120Y71259457D01*
X28347119Y71259456D01*
X28202115Y71042441D01*
X28017559Y70857885D01*
X27912742Y70787849D01*
X27800543Y70712880D01*
X27711469Y70675984D01*
X27559408Y70612998D01*
X27345891Y70570528D01*
X27303421Y70562080D01*
X27042419Y70562080D01*
X26999949Y70570528D01*
X26786432Y70612998D01*
X26634371Y70675984D01*
X26545297Y70712880D01*
X26433098Y70787849D01*
X26328281Y70857885D01*
X26143725Y71042441D01*
X25998721Y71259456D01*
X25998720Y71259457D01*
X25961824Y71348531D01*
X25898838Y71500592D01*
X25847920Y71756580D01*
X25847920Y72017580D01*
X25898838Y72273568D01*
X25961824Y72425629D01*
X25998720Y72514703D01*
X26046836Y72586714D01*
X26143725Y72731719D01*
X26328281Y72916275D01*
X26545296Y73061279D01*
X26545297Y73061280D01*
X26634371Y73098176D01*
X26786432Y73161162D01*
X26999949Y73203632D01*
X27042419Y73212080D01*
X27303421Y73212080D01*
X27345891Y73203632D01*
G37*
G36*
X12789490Y76592157D02*
G01*
X13006965Y76502076D01*
X13202689Y76371297D01*
X13369137Y76204849D01*
X13499916Y76009125D01*
X13589997Y75791650D01*
X13635920Y75560777D01*
X13635920Y75325383D01*
X13589997Y75094510D01*
X13499916Y74877035D01*
X13369137Y74681311D01*
X13202689Y74514863D01*
X13006965Y74384084D01*
X12789490Y74294003D01*
X12558617Y74248080D01*
X12323223Y74248080D01*
X12092350Y74294003D01*
X11874875Y74384084D01*
X11679151Y74514863D01*
X11512703Y74681311D01*
X11381924Y74877035D01*
X11291843Y75094510D01*
X11245920Y75325383D01*
X11245920Y75560777D01*
X11291843Y75791650D01*
X11381924Y76009125D01*
X11512703Y76204849D01*
X11679151Y76371297D01*
X11874875Y76502076D01*
X12092350Y76592157D01*
X12323223Y76638080D01*
X12558617Y76638080D01*
X12789490Y76592157D01*
G37*
G36*
X136360490Y77735157D02*
G01*
X136577965Y77645076D01*
X136773689Y77514297D01*
X136940137Y77347849D01*
X137070916Y77152125D01*
X137160997Y76934650D01*
X137206920Y76703777D01*
X137206920Y76468383D01*
X137160997Y76237510D01*
X137070916Y76020035D01*
X136940137Y75824311D01*
X136773689Y75657863D01*
X136577965Y75527084D01*
X136360490Y75437003D01*
X136129617Y75391080D01*
X135894223Y75391080D01*
X135663350Y75437003D01*
X135445875Y75527084D01*
X135250151Y75657863D01*
X135083703Y75824311D01*
X134952924Y76020035D01*
X134862843Y76237510D01*
X134816920Y76468383D01*
X134816920Y76703777D01*
X134862843Y76934650D01*
X134952924Y77152125D01*
X135083703Y77347849D01*
X135250151Y77514297D01*
X135445875Y77645076D01*
X135663350Y77735157D01*
X135894223Y77781080D01*
X136129617Y77781080D01*
X136360490Y77735157D01*
G37*
G36*
X90701344Y80730496D02*
G01*
X91097169Y80566540D01*
X91453402Y80328513D01*
X91756353Y80025562D01*
X91994380Y79669329D01*
X92158336Y79273504D01*
X92241920Y78853299D01*
X92241920Y78424861D01*
X92158336Y78004656D01*
X91994380Y77608831D01*
X91756353Y77252598D01*
X91453402Y76949647D01*
X91097169Y76711620D01*
X90701344Y76547664D01*
X90281139Y76464080D01*
X89852701Y76464080D01*
X89432496Y76547664D01*
X89036671Y76711620D01*
X88680438Y76949647D01*
X88377487Y77252598D01*
X88139460Y77608831D01*
X87975504Y78004656D01*
X87891920Y78424861D01*
X87891920Y78853299D01*
X87975504Y79273504D01*
X88139460Y79669329D01*
X88377487Y80025562D01*
X88680438Y80328513D01*
X89036671Y80566540D01*
X89432496Y80730496D01*
X89852701Y80814080D01*
X90281139Y80814080D01*
X90701344Y80730496D01*
G37*
G36*
X116101344Y80730496D02*
G01*
X116497169Y80566540D01*
X116853402Y80328513D01*
X117156353Y80025562D01*
X117394380Y79669329D01*
X117558336Y79273504D01*
X117641920Y78853299D01*
X117641920Y78424861D01*
X117558336Y78004656D01*
X117394380Y77608831D01*
X117156353Y77252598D01*
X116853402Y76949647D01*
X116497169Y76711620D01*
X116101344Y76547664D01*
X115681139Y76464080D01*
X115252701Y76464080D01*
X114832496Y76547664D01*
X114436671Y76711620D01*
X114080438Y76949647D01*
X113777487Y77252598D01*
X113539460Y77608831D01*
X113375504Y78004656D01*
X113291920Y78424861D01*
X113291920Y78853299D01*
X113375504Y79273504D01*
X113539460Y79669329D01*
X113777487Y80025562D01*
X114080438Y80328513D01*
X114436671Y80566540D01*
X114832496Y80730496D01*
X115252701Y80814080D01*
X115681139Y80814080D01*
X116101344Y80730496D01*
G37*
G36*
X136360490Y82738957D02*
G01*
X136577965Y82648876D01*
X136773689Y82518097D01*
X136940137Y82351649D01*
X137070916Y82155925D01*
X137160997Y81938450D01*
X137206920Y81707577D01*
X137206920Y81472183D01*
X137160997Y81241310D01*
X137070916Y81023835D01*
X136940137Y80828111D01*
X136773689Y80661663D01*
X136577965Y80530884D01*
X136360490Y80440803D01*
X136129617Y80394880D01*
X135894223Y80394880D01*
X135663350Y80440803D01*
X135445875Y80530884D01*
X135250151Y80661663D01*
X135083703Y80828111D01*
X134952924Y81023835D01*
X134862843Y81241310D01*
X134816920Y81472183D01*
X134816920Y81707577D01*
X134862843Y81938450D01*
X134952924Y82155925D01*
X135083703Y82351649D01*
X135250151Y82518097D01*
X135445875Y82648876D01*
X135663350Y82738957D01*
X135894223Y82784880D01*
X136129617Y82784880D01*
X136360490Y82738957D01*
G37*
G36*
X22542805Y83094921D02*
G01*
X22577413Y83084422D01*
X22609316Y83067370D01*
X22637270Y83044430D01*
X22660210Y83016476D01*
X22677262Y82984573D01*
X22687761Y82949965D01*
X22691920Y82907740D01*
X22691920Y81440420D01*
X22687761Y81398195D01*
X22677262Y81363587D01*
X22660210Y81331684D01*
X22637270Y81303730D01*
X22609316Y81280790D01*
X22577413Y81263738D01*
X22542805Y81253239D01*
X22500580Y81249080D01*
X21358260Y81249080D01*
X21316035Y81253239D01*
X21281427Y81263738D01*
X21249524Y81280790D01*
X21221570Y81303730D01*
X21198630Y81331684D01*
X21181578Y81363587D01*
X21171079Y81398195D01*
X21166920Y81440420D01*
X21166920Y82907740D01*
X21171079Y82949965D01*
X21181578Y82984573D01*
X21198630Y83016476D01*
X21221570Y83044430D01*
X21249524Y83067370D01*
X21281427Y83084422D01*
X21316035Y83094921D01*
X21358260Y83099080D01*
X22500580Y83099080D01*
X22542805Y83094921D01*
G37*
G36*
X19567805Y83094921D02*
G01*
X19602413Y83084422D01*
X19634316Y83067370D01*
X19662270Y83044430D01*
X19685210Y83016476D01*
X19702262Y82984573D01*
X19712761Y82949965D01*
X19716920Y82907740D01*
X19716920Y81440420D01*
X19712761Y81398195D01*
X19702262Y81363587D01*
X19685210Y81331684D01*
X19662270Y81303730D01*
X19634316Y81280790D01*
X19602413Y81263738D01*
X19567805Y81253239D01*
X19525580Y81249080D01*
X18383260Y81249080D01*
X18341035Y81253239D01*
X18306427Y81263738D01*
X18274524Y81280790D01*
X18246570Y81303730D01*
X18223630Y81331684D01*
X18206578Y81363587D01*
X18196079Y81398195D01*
X18191920Y81440420D01*
X18191920Y82907740D01*
X18196079Y82949965D01*
X18206578Y82984573D01*
X18223630Y83016476D01*
X18246570Y83044430D01*
X18274524Y83067370D01*
X18306427Y83084422D01*
X18341035Y83094921D01*
X18383260Y83099080D01*
X19525580Y83099080D01*
X19567805Y83094921D01*
G37*
G36*
X48318363Y83660886D02*
G01*
X48527649Y83574197D01*
X48716003Y83448343D01*
X48876183Y83288163D01*
X49002037Y83099809D01*
X49088726Y82890523D01*
X49132920Y82668344D01*
X49132920Y82441816D01*
X49088726Y82219637D01*
X49002037Y82010351D01*
X48876183Y81821997D01*
X48716003Y81661817D01*
X48527649Y81535963D01*
X48373670Y81472183D01*
X48318363Y81449274D01*
X48096185Y81405080D01*
X47869655Y81405080D01*
X47647477Y81449274D01*
X47592170Y81472183D01*
X47438191Y81535963D01*
X47249837Y81661817D01*
X47089657Y81821997D01*
X46963803Y82010351D01*
X46877114Y82219637D01*
X46832920Y82441816D01*
X46832920Y82668344D01*
X46877114Y82890523D01*
X46963803Y83099809D01*
X47089657Y83288163D01*
X47249837Y83448343D01*
X47438191Y83574197D01*
X47647477Y83660886D01*
X47869655Y83705080D01*
X48096185Y83705080D01*
X48318363Y83660886D01*
G37*
G36*
X56718363Y83660886D02*
G01*
X56927649Y83574197D01*
X57116003Y83448343D01*
X57276183Y83288163D01*
X57402037Y83099809D01*
X57488726Y82890523D01*
X57532920Y82668344D01*
X57532920Y82441816D01*
X57488726Y82219637D01*
X57402037Y82010351D01*
X57276183Y81821997D01*
X57116003Y81661817D01*
X56927649Y81535963D01*
X56773670Y81472183D01*
X56718363Y81449274D01*
X56496185Y81405080D01*
X56269655Y81405080D01*
X56047477Y81449274D01*
X55992170Y81472183D01*
X55838191Y81535963D01*
X55649837Y81661817D01*
X55489657Y81821997D01*
X55363803Y82010351D01*
X55277114Y82219637D01*
X55232920Y82441816D01*
X55232920Y82668344D01*
X55277114Y82890523D01*
X55363803Y83099809D01*
X55489657Y83288163D01*
X55649837Y83448343D01*
X55838191Y83574197D01*
X56047477Y83660886D01*
X56269655Y83705080D01*
X56496185Y83705080D01*
X56718363Y83660886D01*
G37*
G36*
X100383444Y83924575D02*
G01*
X100572415Y83867251D01*
X100746573Y83774162D01*
X100899225Y83648885D01*
X101024502Y83496233D01*
X101117591Y83322074D01*
X101174915Y83133103D01*
X101189420Y82985832D01*
X101189420Y82792327D01*
X101174915Y82645056D01*
X101117591Y82456085D01*
X101024502Y82281927D01*
X100899225Y82129275D01*
X100746573Y82003998D01*
X100572414Y81910909D01*
X100383443Y81853585D01*
X100186920Y81834229D01*
X99990396Y81853585D01*
X99801425Y81910909D01*
X99627267Y82003998D01*
X99474615Y82129275D01*
X99349338Y82281927D01*
X99256249Y82456086D01*
X99198925Y82645057D01*
X99184420Y82792328D01*
X99184420Y82985833D01*
X99198925Y83133104D01*
X99256249Y83322075D01*
X99349338Y83496233D01*
X99474615Y83648884D01*
X99560303Y83719206D01*
X99627266Y83774161D01*
X99649754Y83786181D01*
X99801426Y83867251D01*
X99990397Y83924575D01*
X100186920Y83943931D01*
X100383444Y83924575D01*
G37*
G36*
X102923444Y83924575D02*
G01*
X103112415Y83867251D01*
X103286573Y83774162D01*
X103439225Y83648885D01*
X103564502Y83496233D01*
X103657591Y83322074D01*
X103714915Y83133103D01*
X103729420Y82985832D01*
X103729420Y82792327D01*
X103714915Y82645056D01*
X103657591Y82456085D01*
X103564502Y82281927D01*
X103439225Y82129275D01*
X103286573Y82003998D01*
X103112414Y81910909D01*
X102923443Y81853585D01*
X102726920Y81834229D01*
X102530396Y81853585D01*
X102341425Y81910909D01*
X102167267Y82003998D01*
X102014615Y82129275D01*
X101889338Y82281927D01*
X101796249Y82456086D01*
X101738925Y82645057D01*
X101724420Y82792328D01*
X101724420Y82985833D01*
X101738925Y83133104D01*
X101796249Y83322075D01*
X101889338Y83496233D01*
X102014615Y83648884D01*
X102100303Y83719206D01*
X102167266Y83774161D01*
X102189754Y83786181D01*
X102341426Y83867251D01*
X102530397Y83924575D01*
X102726920Y83943931D01*
X102923444Y83924575D01*
G37*
G36*
X106269420Y81839080D02*
G01*
X104264420Y81839080D01*
X104264420Y83939080D01*
X106269420Y83939080D01*
X106269420Y81839080D01*
G37*
G36*
X69262194Y84533730D02*
G01*
X69453282Y84454578D01*
X69625256Y84339669D01*
X69771509Y84193416D01*
X69886418Y84021442D01*
X69965570Y83830354D01*
X70005920Y83627496D01*
X70005920Y83420664D01*
X69965570Y83217806D01*
X69886418Y83026718D01*
X69771509Y82854744D01*
X69625256Y82708491D01*
X69453282Y82593582D01*
X69262194Y82514430D01*
X69059336Y82474080D01*
X68852504Y82474080D01*
X68649646Y82514430D01*
X68458558Y82593582D01*
X68286584Y82708491D01*
X68140331Y82854744D01*
X68025422Y83026718D01*
X67946270Y83217806D01*
X67905920Y83420664D01*
X67905920Y83627496D01*
X67946270Y83830354D01*
X68025422Y84021442D01*
X68140331Y84193416D01*
X68286584Y84339669D01*
X68458558Y84454578D01*
X68649646Y84533730D01*
X68852504Y84574080D01*
X69059336Y84574080D01*
X69262194Y84533730D01*
G37*
G36*
X38719523Y89792511D02*
G01*
X38793287Y89770136D01*
X38861261Y89733803D01*
X38920844Y89684904D01*
X38969743Y89625321D01*
X39006076Y89557347D01*
X39028451Y89483583D01*
X39036620Y89400646D01*
X39036620Y87850714D01*
X39028451Y87767777D01*
X39006076Y87694013D01*
X38969743Y87626039D01*
X38920844Y87566456D01*
X38861261Y87517557D01*
X38793287Y87481224D01*
X38719523Y87458849D01*
X38636586Y87450680D01*
X35546654Y87450680D01*
X35463717Y87458849D01*
X35389953Y87481224D01*
X35321979Y87517557D01*
X35262396Y87566456D01*
X35213497Y87626039D01*
X35177164Y87694013D01*
X35154789Y87767777D01*
X35146620Y87850714D01*
X35146620Y89400646D01*
X35154789Y89483583D01*
X35177164Y89557347D01*
X35213497Y89625321D01*
X35262396Y89684904D01*
X35321979Y89733803D01*
X35389953Y89770136D01*
X35463717Y89792511D01*
X35546654Y89800680D01*
X38636586Y89800680D01*
X38719523Y89792511D01*
G37*
G36*
X70005920Y87474080D02*
G01*
X67905920Y87474080D01*
X67905920Y89574080D01*
X70005920Y89574080D01*
X70005920Y87474080D01*
G37*
G36*
X136661805Y90333921D02*
G01*
X136696413Y90323422D01*
X136728316Y90306370D01*
X136756270Y90283430D01*
X136779210Y90255476D01*
X136796262Y90223573D01*
X136806761Y90188965D01*
X136810920Y90146740D01*
X136810920Y88679420D01*
X136806761Y88637195D01*
X136796262Y88602587D01*
X136779210Y88570684D01*
X136756270Y88542730D01*
X136728316Y88519790D01*
X136696413Y88502738D01*
X136661805Y88492239D01*
X136619580Y88488080D01*
X135477260Y88488080D01*
X135435035Y88492239D01*
X135400427Y88502738D01*
X135368524Y88519790D01*
X135340570Y88542730D01*
X135317630Y88570684D01*
X135300578Y88602587D01*
X135290079Y88637195D01*
X135285920Y88679420D01*
X135285920Y90146740D01*
X135290079Y90188965D01*
X135300578Y90223573D01*
X135317630Y90255476D01*
X135340570Y90283430D01*
X135368524Y90306370D01*
X135400427Y90323422D01*
X135435035Y90333921D01*
X135477260Y90338080D01*
X136619580Y90338080D01*
X136661805Y90333921D01*
G37*
G36*
X139636805Y90333921D02*
G01*
X139671413Y90323422D01*
X139703316Y90306370D01*
X139731270Y90283430D01*
X139754210Y90255476D01*
X139771262Y90223573D01*
X139781761Y90188965D01*
X139785920Y90146740D01*
X139785920Y88679420D01*
X139781761Y88637195D01*
X139771262Y88602587D01*
X139754210Y88570684D01*
X139731270Y88542730D01*
X139703316Y88519790D01*
X139671413Y88502738D01*
X139636805Y88492239D01*
X139594580Y88488080D01*
X138452260Y88488080D01*
X138410035Y88492239D01*
X138375427Y88502738D01*
X138343524Y88519790D01*
X138315570Y88542730D01*
X138292630Y88570684D01*
X138275578Y88602587D01*
X138265079Y88637195D01*
X138260920Y88679420D01*
X138260920Y90146740D01*
X138265079Y90188965D01*
X138275578Y90223573D01*
X138292630Y90255476D01*
X138315570Y90283430D01*
X138343524Y90306370D01*
X138375427Y90323422D01*
X138410035Y90333921D01*
X138452260Y90338080D01*
X139594580Y90338080D01*
X139636805Y90333921D01*
G37*
G36*
X23552436Y90798355D02*
G01*
X23707126Y90734280D01*
X23846344Y90641258D01*
X23964738Y90522864D01*
X24057760Y90383646D01*
X24121835Y90228956D01*
X24154500Y90064738D01*
X24154500Y89897302D01*
X24121835Y89733084D01*
X24057760Y89578394D01*
X23964738Y89439176D01*
X23846344Y89320782D01*
X23707126Y89227760D01*
X23552436Y89163685D01*
X23388218Y89131020D01*
X23220782Y89131020D01*
X23056564Y89163685D01*
X22901874Y89227760D01*
X22762656Y89320782D01*
X22644262Y89439176D01*
X22551240Y89578394D01*
X22487165Y89733084D01*
X22454500Y89897302D01*
X22454500Y90064738D01*
X22487165Y90228956D01*
X22551240Y90383646D01*
X22644262Y90522864D01*
X22762656Y90641258D01*
X22901874Y90734280D01*
X23056564Y90798355D01*
X23220782Y90831020D01*
X23388218Y90831020D01*
X23552436Y90798355D01*
G37*
G36*
X14662436Y90798355D02*
G01*
X14817126Y90734280D01*
X14956344Y90641258D01*
X15074738Y90522864D01*
X15167760Y90383646D01*
X15231835Y90228956D01*
X15264500Y90064738D01*
X15264500Y89897302D01*
X15231835Y89733084D01*
X15167760Y89578394D01*
X15074738Y89439176D01*
X14956344Y89320782D01*
X14817126Y89227760D01*
X14662436Y89163685D01*
X14498218Y89131020D01*
X14330782Y89131020D01*
X14166564Y89163685D01*
X14011874Y89227760D01*
X13872656Y89320782D01*
X13754262Y89439176D01*
X13661240Y89578394D01*
X13597165Y89733084D01*
X13564500Y89897302D01*
X13564500Y90064738D01*
X13597165Y90228956D01*
X13661240Y90383646D01*
X13754262Y90522864D01*
X13872656Y90641258D01*
X14011874Y90734280D01*
X14166564Y90798355D01*
X14330782Y90831020D01*
X14498218Y90831020D01*
X14662436Y90798355D01*
G37*
G36*
X24154500Y91131020D02*
G01*
X22454500Y91131020D01*
X22454500Y92831020D01*
X24154500Y92831020D01*
X24154500Y91131020D01*
G37*
G36*
X15264500Y91131020D02*
G01*
X13564500Y91131020D01*
X13564500Y92831020D01*
X15264500Y92831020D01*
X15264500Y91131020D01*
G37*
G36*
X38744923Y96320311D02*
G01*
X38818687Y96297936D01*
X38886661Y96261603D01*
X38946244Y96212704D01*
X38995143Y96153121D01*
X39031476Y96085147D01*
X39053851Y96011383D01*
X39062020Y95928446D01*
X39062020Y94378514D01*
X39053851Y94295577D01*
X39031476Y94221813D01*
X38995143Y94153839D01*
X38946244Y94094256D01*
X38886661Y94045357D01*
X38818687Y94009024D01*
X38744923Y93986649D01*
X38661986Y93978480D01*
X35572054Y93978480D01*
X35489117Y93986649D01*
X35415353Y94009024D01*
X35347379Y94045357D01*
X35287796Y94094256D01*
X35238897Y94153839D01*
X35202564Y94221813D01*
X35180189Y94295577D01*
X35172020Y94378514D01*
X35172020Y95928446D01*
X35180189Y96011383D01*
X35202564Y96085147D01*
X35238897Y96153121D01*
X35287796Y96212704D01*
X35347379Y96261603D01*
X35415353Y96297936D01*
X35489117Y96320311D01*
X35572054Y96328480D01*
X38661986Y96328480D01*
X38744923Y96320311D01*
G37*
G36*
X136360490Y97801157D02*
G01*
X136577965Y97711076D01*
X136773689Y97580297D01*
X136940137Y97413849D01*
X137070916Y97218125D01*
X137160997Y97000650D01*
X137206920Y96769777D01*
X137206920Y96534383D01*
X137160997Y96303510D01*
X137070916Y96086035D01*
X136940137Y95890311D01*
X136773689Y95723863D01*
X136577965Y95593084D01*
X136360490Y95503003D01*
X136129617Y95457080D01*
X135894223Y95457080D01*
X135663350Y95503003D01*
X135445875Y95593084D01*
X135250151Y95723863D01*
X135083703Y95890311D01*
X134952924Y96086035D01*
X134862843Y96303510D01*
X134816920Y96534383D01*
X134816920Y96769777D01*
X134862843Y97000650D01*
X134952924Y97218125D01*
X135083703Y97413849D01*
X135250151Y97580297D01*
X135445875Y97711076D01*
X135663350Y97801157D01*
X135894223Y97847080D01*
X136129617Y97847080D01*
X136360490Y97801157D01*
G37*
G36*
X15264500Y97481020D02*
G01*
X13564500Y97481020D01*
X13564500Y99181020D01*
X15264500Y99181020D01*
X15264500Y97481020D01*
G37*
G36*
X24154500Y97481020D02*
G01*
X22454500Y97481020D01*
X22454500Y99181020D01*
X24154500Y99181020D01*
X24154500Y97481020D01*
G37*
G36*
X101142083Y99425999D02*
G01*
X101175930Y99415732D01*
X101207124Y99399058D01*
X101234462Y99376622D01*
X101256898Y99349284D01*
X101273572Y99318090D01*
X101283839Y99284243D01*
X101287920Y99242812D01*
X101287920Y97992348D01*
X101283839Y97950917D01*
X101273572Y97917070D01*
X101256898Y97885876D01*
X101234462Y97858538D01*
X101207124Y97836102D01*
X101175930Y97819428D01*
X101142083Y97809161D01*
X101100652Y97805080D01*
X98025188Y97805080D01*
X97983757Y97809161D01*
X97949910Y97819428D01*
X97918716Y97836102D01*
X97891378Y97858538D01*
X97868942Y97885876D01*
X97852268Y97917070D01*
X97842001Y97950917D01*
X97837920Y97992348D01*
X97837920Y99242812D01*
X97842001Y99284243D01*
X97852268Y99318090D01*
X97868942Y99349284D01*
X97891378Y99376622D01*
X97918716Y99399058D01*
X97949910Y99415732D01*
X97983757Y99425999D01*
X98025188Y99430080D01*
X101100652Y99430080D01*
X101142083Y99425999D01*
G37*
G36*
X94792083Y99425999D02*
G01*
X94825930Y99415732D01*
X94857124Y99399058D01*
X94884462Y99376622D01*
X94906898Y99349284D01*
X94923572Y99318090D01*
X94933839Y99284243D01*
X94937920Y99242812D01*
X94937920Y97992348D01*
X94933839Y97950917D01*
X94923572Y97917070D01*
X94906898Y97885876D01*
X94884462Y97858538D01*
X94857124Y97836102D01*
X94825930Y97819428D01*
X94792083Y97809161D01*
X94750652Y97805080D01*
X91675188Y97805080D01*
X91633757Y97809161D01*
X91599910Y97819428D01*
X91568716Y97836102D01*
X91541378Y97858538D01*
X91518942Y97885876D01*
X91502268Y97917070D01*
X91492001Y97950917D01*
X91487920Y97992348D01*
X91487920Y99242812D01*
X91492001Y99284243D01*
X91502268Y99318090D01*
X91518942Y99349284D01*
X91541378Y99376622D01*
X91568716Y99399058D01*
X91599910Y99415732D01*
X91633757Y99425999D01*
X91675188Y99430080D01*
X94750652Y99430080D01*
X94792083Y99425999D01*
G37*
G36*
X107492083Y99425999D02*
G01*
X107525930Y99415732D01*
X107557124Y99399058D01*
X107584462Y99376622D01*
X107606898Y99349284D01*
X107623572Y99318090D01*
X107633839Y99284243D01*
X107637920Y99242812D01*
X107637920Y97992348D01*
X107633839Y97950917D01*
X107623572Y97917070D01*
X107606898Y97885876D01*
X107584462Y97858538D01*
X107557124Y97836102D01*
X107525930Y97819428D01*
X107492083Y97809161D01*
X107450652Y97805080D01*
X104375188Y97805080D01*
X104333757Y97809161D01*
X104299910Y97819428D01*
X104268716Y97836102D01*
X104241378Y97858538D01*
X104218942Y97885876D01*
X104202268Y97917070D01*
X104192001Y97950917D01*
X104187920Y97992348D01*
X104187920Y99242812D01*
X104192001Y99284243D01*
X104202268Y99318090D01*
X104218942Y99349284D01*
X104241378Y99376622D01*
X104268716Y99399058D01*
X104299910Y99415732D01*
X104333757Y99425999D01*
X104375188Y99430080D01*
X107450652Y99430080D01*
X107492083Y99425999D01*
G37*
G36*
X113842083Y99425999D02*
G01*
X113875930Y99415732D01*
X113907124Y99399058D01*
X113934462Y99376622D01*
X113956898Y99349284D01*
X113973572Y99318090D01*
X113983839Y99284243D01*
X113987920Y99242812D01*
X113987920Y97992348D01*
X113983839Y97950917D01*
X113973572Y97917070D01*
X113956898Y97885876D01*
X113934462Y97858538D01*
X113907124Y97836102D01*
X113875930Y97819428D01*
X113842083Y97809161D01*
X113800652Y97805080D01*
X110725188Y97805080D01*
X110683757Y97809161D01*
X110649910Y97819428D01*
X110618716Y97836102D01*
X110591378Y97858538D01*
X110568942Y97885876D01*
X110552268Y97917070D01*
X110542001Y97950917D01*
X110537920Y97992348D01*
X110537920Y99242812D01*
X110542001Y99284243D01*
X110552268Y99318090D01*
X110568942Y99349284D01*
X110591378Y99376622D01*
X110618716Y99399058D01*
X110649910Y99415732D01*
X110683757Y99425999D01*
X110725188Y99430080D01*
X113800652Y99430080D01*
X113842083Y99425999D01*
G37*
G36*
X14662436Y101148355D02*
G01*
X14817126Y101084280D01*
X14956344Y100991258D01*
X15074738Y100872864D01*
X15167760Y100733646D01*
X15231835Y100578956D01*
X15264500Y100414738D01*
X15264500Y100247302D01*
X15231835Y100083084D01*
X15167760Y99928394D01*
X15074738Y99789176D01*
X14956344Y99670782D01*
X14817126Y99577760D01*
X14662436Y99513685D01*
X14498218Y99481020D01*
X14330782Y99481020D01*
X14166564Y99513685D01*
X14011874Y99577760D01*
X13872656Y99670782D01*
X13754262Y99789176D01*
X13661240Y99928394D01*
X13597165Y100083084D01*
X13564500Y100247302D01*
X13564500Y100414738D01*
X13597165Y100578956D01*
X13661240Y100733646D01*
X13754262Y100872864D01*
X13872656Y100991258D01*
X14011874Y101084280D01*
X14166564Y101148355D01*
X14330782Y101181020D01*
X14498218Y101181020D01*
X14662436Y101148355D01*
G37*
G36*
X23552436Y101148355D02*
G01*
X23707126Y101084280D01*
X23846344Y100991258D01*
X23964738Y100872864D01*
X24057760Y100733646D01*
X24121835Y100578956D01*
X24154500Y100414738D01*
X24154500Y100247302D01*
X24121835Y100083084D01*
X24057760Y99928394D01*
X23964738Y99789176D01*
X23846344Y99670782D01*
X23707126Y99577760D01*
X23552436Y99513685D01*
X23388218Y99481020D01*
X23220782Y99481020D01*
X23056564Y99513685D01*
X22901874Y99577760D01*
X22762656Y99670782D01*
X22644262Y99789176D01*
X22551240Y99928394D01*
X22487165Y100083084D01*
X22454500Y100247302D01*
X22454500Y100414738D01*
X22487165Y100578956D01*
X22551240Y100733646D01*
X22644262Y100872864D01*
X22762656Y100991258D01*
X22901874Y101084280D01*
X23056564Y101148355D01*
X23220782Y101181020D01*
X23388218Y101181020D01*
X23552436Y101148355D01*
G37*
G36*
X136360490Y102804957D02*
G01*
X136577965Y102714876D01*
X136773689Y102584097D01*
X136940137Y102417649D01*
X137070916Y102221925D01*
X137160997Y102004450D01*
X137206920Y101773577D01*
X137206920Y101538183D01*
X137160997Y101307310D01*
X137070916Y101089835D01*
X136940137Y100894111D01*
X136773689Y100727663D01*
X136577965Y100596884D01*
X136360490Y100506803D01*
X136129617Y100460880D01*
X135894223Y100460880D01*
X135663350Y100506803D01*
X135445875Y100596884D01*
X135250151Y100727663D01*
X135083703Y100894111D01*
X134952924Y101089835D01*
X134862843Y101307310D01*
X134816920Y101538183D01*
X134816920Y101773577D01*
X134862843Y102004450D01*
X134952924Y102221925D01*
X135083703Y102417649D01*
X135250151Y102584097D01*
X135445875Y102714876D01*
X135663350Y102804957D01*
X135894223Y102850880D01*
X136129617Y102850880D01*
X136360490Y102804957D01*
G37*
G36*
X94792083Y105400999D02*
G01*
X94825930Y105390732D01*
X94857124Y105374058D01*
X94884462Y105351622D01*
X94906898Y105324284D01*
X94923572Y105293090D01*
X94933839Y105259243D01*
X94937920Y105217812D01*
X94937920Y103967348D01*
X94933839Y103925917D01*
X94923572Y103892070D01*
X94906898Y103860876D01*
X94884462Y103833538D01*
X94857124Y103811102D01*
X94825930Y103794428D01*
X94792083Y103784161D01*
X94750652Y103780080D01*
X91675188Y103780080D01*
X91633757Y103784161D01*
X91599910Y103794428D01*
X91568716Y103811102D01*
X91541378Y103833538D01*
X91518942Y103860876D01*
X91502268Y103892070D01*
X91492001Y103925917D01*
X91487920Y103967348D01*
X91487920Y105217812D01*
X91492001Y105259243D01*
X91502268Y105293090D01*
X91518942Y105324284D01*
X91541378Y105351622D01*
X91568716Y105374058D01*
X91599910Y105390732D01*
X91633757Y105400999D01*
X91675188Y105405080D01*
X94750652Y105405080D01*
X94792083Y105400999D01*
G37*
G36*
X107492083Y105400999D02*
G01*
X107525930Y105390732D01*
X107557124Y105374058D01*
X107584462Y105351622D01*
X107606898Y105324284D01*
X107623572Y105293090D01*
X107633839Y105259243D01*
X107637920Y105217812D01*
X107637920Y103967348D01*
X107633839Y103925917D01*
X107623572Y103892070D01*
X107606898Y103860876D01*
X107584462Y103833538D01*
X107557124Y103811102D01*
X107525930Y103794428D01*
X107492083Y103784161D01*
X107450652Y103780080D01*
X104375188Y103780080D01*
X104333757Y103784161D01*
X104299910Y103794428D01*
X104268716Y103811102D01*
X104241378Y103833538D01*
X104218942Y103860876D01*
X104202268Y103892070D01*
X104192001Y103925917D01*
X104187920Y103967348D01*
X104187920Y105217812D01*
X104192001Y105259243D01*
X104202268Y105293090D01*
X104218942Y105324284D01*
X104241378Y105351622D01*
X104268716Y105374058D01*
X104299910Y105390732D01*
X104333757Y105400999D01*
X104375188Y105405080D01*
X107450652Y105405080D01*
X107492083Y105400999D01*
G37*
G36*
X101142083Y105400999D02*
G01*
X101175930Y105390732D01*
X101207124Y105374058D01*
X101234462Y105351622D01*
X101256898Y105324284D01*
X101273572Y105293090D01*
X101283839Y105259243D01*
X101287920Y105217812D01*
X101287920Y103967348D01*
X101283839Y103925917D01*
X101273572Y103892070D01*
X101256898Y103860876D01*
X101234462Y103833538D01*
X101207124Y103811102D01*
X101175930Y103794428D01*
X101142083Y103784161D01*
X101100652Y103780080D01*
X98025188Y103780080D01*
X97983757Y103784161D01*
X97949910Y103794428D01*
X97918716Y103811102D01*
X97891378Y103833538D01*
X97868942Y103860876D01*
X97852268Y103892070D01*
X97842001Y103925917D01*
X97837920Y103967348D01*
X97837920Y105217812D01*
X97842001Y105259243D01*
X97852268Y105293090D01*
X97868942Y105324284D01*
X97891378Y105351622D01*
X97918716Y105374058D01*
X97949910Y105390732D01*
X97983757Y105400999D01*
X98025188Y105405080D01*
X101100652Y105405080D01*
X101142083Y105400999D01*
G37*
G36*
X113842083Y105400999D02*
G01*
X113875930Y105390732D01*
X113907124Y105374058D01*
X113934462Y105351622D01*
X113956898Y105324284D01*
X113973572Y105293090D01*
X113983839Y105259243D01*
X113987920Y105217812D01*
X113987920Y103967348D01*
X113983839Y103925917D01*
X113973572Y103892070D01*
X113956898Y103860876D01*
X113934462Y103833538D01*
X113907124Y103811102D01*
X113875930Y103794428D01*
X113842083Y103784161D01*
X113800652Y103780080D01*
X110725188Y103780080D01*
X110683757Y103784161D01*
X110649910Y103794428D01*
X110618716Y103811102D01*
X110591378Y103833538D01*
X110568942Y103860876D01*
X110552268Y103892070D01*
X110542001Y103925917D01*
X110537920Y103967348D01*
X110537920Y105217812D01*
X110542001Y105259243D01*
X110552268Y105293090D01*
X110568942Y105324284D01*
X110591378Y105351622D01*
X110618716Y105374058D01*
X110649910Y105390732D01*
X110683757Y105400999D01*
X110725188Y105405080D01*
X113800652Y105405080D01*
X113842083Y105400999D01*
G37*
G36*
X69508285Y108727061D02*
G01*
X69542893Y108716562D01*
X69574796Y108699510D01*
X69602750Y108676570D01*
X69625690Y108648616D01*
X69642742Y108616713D01*
X69653241Y108582105D01*
X69657400Y108539880D01*
X69657400Y107397560D01*
X69653241Y107355335D01*
X69642742Y107320727D01*
X69625690Y107288824D01*
X69602750Y107260870D01*
X69574796Y107237930D01*
X69542893Y107220878D01*
X69508285Y107210379D01*
X69466060Y107206220D01*
X67998740Y107206220D01*
X67956515Y107210379D01*
X67921907Y107220878D01*
X67890004Y107237930D01*
X67862050Y107260870D01*
X67839110Y107288824D01*
X67822058Y107320727D01*
X67811559Y107355335D01*
X67807400Y107397560D01*
X67807400Y108539880D01*
X67811559Y108582105D01*
X67822058Y108616713D01*
X67839110Y108648616D01*
X67862050Y108676570D01*
X67890004Y108699510D01*
X67921907Y108716562D01*
X67956515Y108727061D01*
X67998740Y108731220D01*
X69466060Y108731220D01*
X69508285Y108727061D01*
G37*
G36*
X63381805Y108749921D02*
G01*
X63416413Y108739422D01*
X63448316Y108722370D01*
X63476270Y108699430D01*
X63499210Y108671476D01*
X63516262Y108639573D01*
X63526761Y108604965D01*
X63530920Y108562740D01*
X63530920Y107420420D01*
X63526761Y107378195D01*
X63516262Y107343587D01*
X63499210Y107311684D01*
X63476270Y107283730D01*
X63448316Y107260790D01*
X63416413Y107243738D01*
X63381805Y107233239D01*
X63339580Y107229080D01*
X61872260Y107229080D01*
X61830035Y107233239D01*
X61795427Y107243738D01*
X61763524Y107260790D01*
X61735570Y107283730D01*
X61712630Y107311684D01*
X61695578Y107343587D01*
X61685079Y107378195D01*
X61680920Y107420420D01*
X61680920Y108562740D01*
X61685079Y108604965D01*
X61695578Y108639573D01*
X61712630Y108671476D01*
X61735570Y108699430D01*
X61763524Y108722370D01*
X61795427Y108739422D01*
X61830035Y108749921D01*
X61872260Y108754080D01*
X63339580Y108754080D01*
X63381805Y108749921D01*
G37*
G36*
X76031005Y108749921D02*
G01*
X76065613Y108739422D01*
X76097516Y108722370D01*
X76125470Y108699430D01*
X76148410Y108671476D01*
X76165462Y108639573D01*
X76175961Y108604965D01*
X76180120Y108562740D01*
X76180120Y107420420D01*
X76175961Y107378195D01*
X76165462Y107343587D01*
X76148410Y107311684D01*
X76125470Y107283730D01*
X76097516Y107260790D01*
X76065613Y107243738D01*
X76031005Y107233239D01*
X75988780Y107229080D01*
X74521460Y107229080D01*
X74479235Y107233239D01*
X74444627Y107243738D01*
X74412724Y107260790D01*
X74384770Y107283730D01*
X74361830Y107311684D01*
X74344778Y107343587D01*
X74334279Y107378195D01*
X74330120Y107420420D01*
X74330120Y108562740D01*
X74334279Y108604965D01*
X74344778Y108639573D01*
X74361830Y108671476D01*
X74384770Y108699430D01*
X74412724Y108722370D01*
X74444627Y108739422D01*
X74479235Y108749921D01*
X74521460Y108754080D01*
X75988780Y108754080D01*
X76031005Y108749921D01*
G37*
G36*
X38949025Y110646572D02*
G01*
X39121914Y110574959D01*
X39277510Y110470993D01*
X39409833Y110338670D01*
X39513799Y110183074D01*
X39585412Y110010185D01*
X39621920Y109826647D01*
X39621920Y109639513D01*
X39585412Y109455975D01*
X39513799Y109283086D01*
X39409833Y109127490D01*
X39277510Y108995167D01*
X39121914Y108891201D01*
X38949025Y108819588D01*
X38765487Y108783080D01*
X38578353Y108783080D01*
X38394815Y108819588D01*
X38221926Y108891201D01*
X38066330Y108995167D01*
X37934007Y109127490D01*
X37830041Y109283086D01*
X37758428Y109455975D01*
X37721920Y109639513D01*
X37721920Y109826647D01*
X37758428Y110010185D01*
X37830041Y110183074D01*
X37934007Y110338670D01*
X38066330Y110470993D01*
X38221926Y110574959D01*
X38394815Y110646572D01*
X38578353Y110683080D01*
X38765487Y110683080D01*
X38949025Y110646572D01*
G37*
G36*
X35549025Y110646572D02*
G01*
X35721914Y110574959D01*
X35877510Y110470993D01*
X36009833Y110338670D01*
X36113799Y110183074D01*
X36185412Y110010185D01*
X36221920Y109826647D01*
X36221920Y109639513D01*
X36185412Y109455975D01*
X36113799Y109283086D01*
X36009833Y109127490D01*
X35877510Y108995167D01*
X35721914Y108891201D01*
X35549025Y108819588D01*
X35365487Y108783080D01*
X35178353Y108783080D01*
X34994815Y108819588D01*
X34821926Y108891201D01*
X34666330Y108995167D01*
X34534007Y109127490D01*
X34430041Y109283086D01*
X34358428Y109455975D01*
X34321920Y109639513D01*
X34321920Y109826647D01*
X34358428Y110010185D01*
X34430041Y110183074D01*
X34534007Y110338670D01*
X34666330Y110470993D01*
X34821926Y110574959D01*
X34994815Y110646572D01*
X35178353Y110683080D01*
X35365487Y110683080D01*
X35549025Y110646572D01*
G37*
G36*
X32821920Y108783080D02*
G01*
X30921920Y108783080D01*
X30921920Y110683080D01*
X32821920Y110683080D01*
X32821920Y108783080D01*
G37*
G36*
X69508285Y111702061D02*
G01*
X69542893Y111691562D01*
X69574796Y111674510D01*
X69602750Y111651570D01*
X69625690Y111623616D01*
X69642742Y111591713D01*
X69653241Y111557105D01*
X69657400Y111514880D01*
X69657400Y110372560D01*
X69653241Y110330335D01*
X69642742Y110295727D01*
X69625690Y110263824D01*
X69602750Y110235870D01*
X69574796Y110212930D01*
X69542893Y110195878D01*
X69508285Y110185379D01*
X69466060Y110181220D01*
X67998740Y110181220D01*
X67956515Y110185379D01*
X67921907Y110195878D01*
X67890004Y110212930D01*
X67862050Y110235870D01*
X67839110Y110263824D01*
X67822058Y110295727D01*
X67811559Y110330335D01*
X67807400Y110372560D01*
X67807400Y111514880D01*
X67811559Y111557105D01*
X67822058Y111591713D01*
X67839110Y111623616D01*
X67862050Y111651570D01*
X67890004Y111674510D01*
X67921907Y111691562D01*
X67956515Y111702061D01*
X67998740Y111706220D01*
X69466060Y111706220D01*
X69508285Y111702061D01*
G37*
G36*
X63381805Y111724921D02*
G01*
X63416413Y111714422D01*
X63448316Y111697370D01*
X63476270Y111674430D01*
X63499210Y111646476D01*
X63516262Y111614573D01*
X63526761Y111579965D01*
X63530920Y111537740D01*
X63530920Y110395420D01*
X63526761Y110353195D01*
X63516262Y110318587D01*
X63499210Y110286684D01*
X63476270Y110258730D01*
X63448316Y110235790D01*
X63416413Y110218738D01*
X63381805Y110208239D01*
X63339580Y110204080D01*
X61872260Y110204080D01*
X61830035Y110208239D01*
X61795427Y110218738D01*
X61763524Y110235790D01*
X61735570Y110258730D01*
X61712630Y110286684D01*
X61695578Y110318587D01*
X61685079Y110353195D01*
X61680920Y110395420D01*
X61680920Y111537740D01*
X61685079Y111579965D01*
X61695578Y111614573D01*
X61712630Y111646476D01*
X61735570Y111674430D01*
X61763524Y111697370D01*
X61795427Y111714422D01*
X61830035Y111724921D01*
X61872260Y111729080D01*
X63339580Y111729080D01*
X63381805Y111724921D01*
G37*
G36*
X76031005Y111724921D02*
G01*
X76065613Y111714422D01*
X76097516Y111697370D01*
X76125470Y111674430D01*
X76148410Y111646476D01*
X76165462Y111614573D01*
X76175961Y111579965D01*
X76180120Y111537740D01*
X76180120Y110395420D01*
X76175961Y110353195D01*
X76165462Y110318587D01*
X76148410Y110286684D01*
X76125470Y110258730D01*
X76097516Y110235790D01*
X76065613Y110218738D01*
X76031005Y110208239D01*
X75988780Y110204080D01*
X74521460Y110204080D01*
X74479235Y110208239D01*
X74444627Y110218738D01*
X74412724Y110235790D01*
X74384770Y110258730D01*
X74361830Y110286684D01*
X74344778Y110318587D01*
X74334279Y110353195D01*
X74330120Y110395420D01*
X74330120Y111537740D01*
X74334279Y111579965D01*
X74344778Y111614573D01*
X74361830Y111646476D01*
X74384770Y111674430D01*
X74412724Y111697370D01*
X74444627Y111714422D01*
X74479235Y111724921D01*
X74521460Y111729080D01*
X75988780Y111729080D01*
X76031005Y111724921D01*
G37*
G36*
X136815869Y114175357D02*
G01*
X137079753Y114066053D01*
X137317241Y113907369D01*
X137519209Y113705401D01*
X137677893Y113467913D01*
X137787197Y113204029D01*
X137842920Y112923893D01*
X137842920Y112638267D01*
X137787197Y112358131D01*
X137677893Y112094247D01*
X137519209Y111856759D01*
X137317241Y111654791D01*
X137079753Y111496107D01*
X136815869Y111386803D01*
X136535733Y111331080D01*
X136250107Y111331080D01*
X135969971Y111386803D01*
X135706087Y111496107D01*
X135468599Y111654791D01*
X135266631Y111856759D01*
X135107947Y112094247D01*
X134998643Y112358131D01*
X134942920Y112638267D01*
X134942920Y112923893D01*
X134998643Y113204029D01*
X135107947Y113467913D01*
X135266631Y113705401D01*
X135468599Y113907369D01*
X135706087Y114066053D01*
X135969971Y114175357D01*
X136250107Y114231080D01*
X136535733Y114231080D01*
X136815869Y114175357D01*
G37*
G36*
X37249025Y114346572D02*
G01*
X37421914Y114274959D01*
X37577510Y114170993D01*
X37709833Y114038670D01*
X37813799Y113883074D01*
X37885412Y113710185D01*
X37921920Y113526647D01*
X37921920Y113339513D01*
X37885412Y113155975D01*
X37813799Y112983086D01*
X37709833Y112827490D01*
X37577510Y112695167D01*
X37421914Y112591201D01*
X37249025Y112519588D01*
X37065487Y112483080D01*
X36878353Y112483080D01*
X36694815Y112519588D01*
X36521926Y112591201D01*
X36366330Y112695167D01*
X36234007Y112827490D01*
X36130041Y112983086D01*
X36058428Y113155975D01*
X36021920Y113339513D01*
X36021920Y113526647D01*
X36058428Y113710185D01*
X36130041Y113883074D01*
X36234007Y114038670D01*
X36366330Y114170993D01*
X36521926Y114274959D01*
X36694815Y114346572D01*
X36878353Y114383080D01*
X37065487Y114383080D01*
X37249025Y114346572D01*
G37*
G36*
X33849025Y114346572D02*
G01*
X34021914Y114274959D01*
X34177510Y114170993D01*
X34309833Y114038670D01*
X34413799Y113883074D01*
X34485412Y113710185D01*
X34521920Y113526647D01*
X34521920Y113339513D01*
X34485412Y113155975D01*
X34413799Y112983086D01*
X34309833Y112827490D01*
X34177510Y112695167D01*
X34021914Y112591201D01*
X33849025Y112519588D01*
X33665487Y112483080D01*
X33478353Y112483080D01*
X33294815Y112519588D01*
X33121926Y112591201D01*
X32966330Y112695167D01*
X32834007Y112827490D01*
X32730041Y112983086D01*
X32658428Y113155975D01*
X32621920Y113339513D01*
X32621920Y113526647D01*
X32658428Y113710185D01*
X32730041Y113883074D01*
X32834007Y114038670D01*
X32966330Y114170993D01*
X33121926Y114274959D01*
X33294815Y114346572D01*
X33478353Y114383080D01*
X33665487Y114383080D01*
X33849025Y114346572D01*
G37*
G36*
X63323385Y117258921D02*
G01*
X63357993Y117248422D01*
X63389896Y117231370D01*
X63417850Y117208430D01*
X63440790Y117180476D01*
X63457842Y117148573D01*
X63468341Y117113965D01*
X63472500Y117071740D01*
X63472500Y115929420D01*
X63468341Y115887195D01*
X63457842Y115852587D01*
X63440790Y115820684D01*
X63417850Y115792730D01*
X63389896Y115769790D01*
X63357993Y115752738D01*
X63323385Y115742239D01*
X63281160Y115738080D01*
X61813840Y115738080D01*
X61771615Y115742239D01*
X61737007Y115752738D01*
X61705104Y115769790D01*
X61677150Y115792730D01*
X61654210Y115820684D01*
X61637158Y115852587D01*
X61626659Y115887195D01*
X61622500Y115929420D01*
X61622500Y117071740D01*
X61626659Y117113965D01*
X61637158Y117148573D01*
X61654210Y117180476D01*
X61677150Y117208430D01*
X61705104Y117231370D01*
X61737007Y117248422D01*
X61771615Y117258921D01*
X61813840Y117263080D01*
X63281160Y117263080D01*
X63323385Y117258921D01*
G37*
G36*
X70297500Y115770020D02*
G01*
X69397500Y115770020D01*
X69397500Y117770020D01*
X70297500Y117770020D01*
X70297500Y115770020D01*
G37*
G36*
X68397500Y115770020D02*
G01*
X67497500Y115770020D01*
X67497500Y117770020D01*
X68397500Y117770020D01*
X68397500Y115770020D01*
G37*
G36*
X76023385Y117540861D02*
G01*
X76057993Y117530362D01*
X76089896Y117513310D01*
X76117850Y117490370D01*
X76140790Y117462416D01*
X76157842Y117430513D01*
X76168341Y117395905D01*
X76172500Y117353680D01*
X76172500Y116211360D01*
X76168341Y116169135D01*
X76157842Y116134527D01*
X76140790Y116102624D01*
X76117850Y116074670D01*
X76089896Y116051730D01*
X76057993Y116034678D01*
X76023385Y116024179D01*
X75981160Y116020020D01*
X74513840Y116020020D01*
X74471615Y116024179D01*
X74437007Y116034678D01*
X74405104Y116051730D01*
X74377150Y116074670D01*
X74354210Y116102624D01*
X74337158Y116134527D01*
X74326659Y116169135D01*
X74322500Y116211360D01*
X74322500Y117353680D01*
X74326659Y117395905D01*
X74337158Y117430513D01*
X74354210Y117462416D01*
X74377150Y117490370D01*
X74405104Y117513310D01*
X74437007Y117530362D01*
X74471615Y117540861D01*
X74513840Y117545020D01*
X75981160Y117545020D01*
X76023385Y117540861D01*
G37*
G36*
X23206344Y121074496D02*
G01*
X23602169Y120910540D01*
X23958402Y120672513D01*
X24261353Y120369562D01*
X24499380Y120013329D01*
X24663336Y119617504D01*
X24746920Y119197299D01*
X24746920Y118768861D01*
X24663336Y118348656D01*
X24499380Y117952831D01*
X24261353Y117596598D01*
X23958402Y117293647D01*
X23602169Y117055620D01*
X23206344Y116891664D01*
X22786139Y116808080D01*
X22357701Y116808080D01*
X21937496Y116891664D01*
X21541671Y117055620D01*
X21185438Y117293647D01*
X20882487Y117596598D01*
X20644460Y117952831D01*
X20480504Y118348656D01*
X20396920Y118768861D01*
X20396920Y119197299D01*
X20480504Y119617504D01*
X20644460Y120013329D01*
X20882487Y120369562D01*
X21185438Y120672513D01*
X21541671Y120910540D01*
X21937496Y121074496D01*
X22357701Y121158080D01*
X22786139Y121158080D01*
X23206344Y121074496D01*
G37*
G36*
X48606344Y121074496D02*
G01*
X49002169Y120910540D01*
X49358402Y120672513D01*
X49661353Y120369562D01*
X49899380Y120013329D01*
X50063336Y119617504D01*
X50146920Y119197299D01*
X50146920Y118768861D01*
X50063336Y118348656D01*
X49899380Y117952831D01*
X49661353Y117596598D01*
X49358402Y117293647D01*
X49002169Y117055620D01*
X48606344Y116891664D01*
X48186139Y116808080D01*
X47757701Y116808080D01*
X47337496Y116891664D01*
X46941671Y117055620D01*
X46585438Y117293647D01*
X46282487Y117596598D01*
X46044460Y117952831D01*
X45880504Y118348656D01*
X45796920Y118768861D01*
X45796920Y119197299D01*
X45880504Y119617504D01*
X46044460Y120013329D01*
X46282487Y120369562D01*
X46585438Y120672513D01*
X46941671Y120910540D01*
X47337496Y121074496D01*
X47757701Y121158080D01*
X48186139Y121158080D01*
X48606344Y121074496D01*
G37*
G36*
X63323385Y120233921D02*
G01*
X63357993Y120223422D01*
X63389896Y120206370D01*
X63417850Y120183430D01*
X63440790Y120155476D01*
X63457842Y120123573D01*
X63468341Y120088965D01*
X63472500Y120046740D01*
X63472500Y118904420D01*
X63468341Y118862195D01*
X63457842Y118827587D01*
X63440790Y118795684D01*
X63417850Y118767730D01*
X63389896Y118744790D01*
X63357993Y118727738D01*
X63323385Y118717239D01*
X63281160Y118713080D01*
X61813840Y118713080D01*
X61771615Y118717239D01*
X61737007Y118727738D01*
X61705104Y118744790D01*
X61677150Y118767730D01*
X61654210Y118795684D01*
X61637158Y118827587D01*
X61626659Y118862195D01*
X61622500Y118904420D01*
X61622500Y120046740D01*
X61626659Y120088965D01*
X61637158Y120123573D01*
X61654210Y120155476D01*
X61677150Y120183430D01*
X61705104Y120206370D01*
X61737007Y120223422D01*
X61771615Y120233921D01*
X61813840Y120238080D01*
X63281160Y120238080D01*
X63323385Y120233921D01*
G37*
G36*
X69347500Y118770020D02*
G01*
X68447500Y118770020D01*
X68447500Y120770020D01*
X69347500Y120770020D01*
X69347500Y118770020D01*
G37*
G36*
X76023385Y120515861D02*
G01*
X76057993Y120505362D01*
X76089896Y120488310D01*
X76117850Y120465370D01*
X76140790Y120437416D01*
X76157842Y120405513D01*
X76168341Y120370905D01*
X76172500Y120328680D01*
X76172500Y119186360D01*
X76168341Y119144135D01*
X76157842Y119109527D01*
X76140790Y119077624D01*
X76117850Y119049670D01*
X76089896Y119026730D01*
X76057993Y119009678D01*
X76023385Y118999179D01*
X75981160Y118995020D01*
X74513840Y118995020D01*
X74471615Y118999179D01*
X74437007Y119009678D01*
X74405104Y119026730D01*
X74377150Y119049670D01*
X74354210Y119077624D01*
X74337158Y119109527D01*
X74326659Y119144135D01*
X74322500Y119186360D01*
X74322500Y120328680D01*
X74326659Y120370905D01*
X74337158Y120405513D01*
X74354210Y120437416D01*
X74377150Y120465370D01*
X74405104Y120488310D01*
X74437007Y120505362D01*
X74471615Y120515861D01*
X74513840Y120520020D01*
X75981160Y120520020D01*
X76023385Y120515861D01*
G37*
G36*
X90726744Y125155096D02*
G01*
X91122569Y124991140D01*
X91478802Y124753113D01*
X91781753Y124450162D01*
X92019780Y124093929D01*
X92183736Y123698104D01*
X92267320Y123277899D01*
X92267320Y122849461D01*
X92183736Y122429256D01*
X92019780Y122033431D01*
X91781753Y121677198D01*
X91478802Y121374247D01*
X91122569Y121136220D01*
X90726744Y120972264D01*
X90306539Y120888680D01*
X89878101Y120888680D01*
X89457896Y120972264D01*
X89062071Y121136220D01*
X88705838Y121374247D01*
X88402887Y121677198D01*
X88164860Y122033431D01*
X88000904Y122429256D01*
X87917320Y122849461D01*
X87917320Y123277899D01*
X88000904Y123698104D01*
X88164860Y124093929D01*
X88402887Y124450162D01*
X88705838Y124753113D01*
X89062071Y124991140D01*
X89457896Y125155096D01*
X89878101Y125238680D01*
X90306539Y125238680D01*
X90726744Y125155096D01*
G37*
G36*
X116126744Y125155096D02*
G01*
X116522569Y124991140D01*
X116878802Y124753113D01*
X117181753Y124450162D01*
X117419780Y124093929D01*
X117583736Y123698104D01*
X117667320Y123277899D01*
X117667320Y122849461D01*
X117583736Y122429256D01*
X117419780Y122033431D01*
X117181753Y121677198D01*
X116878802Y121374247D01*
X116522569Y121136220D01*
X116126744Y120972264D01*
X115706539Y120888680D01*
X115278101Y120888680D01*
X114857896Y120972264D01*
X114462071Y121136220D01*
X114105838Y121374247D01*
X113802887Y121677198D01*
X113564860Y122033431D01*
X113400904Y122429256D01*
X113317320Y122849461D01*
X113317320Y123277899D01*
X113400904Y123698104D01*
X113564860Y124093929D01*
X113802887Y124450162D01*
X114105838Y124753113D01*
X114462071Y124991140D01*
X114857896Y125155096D01*
X115278101Y125238680D01*
X115706539Y125238680D01*
X116126744Y125155096D01*
G37*
G36*
X137842920Y121491080D02*
G01*
X134942920Y121491080D01*
X134942920Y124391080D01*
X137842920Y124391080D01*
X137842920Y121491080D01*
G37*
G36*
X76011805Y127463921D02*
G01*
X76046413Y127453422D01*
X76078316Y127436370D01*
X76106270Y127413430D01*
X76129210Y127385476D01*
X76146262Y127353573D01*
X76156761Y127318965D01*
X76160920Y127276740D01*
X76160920Y126134420D01*
X76156761Y126092195D01*
X76146262Y126057587D01*
X76129210Y126025684D01*
X76106270Y125997730D01*
X76078316Y125974790D01*
X76046413Y125957738D01*
X76011805Y125947239D01*
X75969580Y125943080D01*
X74502260Y125943080D01*
X74460035Y125947239D01*
X74425427Y125957738D01*
X74393524Y125974790D01*
X74365570Y125997730D01*
X74342630Y126025684D01*
X74325578Y126057587D01*
X74315079Y126092195D01*
X74310920Y126134420D01*
X74310920Y127276740D01*
X74315079Y127318965D01*
X74325578Y127353573D01*
X74342630Y127385476D01*
X74365570Y127413430D01*
X74393524Y127436370D01*
X74425427Y127453422D01*
X74460035Y127463921D01*
X74502260Y127468080D01*
X75969580Y127468080D01*
X76011805Y127463921D01*
G37*
G36*
X69591805Y127483921D02*
G01*
X69626413Y127473422D01*
X69658316Y127456370D01*
X69686270Y127433430D01*
X69709210Y127405476D01*
X69726262Y127373573D01*
X69736761Y127338965D01*
X69740920Y127296740D01*
X69740920Y126154420D01*
X69736761Y126112195D01*
X69726262Y126077587D01*
X69709210Y126045684D01*
X69686270Y126017730D01*
X69658316Y125994790D01*
X69626413Y125977738D01*
X69591805Y125967239D01*
X69549580Y125963080D01*
X68082260Y125963080D01*
X68040035Y125967239D01*
X68005427Y125977738D01*
X67973524Y125994790D01*
X67945570Y126017730D01*
X67922630Y126045684D01*
X67905578Y126077587D01*
X67895079Y126112195D01*
X67890920Y126154420D01*
X67890920Y127296740D01*
X67895079Y127338965D01*
X67905578Y127373573D01*
X67922630Y127405476D01*
X67945570Y127433430D01*
X67973524Y127456370D01*
X68005427Y127473422D01*
X68040035Y127483921D01*
X68082260Y127488080D01*
X69549580Y127488080D01*
X69591805Y127483921D01*
G37*
G36*
X63331805Y127523921D02*
G01*
X63366413Y127513422D01*
X63398316Y127496370D01*
X63426270Y127473430D01*
X63449210Y127445476D01*
X63466262Y127413573D01*
X63476761Y127378965D01*
X63480920Y127336740D01*
X63480920Y126194420D01*
X63476761Y126152195D01*
X63466262Y126117587D01*
X63449210Y126085684D01*
X63426270Y126057730D01*
X63398316Y126034790D01*
X63366413Y126017738D01*
X63331805Y126007239D01*
X63289580Y126003080D01*
X61822260Y126003080D01*
X61780035Y126007239D01*
X61745427Y126017738D01*
X61713524Y126034790D01*
X61685570Y126057730D01*
X61662630Y126085684D01*
X61645578Y126117587D01*
X61635079Y126152195D01*
X61630920Y126194420D01*
X61630920Y127336740D01*
X61635079Y127378965D01*
X61645578Y127413573D01*
X61662630Y127445476D01*
X61685570Y127473430D01*
X61713524Y127496370D01*
X61745427Y127513422D01*
X61780035Y127523921D01*
X61822260Y127528080D01*
X63289580Y127528080D01*
X63331805Y127523921D01*
G37*
G36*
X100408844Y128349175D02*
G01*
X100597815Y128291851D01*
X100771973Y128198762D01*
X100924625Y128073485D01*
X101049902Y127920833D01*
X101142991Y127746674D01*
X101200315Y127557703D01*
X101214820Y127410432D01*
X101214820Y127216927D01*
X101200315Y127069656D01*
X101142991Y126880685D01*
X101049902Y126706527D01*
X100924625Y126553875D01*
X100771973Y126428598D01*
X100597814Y126335509D01*
X100408843Y126278185D01*
X100212320Y126258829D01*
X100015796Y126278185D01*
X99826825Y126335509D01*
X99652667Y126428598D01*
X99500015Y126553875D01*
X99374738Y126706527D01*
X99281649Y126880686D01*
X99224325Y127069657D01*
X99209820Y127216928D01*
X99209820Y127410433D01*
X99224325Y127557704D01*
X99281649Y127746675D01*
X99374738Y127920833D01*
X99500015Y128073484D01*
X99585703Y128143806D01*
X99652666Y128198761D01*
X99675154Y128210781D01*
X99826826Y128291851D01*
X100015797Y128349175D01*
X100212320Y128368531D01*
X100408844Y128349175D01*
G37*
G36*
X102948844Y128349175D02*
G01*
X103137815Y128291851D01*
X103311973Y128198762D01*
X103464625Y128073485D01*
X103589902Y127920833D01*
X103682991Y127746674D01*
X103740315Y127557703D01*
X103754820Y127410432D01*
X103754820Y127216927D01*
X103740315Y127069656D01*
X103682991Y126880685D01*
X103589902Y126706527D01*
X103464625Y126553875D01*
X103311973Y126428598D01*
X103137814Y126335509D01*
X102948843Y126278185D01*
X102752320Y126258829D01*
X102555796Y126278185D01*
X102366825Y126335509D01*
X102192667Y126428598D01*
X102040015Y126553875D01*
X101914738Y126706527D01*
X101821649Y126880686D01*
X101764325Y127069657D01*
X101749820Y127216928D01*
X101749820Y127410433D01*
X101764325Y127557704D01*
X101821649Y127746675D01*
X101914738Y127920833D01*
X102040015Y128073484D01*
X102125703Y128143806D01*
X102192666Y128198761D01*
X102215154Y128210781D01*
X102366826Y128291851D01*
X102555797Y128349175D01*
X102752320Y128368531D01*
X102948844Y128349175D01*
G37*
G36*
X106294820Y126263680D02*
G01*
X104289820Y126263680D01*
X104289820Y128363680D01*
X106294820Y128363680D01*
X106294820Y126263680D01*
G37*
G36*
X76011805Y130438921D02*
G01*
X76046413Y130428422D01*
X76078316Y130411370D01*
X76106270Y130388430D01*
X76129210Y130360476D01*
X76146262Y130328573D01*
X76156761Y130293965D01*
X76160920Y130251740D01*
X76160920Y129109420D01*
X76156761Y129067195D01*
X76146262Y129032587D01*
X76129210Y129000684D01*
X76106270Y128972730D01*
X76078316Y128949790D01*
X76046413Y128932738D01*
X76011805Y128922239D01*
X75969580Y128918080D01*
X74502260Y128918080D01*
X74460035Y128922239D01*
X74425427Y128932738D01*
X74393524Y128949790D01*
X74365570Y128972730D01*
X74342630Y129000684D01*
X74325578Y129032587D01*
X74315079Y129067195D01*
X74310920Y129109420D01*
X74310920Y130251740D01*
X74315079Y130293965D01*
X74325578Y130328573D01*
X74342630Y130360476D01*
X74365570Y130388430D01*
X74393524Y130411370D01*
X74425427Y130428422D01*
X74460035Y130438921D01*
X74502260Y130443080D01*
X75969580Y130443080D01*
X76011805Y130438921D01*
G37*
G36*
X69591805Y130458921D02*
G01*
X69626413Y130448422D01*
X69658316Y130431370D01*
X69686270Y130408430D01*
X69709210Y130380476D01*
X69726262Y130348573D01*
X69736761Y130313965D01*
X69740920Y130271740D01*
X69740920Y129129420D01*
X69736761Y129087195D01*
X69726262Y129052587D01*
X69709210Y129020684D01*
X69686270Y128992730D01*
X69658316Y128969790D01*
X69626413Y128952738D01*
X69591805Y128942239D01*
X69549580Y128938080D01*
X68082260Y128938080D01*
X68040035Y128942239D01*
X68005427Y128952738D01*
X67973524Y128969790D01*
X67945570Y128992730D01*
X67922630Y129020684D01*
X67905578Y129052587D01*
X67895079Y129087195D01*
X67890920Y129129420D01*
X67890920Y130271740D01*
X67895079Y130313965D01*
X67905578Y130348573D01*
X67922630Y130380476D01*
X67945570Y130408430D01*
X67973524Y130431370D01*
X68005427Y130448422D01*
X68040035Y130458921D01*
X68082260Y130463080D01*
X69549580Y130463080D01*
X69591805Y130458921D01*
G37*
G36*
X63331805Y130498921D02*
G01*
X63366413Y130488422D01*
X63398316Y130471370D01*
X63426270Y130448430D01*
X63449210Y130420476D01*
X63466262Y130388573D01*
X63476761Y130353965D01*
X63480920Y130311740D01*
X63480920Y129169420D01*
X63476761Y129127195D01*
X63466262Y129092587D01*
X63449210Y129060684D01*
X63426270Y129032730D01*
X63398316Y129009790D01*
X63366413Y128992738D01*
X63331805Y128982239D01*
X63289580Y128978080D01*
X61822260Y128978080D01*
X61780035Y128982239D01*
X61745427Y128992738D01*
X61713524Y129009790D01*
X61685570Y129032730D01*
X61662630Y129060684D01*
X61645578Y129092587D01*
X61635079Y129127195D01*
X61630920Y129169420D01*
X61630920Y130311740D01*
X61635079Y130353965D01*
X61645578Y130388573D01*
X61662630Y130420476D01*
X61685570Y130448430D01*
X61713524Y130471370D01*
X61745427Y130488422D01*
X61780035Y130498921D01*
X61822260Y130503080D01*
X63289580Y130503080D01*
X63331805Y130498921D01*
G37*
G36*
X142899741Y138162028D02*
G01*
X143473005Y137924574D01*
X143988928Y137579845D01*
X144427685Y137141088D01*
X144772414Y136625165D01*
X145009868Y136051901D01*
X145130920Y135443328D01*
X145130920Y134822832D01*
X145009868Y134214259D01*
X144772414Y133640995D01*
X144427685Y133125072D01*
X143988928Y132686315D01*
X143473005Y132341586D01*
X142899741Y132104132D01*
X142291168Y131983080D01*
X141670672Y131983080D01*
X141062099Y132104132D01*
X140488835Y132341586D01*
X139972912Y132686315D01*
X139534155Y133125072D01*
X139189426Y133640995D01*
X138951972Y134214259D01*
X138830920Y134822832D01*
X138830920Y135443328D01*
X138951972Y136051901D01*
X139189426Y136625165D01*
X139534155Y137141088D01*
X139972912Y137579845D01*
X140488835Y137924574D01*
X141062099Y138162028D01*
X141670672Y138283080D01*
X142291168Y138283080D01*
X142899741Y138162028D01*
G37*
G36*
X9676741Y138162028D02*
G01*
X10250005Y137924574D01*
X10765928Y137579845D01*
X11204685Y137141088D01*
X11549414Y136625165D01*
X11786868Y136051901D01*
X11907920Y135443328D01*
X11907920Y134822832D01*
X11786868Y134214259D01*
X11549414Y133640995D01*
X11204685Y133125072D01*
X10765928Y132686315D01*
X10250005Y132341586D01*
X9676741Y132104132D01*
X9068168Y131983080D01*
X8447672Y131983080D01*
X7839099Y132104132D01*
X7265835Y132341586D01*
X6749912Y132686315D01*
X6311155Y133125072D01*
X5966426Y133640995D01*
X5728972Y134214259D01*
X5607920Y134822832D01*
X5607920Y135443328D01*
X5728972Y136051901D01*
X5966426Y136625165D01*
X6311155Y137141088D01*
X6749912Y137579845D01*
X7265835Y137924574D01*
X7839099Y138162028D01*
X8447672Y138283080D01*
X9068168Y138283080D01*
X9676741Y138162028D01*
G37*
M02*
