%TF.GenerationSoftware,KiCad,Pcbnew,(5.1.6)-1*%
%TF.CreationDate,2020-07-06T22:25:41+02:00*%
%TF.ProjectId,Power_supply,506f7765-725f-4737-9570-706c792e6b69,rev?*%
%TF.SameCoordinates,PX2b5d568PYa62d478*%
%TF.FileFunction,Legend,Top*%
%TF.FilePolarity,Positive*%
%FSLAX46Y46*%
G04 Gerber Fmt 4.6, Leading zero omitted, Abs format (unit mm)*
G04 Created by KiCad (PCBNEW (5.1.6)-1) date 2020-07-06 22:25:41*
%MOMM*%
%LPD*%
G01*
G04 APERTURE LIST*
%ADD10C,0.200000*%
%ADD11C,0.120000*%
%ADD12C,0.500000*%
%ADD13C,0.150000*%
G04 APERTURE END LIST*
D10*
X144400491Y75292747D02*
X144400491Y74959414D01*
X144924300Y74959414D02*
X143924300Y74959414D01*
X143924300Y75435604D01*
X144924300Y75816557D02*
X144257634Y75816557D01*
X144448110Y75816557D02*
X144352872Y75864176D01*
X144305253Y75911795D01*
X144257634Y76007033D01*
X144257634Y76102271D01*
X144924300Y76578461D02*
X144876681Y76483223D01*
X144829062Y76435604D01*
X144733824Y76387985D01*
X144448110Y76387985D01*
X144352872Y76435604D01*
X144305253Y76483223D01*
X144257634Y76578461D01*
X144257634Y76721319D01*
X144305253Y76816557D01*
X144352872Y76864176D01*
X144448110Y76911795D01*
X144733824Y76911795D01*
X144829062Y76864176D01*
X144876681Y76816557D01*
X144924300Y76721319D01*
X144924300Y76578461D01*
X144257634Y77340366D02*
X144924300Y77340366D01*
X144352872Y77340366D02*
X144305253Y77387985D01*
X144257634Y77483223D01*
X144257634Y77626080D01*
X144305253Y77721319D01*
X144400491Y77768938D01*
X144924300Y77768938D01*
X144257634Y78102271D02*
X144257634Y78483223D01*
X143924300Y78245128D02*
X144781443Y78245128D01*
X144876681Y78292747D01*
X144924300Y78387985D01*
X144924300Y78483223D01*
X144924300Y79578461D02*
X143924300Y79578461D01*
X143924300Y79959414D01*
X143971920Y80054652D01*
X144019539Y80102271D01*
X144114777Y80149890D01*
X144257634Y80149890D01*
X144352872Y80102271D01*
X144400491Y80054652D01*
X144448110Y79959414D01*
X144448110Y79578461D01*
X144924300Y81007033D02*
X144400491Y81007033D01*
X144305253Y80959414D01*
X144257634Y80864176D01*
X144257634Y80673700D01*
X144305253Y80578461D01*
X144876681Y81007033D02*
X144924300Y80911795D01*
X144924300Y80673700D01*
X144876681Y80578461D01*
X144781443Y80530842D01*
X144686205Y80530842D01*
X144590967Y80578461D01*
X144543348Y80673700D01*
X144543348Y80911795D01*
X144495729Y81007033D01*
X144257634Y81483223D02*
X144924300Y81483223D01*
X144352872Y81483223D02*
X144305253Y81530842D01*
X144257634Y81626080D01*
X144257634Y81768938D01*
X144305253Y81864176D01*
X144400491Y81911795D01*
X144924300Y81911795D01*
X144876681Y82768938D02*
X144924300Y82673700D01*
X144924300Y82483223D01*
X144876681Y82387985D01*
X144781443Y82340366D01*
X144400491Y82340366D01*
X144305253Y82387985D01*
X144257634Y82483223D01*
X144257634Y82673700D01*
X144305253Y82768938D01*
X144400491Y82816557D01*
X144495729Y82816557D01*
X144590967Y82340366D01*
X144924300Y83387985D02*
X144876681Y83292747D01*
X144781443Y83245128D01*
X143924300Y83245128D01*
X145624300Y77102271D02*
X145624300Y77292747D01*
X145671920Y77387985D01*
X145767158Y77483223D01*
X145957634Y77530842D01*
X146290967Y77530842D01*
X146481443Y77483223D01*
X146576681Y77387985D01*
X146624300Y77292747D01*
X146624300Y77102271D01*
X146576681Y77007033D01*
X146481443Y76911795D01*
X146290967Y76864176D01*
X145957634Y76864176D01*
X145767158Y76911795D01*
X145671920Y77007033D01*
X145624300Y77102271D01*
X145957634Y78387985D02*
X146624300Y78387985D01*
X145957634Y77959414D02*
X146481443Y77959414D01*
X146576681Y78007033D01*
X146624300Y78102271D01*
X146624300Y78245128D01*
X146576681Y78340366D01*
X146529062Y78387985D01*
X145957634Y78721319D02*
X145957634Y79102271D01*
X145624300Y78864176D02*
X146481443Y78864176D01*
X146576681Y78911795D01*
X146624300Y79007033D01*
X146624300Y79102271D01*
X145957634Y79435604D02*
X146957634Y79435604D01*
X146005253Y79435604D02*
X145957634Y79530842D01*
X145957634Y79721319D01*
X146005253Y79816557D01*
X146052872Y79864176D01*
X146148110Y79911795D01*
X146433824Y79911795D01*
X146529062Y79864176D01*
X146576681Y79816557D01*
X146624300Y79721319D01*
X146624300Y79530842D01*
X146576681Y79435604D01*
X145957634Y80768938D02*
X146624300Y80768938D01*
X145957634Y80340366D02*
X146481443Y80340366D01*
X146576681Y80387985D01*
X146624300Y80483223D01*
X146624300Y80626080D01*
X146576681Y80721319D01*
X146529062Y80768938D01*
X145957634Y81102271D02*
X145957634Y81483223D01*
X145624300Y81245128D02*
X146481443Y81245128D01*
X146576681Y81292747D01*
X146624300Y81387985D01*
X146624300Y81483223D01*
X148324300Y78126080D02*
X148324300Y77554652D01*
X148324300Y77840366D02*
X147324300Y77840366D01*
X147467158Y77745128D01*
X147562396Y77649890D01*
X147610015Y77554652D01*
X148229062Y78554652D02*
X148276681Y78602271D01*
X148324300Y78554652D01*
X148276681Y78507033D01*
X148229062Y78554652D01*
X148324300Y78554652D01*
X147324300Y79507033D02*
X147324300Y79030842D01*
X147800491Y78983223D01*
X147752872Y79030842D01*
X147705253Y79126080D01*
X147705253Y79364176D01*
X147752872Y79459414D01*
X147800491Y79507033D01*
X147895729Y79554652D01*
X148133824Y79554652D01*
X148229062Y79507033D01*
X148276681Y79459414D01*
X148324300Y79364176D01*
X148324300Y79126080D01*
X148276681Y79030842D01*
X148229062Y78983223D01*
X147324300Y79887985D02*
X148324300Y80126080D01*
X147610015Y80316557D01*
X148324300Y80507033D01*
X147324300Y80745128D01*
X143719300Y97041271D02*
X143719300Y97231747D01*
X143766920Y97326985D01*
X143862158Y97422223D01*
X144052634Y97469842D01*
X144385967Y97469842D01*
X144576443Y97422223D01*
X144671681Y97326985D01*
X144719300Y97231747D01*
X144719300Y97041271D01*
X144671681Y96946033D01*
X144576443Y96850795D01*
X144385967Y96803176D01*
X144052634Y96803176D01*
X143862158Y96850795D01*
X143766920Y96946033D01*
X143719300Y97041271D01*
X144052634Y98326985D02*
X144719300Y98326985D01*
X144052634Y97898414D02*
X144576443Y97898414D01*
X144671681Y97946033D01*
X144719300Y98041271D01*
X144719300Y98184128D01*
X144671681Y98279366D01*
X144624062Y98326985D01*
X144052634Y98660319D02*
X144052634Y99041271D01*
X143719300Y98803176D02*
X144576443Y98803176D01*
X144671681Y98850795D01*
X144719300Y98946033D01*
X144719300Y99041271D01*
X144052634Y99374604D02*
X145052634Y99374604D01*
X144100253Y99374604D02*
X144052634Y99469842D01*
X144052634Y99660319D01*
X144100253Y99755557D01*
X144147872Y99803176D01*
X144243110Y99850795D01*
X144528824Y99850795D01*
X144624062Y99803176D01*
X144671681Y99755557D01*
X144719300Y99660319D01*
X144719300Y99469842D01*
X144671681Y99374604D01*
X144052634Y100707938D02*
X144719300Y100707938D01*
X144052634Y100279366D02*
X144576443Y100279366D01*
X144671681Y100326985D01*
X144719300Y100422223D01*
X144719300Y100565080D01*
X144671681Y100660319D01*
X144624062Y100707938D01*
X144052634Y101041271D02*
X144052634Y101422223D01*
X143719300Y101184128D02*
X144576443Y101184128D01*
X144671681Y101231747D01*
X144719300Y101326985D01*
X144719300Y101422223D01*
D11*
%TO.C,F1*%
X21043984Y81264080D02*
X19839856Y81264080D01*
X21043984Y83084080D02*
X19839856Y83084080D01*
%TO.C,U5*%
X124637920Y13479080D02*
X124637920Y14989080D01*
X128338920Y13479080D02*
X128338920Y14989080D01*
X131608920Y14989080D02*
X121368920Y14989080D01*
X121368920Y13479080D02*
X121368920Y18120080D01*
X131608920Y13479080D02*
X131608920Y18120080D01*
X131608920Y18120080D02*
X121368920Y18120080D01*
X131608920Y13479080D02*
X121368920Y13479080D01*
%TO.C,U4*%
X37401920Y54865080D02*
X37401920Y52251080D01*
X34001920Y54865080D02*
X34001920Y52251080D01*
X30601920Y54865080D02*
X30601920Y52235080D01*
X35851920Y59506080D02*
X35851920Y57997080D01*
X32151920Y59506080D02*
X32151920Y57997080D01*
X28880920Y57997080D02*
X39121920Y57997080D01*
X39121920Y59506080D02*
X39121920Y54865080D01*
X28880920Y59506080D02*
X28880920Y54865080D01*
X36766920Y54865080D02*
X39121920Y54865080D01*
X33366920Y54865080D02*
X34636920Y54865080D01*
X28880920Y54865080D02*
X31236920Y54865080D01*
X28880920Y59506080D02*
X39121920Y59506080D01*
%TO.C,R18*%
X136114920Y38422580D02*
X135344920Y38422580D01*
X128034920Y38422580D02*
X128804920Y38422580D01*
X135344920Y39792580D02*
X128804920Y39792580D01*
X135344920Y37052580D02*
X135344920Y39792580D01*
X128804920Y37052580D02*
X135344920Y37052580D01*
X128804920Y39792580D02*
X128804920Y37052580D01*
%TO.C,R17*%
X136114920Y46042580D02*
X135344920Y46042580D01*
X128034920Y46042580D02*
X128804920Y46042580D01*
X135344920Y47412580D02*
X128804920Y47412580D01*
X135344920Y44672580D02*
X135344920Y47412580D01*
X128804920Y44672580D02*
X135344920Y44672580D01*
X128804920Y47412580D02*
X128804920Y44672580D01*
%TO.C,J3*%
X132169920Y73842880D02*
X141015720Y73842880D01*
X132169920Y84434680D02*
X141015720Y84434680D01*
X132169920Y84434680D02*
X132169920Y73842880D01*
X141015720Y73842880D02*
X141345920Y73842880D01*
X141345920Y73842880D02*
X141345920Y84434680D01*
X141345920Y84434680D02*
X141015720Y84434680D01*
%TO.C,D10*%
X134861920Y51317580D02*
X134861920Y61087580D01*
X134621920Y51317580D02*
X134621920Y61087580D01*
X134741920Y51317580D02*
X134741920Y61087580D01*
X128144920Y61087580D02*
X128144920Y57842580D01*
X136004920Y61087580D02*
X128144920Y61087580D01*
X136004920Y57842580D02*
X136004920Y61087580D01*
X128144920Y51317580D02*
X128144920Y54562580D01*
X136004920Y51317580D02*
X128144920Y51317580D01*
X136004920Y54562580D02*
X136004920Y51317580D01*
%TO.C,D9*%
X129287920Y33147580D02*
X129287920Y23377580D01*
X129527920Y33147580D02*
X129527920Y23377580D01*
X129407920Y33147580D02*
X129407920Y23377580D01*
X136004920Y23377580D02*
X136004920Y26622580D01*
X128144920Y23377580D02*
X136004920Y23377580D01*
X128144920Y26622580D02*
X128144920Y23377580D01*
X136004920Y33147580D02*
X136004920Y29902580D01*
X128144920Y33147580D02*
X136004920Y33147580D01*
X128144920Y29902580D02*
X128144920Y33147580D01*
%TO.C,C15*%
X137406920Y69400881D02*
X137006920Y69400881D01*
X137206920Y69600881D02*
X137206920Y69200881D01*
X136381920Y65250080D02*
X135641920Y65250080D01*
X136548920Y65290080D02*
X135474920Y65290080D01*
X136675920Y65330080D02*
X135347920Y65330080D01*
X136779920Y65370080D02*
X135243920Y65370080D01*
X136870920Y65410080D02*
X135152920Y65410080D01*
X136951920Y65450080D02*
X135071920Y65450080D01*
X137024920Y65490080D02*
X134998920Y65490080D01*
X135171920Y65530080D02*
X134931920Y65530080D01*
X137091920Y65530080D02*
X136851920Y65530080D01*
X135171920Y65570080D02*
X134869920Y65570080D01*
X137153920Y65570080D02*
X136851920Y65570080D01*
X135171920Y65610080D02*
X134811920Y65610080D01*
X137211920Y65610080D02*
X136851920Y65610080D01*
X135171920Y65650080D02*
X134757920Y65650080D01*
X137265920Y65650080D02*
X136851920Y65650080D01*
X135171920Y65690080D02*
X134707920Y65690080D01*
X137315920Y65690080D02*
X136851920Y65690080D01*
X135171920Y65730080D02*
X134660920Y65730080D01*
X137362920Y65730080D02*
X136851920Y65730080D01*
X135171920Y65770080D02*
X134615920Y65770080D01*
X137407920Y65770080D02*
X136851920Y65770080D01*
X135171920Y65810080D02*
X134573920Y65810080D01*
X137449920Y65810080D02*
X136851920Y65810080D01*
X135171920Y65850080D02*
X134533920Y65850080D01*
X137489920Y65850080D02*
X136851920Y65850080D01*
X135171920Y65890080D02*
X134495920Y65890080D01*
X137527920Y65890080D02*
X136851920Y65890080D01*
X135171920Y65930080D02*
X134459920Y65930080D01*
X137563920Y65930080D02*
X136851920Y65930080D01*
X135171920Y65970080D02*
X134424920Y65970080D01*
X137598920Y65970080D02*
X136851920Y65970080D01*
X135171920Y66010080D02*
X134392920Y66010080D01*
X137630920Y66010080D02*
X136851920Y66010080D01*
X135171920Y66050080D02*
X134361920Y66050080D01*
X137661920Y66050080D02*
X136851920Y66050080D01*
X135171920Y66090080D02*
X134331920Y66090080D01*
X137691920Y66090080D02*
X136851920Y66090080D01*
X135171920Y66130080D02*
X134303920Y66130080D01*
X137719920Y66130080D02*
X136851920Y66130080D01*
X135171920Y66170080D02*
X134276920Y66170080D01*
X137746920Y66170080D02*
X136851920Y66170080D01*
X135171920Y66210080D02*
X134251920Y66210080D01*
X137771920Y66210080D02*
X136851920Y66210080D01*
X135171920Y66250080D02*
X134226920Y66250080D01*
X137796920Y66250080D02*
X136851920Y66250080D01*
X135171920Y66290080D02*
X134203920Y66290080D01*
X137819920Y66290080D02*
X136851920Y66290080D01*
X135171920Y66330080D02*
X134181920Y66330080D01*
X137841920Y66330080D02*
X136851920Y66330080D01*
X135171920Y66370080D02*
X134160920Y66370080D01*
X137862920Y66370080D02*
X136851920Y66370080D01*
X135171920Y66410080D02*
X134141920Y66410080D01*
X137881920Y66410080D02*
X136851920Y66410080D01*
X135171920Y66450080D02*
X134122920Y66450080D01*
X137900920Y66450080D02*
X136851920Y66450080D01*
X135171920Y66490080D02*
X134104920Y66490080D01*
X137918920Y66490080D02*
X136851920Y66490080D01*
X135171920Y66530080D02*
X134087920Y66530080D01*
X137935920Y66530080D02*
X136851920Y66530080D01*
X135171920Y66570080D02*
X134071920Y66570080D01*
X137951920Y66570080D02*
X136851920Y66570080D01*
X135171920Y66610080D02*
X134057920Y66610080D01*
X137965920Y66610080D02*
X136851920Y66610080D01*
X135171920Y66651080D02*
X134043920Y66651080D01*
X137979920Y66651080D02*
X136851920Y66651080D01*
X135171920Y66691080D02*
X134029920Y66691080D01*
X137993920Y66691080D02*
X136851920Y66691080D01*
X135171920Y66731080D02*
X134017920Y66731080D01*
X138005920Y66731080D02*
X136851920Y66731080D01*
X135171920Y66771080D02*
X134006920Y66771080D01*
X138016920Y66771080D02*
X136851920Y66771080D01*
X135171920Y66811080D02*
X133995920Y66811080D01*
X138027920Y66811080D02*
X136851920Y66811080D01*
X135171920Y66851080D02*
X133986920Y66851080D01*
X138036920Y66851080D02*
X136851920Y66851080D01*
X135171920Y66891080D02*
X133977920Y66891080D01*
X138045920Y66891080D02*
X136851920Y66891080D01*
X135171920Y66931080D02*
X133969920Y66931080D01*
X138053920Y66931080D02*
X136851920Y66931080D01*
X135171920Y66971080D02*
X133961920Y66971080D01*
X138061920Y66971080D02*
X136851920Y66971080D01*
X135171920Y67011080D02*
X133955920Y67011080D01*
X138067920Y67011080D02*
X136851920Y67011080D01*
X135171920Y67051080D02*
X133949920Y67051080D01*
X138073920Y67051080D02*
X136851920Y67051080D01*
X135171920Y67091080D02*
X133944920Y67091080D01*
X138078920Y67091080D02*
X136851920Y67091080D01*
X135171920Y67131080D02*
X133940920Y67131080D01*
X138082920Y67131080D02*
X136851920Y67131080D01*
X138085920Y67171080D02*
X133937920Y67171080D01*
X138088920Y67211080D02*
X133934920Y67211080D01*
X138090920Y67251080D02*
X133932920Y67251080D01*
X138091920Y67291080D02*
X133931920Y67291080D01*
X138091920Y67331080D02*
X133931920Y67331080D01*
X138131920Y67331080D02*
G75*
G03*
X138131920Y67331080I-2120000J0D01*
G01*
%TO.C,C14*%
X122936295Y44294720D02*
X122936295Y44794720D01*
X123186295Y44544720D02*
X122686295Y44544720D01*
X117780520Y45735720D02*
X117780520Y46303720D01*
X117820520Y45501720D02*
X117820520Y46537720D01*
X117860520Y45342720D02*
X117860520Y46696720D01*
X117900520Y45214720D02*
X117900520Y46824720D01*
X117940520Y45104720D02*
X117940520Y46934720D01*
X117980520Y45008720D02*
X117980520Y47030720D01*
X118020520Y44921720D02*
X118020520Y47117720D01*
X118060520Y44841720D02*
X118060520Y47197720D01*
X118100520Y44768720D02*
X118100520Y47270720D01*
X118140520Y44700720D02*
X118140520Y47338720D01*
X118180520Y44636720D02*
X118180520Y47402720D01*
X118220520Y44576720D02*
X118220520Y47462720D01*
X118260520Y44519720D02*
X118260520Y47519720D01*
X118300520Y44465720D02*
X118300520Y47573720D01*
X118340520Y44414720D02*
X118340520Y47624720D01*
X118380520Y47059720D02*
X118380520Y47672720D01*
X118380520Y44366720D02*
X118380520Y44979720D01*
X118420520Y47059720D02*
X118420520Y47718720D01*
X118420520Y44320720D02*
X118420520Y44979720D01*
X118460520Y47059720D02*
X118460520Y47762720D01*
X118460520Y44276720D02*
X118460520Y44979720D01*
X118500520Y47059720D02*
X118500520Y47804720D01*
X118500520Y44234720D02*
X118500520Y44979720D01*
X118540520Y47059720D02*
X118540520Y47845720D01*
X118540520Y44193720D02*
X118540520Y44979720D01*
X118580520Y47059720D02*
X118580520Y47883720D01*
X118580520Y44155720D02*
X118580520Y44979720D01*
X118620520Y47059720D02*
X118620520Y47920720D01*
X118620520Y44118720D02*
X118620520Y44979720D01*
X118660520Y47059720D02*
X118660520Y47956720D01*
X118660520Y44082720D02*
X118660520Y44979720D01*
X118700520Y47059720D02*
X118700520Y47990720D01*
X118700520Y44048720D02*
X118700520Y44979720D01*
X118740520Y47059720D02*
X118740520Y48023720D01*
X118740520Y44015720D02*
X118740520Y44979720D01*
X118780520Y47059720D02*
X118780520Y48054720D01*
X118780520Y43984720D02*
X118780520Y44979720D01*
X118820520Y47059720D02*
X118820520Y48084720D01*
X118820520Y43954720D02*
X118820520Y44979720D01*
X118860520Y47059720D02*
X118860520Y48114720D01*
X118860520Y43924720D02*
X118860520Y44979720D01*
X118900520Y47059720D02*
X118900520Y48141720D01*
X118900520Y43897720D02*
X118900520Y44979720D01*
X118940520Y47059720D02*
X118940520Y48168720D01*
X118940520Y43870720D02*
X118940520Y44979720D01*
X118980520Y47059720D02*
X118980520Y48194720D01*
X118980520Y43844720D02*
X118980520Y44979720D01*
X119020520Y47059720D02*
X119020520Y48219720D01*
X119020520Y43819720D02*
X119020520Y44979720D01*
X119060520Y47059720D02*
X119060520Y48243720D01*
X119060520Y43795720D02*
X119060520Y44979720D01*
X119100520Y47059720D02*
X119100520Y48266720D01*
X119100520Y43772720D02*
X119100520Y44979720D01*
X119140520Y47059720D02*
X119140520Y48287720D01*
X119140520Y43751720D02*
X119140520Y44979720D01*
X119180520Y47059720D02*
X119180520Y48309720D01*
X119180520Y43729720D02*
X119180520Y44979720D01*
X119220520Y47059720D02*
X119220520Y48329720D01*
X119220520Y43709720D02*
X119220520Y44979720D01*
X119260520Y47059720D02*
X119260520Y48348720D01*
X119260520Y43690720D02*
X119260520Y44979720D01*
X119300520Y47059720D02*
X119300520Y48367720D01*
X119300520Y43671720D02*
X119300520Y44979720D01*
X119340520Y47059720D02*
X119340520Y48384720D01*
X119340520Y43654720D02*
X119340520Y44979720D01*
X119380520Y47059720D02*
X119380520Y48401720D01*
X119380520Y43637720D02*
X119380520Y44979720D01*
X119420520Y47059720D02*
X119420520Y48417720D01*
X119420520Y43621720D02*
X119420520Y44979720D01*
X119460520Y47059720D02*
X119460520Y48433720D01*
X119460520Y43605720D02*
X119460520Y44979720D01*
X119500520Y47059720D02*
X119500520Y48447720D01*
X119500520Y43591720D02*
X119500520Y44979720D01*
X119540520Y47059720D02*
X119540520Y48461720D01*
X119540520Y43577720D02*
X119540520Y44979720D01*
X119580520Y47059720D02*
X119580520Y48474720D01*
X119580520Y43564720D02*
X119580520Y44979720D01*
X119620520Y47059720D02*
X119620520Y48487720D01*
X119620520Y43551720D02*
X119620520Y44979720D01*
X119660520Y47059720D02*
X119660520Y48499720D01*
X119660520Y43539720D02*
X119660520Y44979720D01*
X119701520Y47059720D02*
X119701520Y48510720D01*
X119701520Y43528720D02*
X119701520Y44979720D01*
X119741520Y47059720D02*
X119741520Y48520720D01*
X119741520Y43518720D02*
X119741520Y44979720D01*
X119781520Y47059720D02*
X119781520Y48530720D01*
X119781520Y43508720D02*
X119781520Y44979720D01*
X119821520Y47059720D02*
X119821520Y48539720D01*
X119821520Y43499720D02*
X119821520Y44979720D01*
X119861520Y47059720D02*
X119861520Y48547720D01*
X119861520Y43491720D02*
X119861520Y44979720D01*
X119901520Y47059720D02*
X119901520Y48555720D01*
X119901520Y43483720D02*
X119901520Y44979720D01*
X119941520Y47059720D02*
X119941520Y48562720D01*
X119941520Y43476720D02*
X119941520Y44979720D01*
X119981520Y47059720D02*
X119981520Y48569720D01*
X119981520Y43469720D02*
X119981520Y44979720D01*
X120021520Y47059720D02*
X120021520Y48575720D01*
X120021520Y43463720D02*
X120021520Y44979720D01*
X120061520Y47059720D02*
X120061520Y48580720D01*
X120061520Y43458720D02*
X120061520Y44979720D01*
X120101520Y47059720D02*
X120101520Y48584720D01*
X120101520Y43454720D02*
X120101520Y44979720D01*
X120141520Y47059720D02*
X120141520Y48588720D01*
X120141520Y43450720D02*
X120141520Y44979720D01*
X120181520Y47059720D02*
X120181520Y48592720D01*
X120181520Y43446720D02*
X120181520Y44979720D01*
X120221520Y47059720D02*
X120221520Y48595720D01*
X120221520Y43443720D02*
X120221520Y44979720D01*
X120261520Y47059720D02*
X120261520Y48597720D01*
X120261520Y43441720D02*
X120261520Y44979720D01*
X120301520Y47059720D02*
X120301520Y48598720D01*
X120301520Y43440720D02*
X120301520Y44979720D01*
X120341520Y43439720D02*
X120341520Y44979720D01*
X120341520Y47059720D02*
X120341520Y48599720D01*
X120381520Y43439720D02*
X120381520Y44979720D01*
X120381520Y47059720D02*
X120381520Y48599720D01*
X123001520Y46019720D02*
G75*
G03*
X123001520Y46019720I-2620000J0D01*
G01*
%TO.C,J1*%
X7106920Y67594480D02*
X7437120Y67594480D01*
X7106920Y78186280D02*
X7106920Y67594480D01*
X7437120Y78186280D02*
X7106920Y78186280D01*
X16282920Y67594480D02*
X16282920Y78186280D01*
X16282920Y67594480D02*
X7437120Y67594480D01*
X16282920Y78186280D02*
X7437120Y78186280D01*
%TO.C,R12*%
X75290000Y50690696D02*
X75290000Y51894824D01*
X77110000Y50690696D02*
X77110000Y51894824D01*
%TO.C,U3*%
X107846920Y79619080D02*
X107846920Y84260080D01*
X107846920Y79619080D02*
X97606920Y79619080D01*
X97606920Y79619080D02*
X97606920Y84260080D01*
X107846920Y81129080D02*
X97606920Y81129080D01*
X104576920Y79619080D02*
X104576920Y81129080D01*
X100875920Y79619080D02*
X100875920Y81129080D01*
X107846920Y84260080D02*
X97606920Y84260080D01*
X94266920Y79389080D02*
X111266920Y79389080D01*
X94266920Y77389080D02*
X111266920Y77389080D01*
X111266920Y92089080D02*
X111266920Y66689080D01*
X111266920Y66689080D02*
X126266920Y66689080D01*
X126266920Y66689080D02*
X126266920Y92089080D01*
X126266920Y92089080D02*
X111266920Y92089080D01*
X94266920Y92089080D02*
X94266920Y66689080D01*
X94266920Y66689080D02*
X79266920Y66689080D01*
X79266920Y66689080D02*
X79266920Y92089080D01*
X79266920Y92089080D02*
X94266920Y92089080D01*
%TO.C,U2*%
X107872320Y124043680D02*
X107872320Y128684680D01*
X107872320Y124043680D02*
X97632320Y124043680D01*
X97632320Y124043680D02*
X97632320Y128684680D01*
X107872320Y125553680D02*
X97632320Y125553680D01*
X104602320Y124043680D02*
X104602320Y125553680D01*
X100901320Y124043680D02*
X100901320Y125553680D01*
X107872320Y128684680D02*
X97632320Y128684680D01*
X94292320Y123813680D02*
X111292320Y123813680D01*
X94292320Y121813680D02*
X111292320Y121813680D01*
X111292320Y136513680D02*
X111292320Y111113680D01*
X111292320Y111113680D02*
X126292320Y111113680D01*
X126292320Y111113680D02*
X126292320Y136513680D01*
X126292320Y136513680D02*
X111292320Y136513680D01*
X94292320Y136513680D02*
X94292320Y111113680D01*
X94292320Y111113680D02*
X79292320Y111113680D01*
X79292320Y111113680D02*
X79292320Y136513680D01*
X79292320Y136513680D02*
X94292320Y136513680D01*
%TO.C,U1*%
X38671920Y113412080D02*
X38671920Y110798080D01*
X35271920Y113412080D02*
X35271920Y110798080D01*
X31871920Y113412080D02*
X31871920Y110782080D01*
X37121920Y118053080D02*
X37121920Y116544080D01*
X33421920Y118053080D02*
X33421920Y116544080D01*
X30150920Y116544080D02*
X40391920Y116544080D01*
X40391920Y118053080D02*
X40391920Y113412080D01*
X30150920Y118053080D02*
X30150920Y113412080D01*
X38036920Y113412080D02*
X40391920Y113412080D01*
X34636920Y113412080D02*
X35906920Y113412080D01*
X30150920Y113412080D02*
X32506920Y113412080D01*
X30150920Y118053080D02*
X40391920Y118053080D01*
X43771920Y118233080D02*
X26771920Y118233080D01*
X43771920Y120233080D02*
X26771920Y120233080D01*
X26771920Y105533080D02*
X26771920Y130933080D01*
X26771920Y130933080D02*
X11771920Y130933080D01*
X11771920Y130933080D02*
X11771920Y105533080D01*
X11771920Y105533080D02*
X26771920Y105533080D01*
X43771920Y105533080D02*
X43771920Y130933080D01*
X43771920Y130933080D02*
X58771920Y130933080D01*
X58771920Y130933080D02*
X58771920Y105533080D01*
X58771920Y105533080D02*
X43771920Y105533080D01*
%TO.C,SW1*%
X22172920Y76887080D02*
X39672920Y76887080D01*
X39672920Y66887080D02*
X22172920Y66887080D01*
X22172920Y66887080D02*
X22172920Y76887080D01*
X39672920Y66887080D02*
X39672920Y76887080D01*
%TO.C,RV4*%
X67066420Y60662580D02*
X60066420Y60662580D01*
X60066420Y60662580D02*
X60066420Y51662580D01*
X60066420Y51662580D02*
X67066420Y51662580D01*
X67066420Y51662580D02*
X67066420Y60662580D01*
%TO.C,RV3*%
X67002920Y25182580D02*
X60002920Y25182580D01*
X60002920Y25182580D02*
X60002920Y16182580D01*
X60002920Y16182580D02*
X67002920Y16182580D01*
X67002920Y16182580D02*
X67002920Y25182580D01*
%TO.C,RV2*%
X97450920Y32059080D02*
X97450920Y22059080D01*
X72450920Y32059080D02*
X97450920Y32059080D01*
X72450920Y22059080D02*
X72450920Y32059080D01*
X97450920Y22059080D02*
X72450920Y22059080D01*
%TO.C,RV1*%
X97450920Y46029080D02*
X97450920Y36029080D01*
X72450920Y46029080D02*
X97450920Y46029080D01*
X72450920Y36029080D02*
X72450920Y46029080D01*
X97450920Y36029080D02*
X72450920Y36029080D01*
%TO.C,R16*%
X22941400Y44578396D02*
X22941400Y45782524D01*
X24761400Y44578396D02*
X24761400Y45782524D01*
%TO.C,R15*%
X22948984Y49387080D02*
X21744856Y49387080D01*
X22948984Y51207080D02*
X21744856Y51207080D01*
%TO.C,R14*%
X47021160Y53091164D02*
X47021160Y51887036D01*
X45201160Y53091164D02*
X45201160Y51887036D01*
%TO.C,R13*%
X51093960Y51836236D02*
X51093960Y53040364D01*
X52913960Y51836236D02*
X52913960Y53040364D01*
%TO.C,R11*%
X74325920Y127591016D02*
X74325920Y128795144D01*
X76145920Y127591016D02*
X76145920Y128795144D01*
%TO.C,R10*%
X67905920Y127611016D02*
X67905920Y128815144D01*
X69725920Y127611016D02*
X69725920Y128815144D01*
%TO.C,R9*%
X104727420Y38553144D02*
X104727420Y37349016D01*
X102907420Y38553144D02*
X102907420Y37349016D01*
%TO.C,R8*%
X91502920Y99553016D02*
X91502920Y103657144D01*
X94922920Y99553016D02*
X94922920Y103657144D01*
%TO.C,R7*%
X97852920Y99553016D02*
X97852920Y103657144D01*
X101272920Y99553016D02*
X101272920Y103657144D01*
%TO.C,R6*%
X69642400Y110058284D02*
X69642400Y108854156D01*
X67822400Y110058284D02*
X67822400Y108854156D01*
%TO.C,R5*%
X76165120Y110081144D02*
X76165120Y108877016D01*
X74345120Y110081144D02*
X74345120Y108877016D01*
%TO.C,R4*%
X104202920Y99553016D02*
X104202920Y103657144D01*
X107622920Y99553016D02*
X107622920Y103657144D01*
%TO.C,R3*%
X61637500Y117386016D02*
X61637500Y118590144D01*
X63457500Y117386016D02*
X63457500Y118590144D01*
%TO.C,R2*%
X110552920Y99553016D02*
X110552920Y103657144D01*
X113972920Y99553016D02*
X113972920Y103657144D01*
%TO.C,R1*%
X74337500Y117667956D02*
X74337500Y118872084D01*
X76157500Y117667956D02*
X76157500Y118872084D01*
%TO.C,Q3*%
X73910920Y60259080D02*
X73910920Y59329080D01*
X73910920Y57099080D02*
X73910920Y58029080D01*
X73910920Y57099080D02*
X77070920Y57099080D01*
X73910920Y60259080D02*
X75370920Y60259080D01*
%TO.C,Q2*%
X73886920Y14899080D02*
X73886920Y13969080D01*
X73886920Y11739080D02*
X73886920Y12669080D01*
X73886920Y11739080D02*
X77046920Y11739080D01*
X73886920Y14899080D02*
X75346920Y14899080D01*
%TO.C,Q1*%
X70477500Y119030020D02*
X69547500Y119030020D01*
X67317500Y119030020D02*
X68247500Y119030020D01*
X67317500Y119030020D02*
X67317500Y115870020D01*
X70477500Y119030020D02*
X70477500Y117570020D01*
%TO.C,L2*%
X47962920Y36071080D02*
X47962920Y26439080D01*
X47962920Y23863080D02*
X47962920Y14231080D01*
X38622920Y36071080D02*
X38622920Y26439080D01*
X38622920Y23863080D02*
X38622920Y14231080D01*
X47962920Y36071080D02*
X38622920Y36071080D01*
X47962920Y14231080D02*
X38622920Y14231080D01*
%TO.C,L1*%
X56852920Y93475080D02*
X56852920Y83843080D01*
X56852920Y81267080D02*
X56852920Y71635080D01*
X47512920Y93475080D02*
X47512920Y83843080D01*
X47512920Y81267080D02*
X47512920Y71635080D01*
X56852920Y93475080D02*
X47512920Y93475080D01*
X56852920Y71635080D02*
X47512920Y71635080D01*
%TO.C,J2*%
X141345920Y104500680D02*
X141015720Y104500680D01*
X141345920Y93908880D02*
X141345920Y104500680D01*
X141015720Y93908880D02*
X141345920Y93908880D01*
X132169920Y104500680D02*
X132169920Y93908880D01*
X132169920Y104500680D02*
X141015720Y104500680D01*
X132169920Y93908880D02*
X141015720Y93908880D01*
%TO.C,D8*%
X30855920Y40899080D02*
X24607520Y40899080D01*
X30855920Y30993080D02*
X30855920Y40899080D01*
X24607520Y30993080D02*
X30855920Y30993080D01*
X24607520Y40899080D02*
X24607520Y30993080D01*
D12*
X27934920Y29265880D02*
G75*
G03*
X27934920Y29265880I-228600J0D01*
G01*
D11*
%TO.C,D7*%
X105538920Y13689080D02*
X105538920Y16934080D01*
X105538920Y16934080D02*
X113398920Y16934080D01*
X113398920Y16934080D02*
X113398920Y13689080D01*
X105538920Y10409080D02*
X105538920Y7164080D01*
X105538920Y7164080D02*
X113398920Y7164080D01*
X113398920Y7164080D02*
X113398920Y10409080D01*
X106801920Y16934080D02*
X106801920Y7164080D01*
X106921920Y16934080D02*
X106921920Y7164080D01*
X106681920Y16934080D02*
X106681920Y7164080D01*
%TO.C,D6*%
X84710920Y13689080D02*
X84710920Y16934080D01*
X84710920Y16934080D02*
X92570920Y16934080D01*
X92570920Y16934080D02*
X92570920Y13689080D01*
X84710920Y10409080D02*
X84710920Y7164080D01*
X84710920Y7164080D02*
X92570920Y7164080D01*
X92570920Y7164080D02*
X92570920Y10409080D01*
X85973920Y16934080D02*
X85973920Y7164080D01*
X86093920Y16934080D02*
X86093920Y7164080D01*
X85853920Y16934080D02*
X85853920Y7164080D01*
%TO.C,D5*%
X84710920Y57779080D02*
X84710920Y61024080D01*
X84710920Y61024080D02*
X92570920Y61024080D01*
X92570920Y61024080D02*
X92570920Y57779080D01*
X84710920Y54499080D02*
X84710920Y51254080D01*
X84710920Y51254080D02*
X92570920Y51254080D01*
X92570920Y51254080D02*
X92570920Y54499080D01*
X85973920Y61024080D02*
X85973920Y51254080D01*
X86093920Y61024080D02*
X86093920Y51254080D01*
X85853920Y61024080D02*
X85853920Y51254080D01*
%TO.C,D4*%
X102490920Y57779080D02*
X102490920Y61024080D01*
X102490920Y61024080D02*
X110350920Y61024080D01*
X110350920Y61024080D02*
X110350920Y57779080D01*
X102490920Y54499080D02*
X102490920Y51254080D01*
X102490920Y51254080D02*
X110350920Y51254080D01*
X110350920Y51254080D02*
X110350920Y54499080D01*
X103753920Y61024080D02*
X103753920Y51254080D01*
X103873920Y61024080D02*
X103873920Y51254080D01*
X103633920Y61024080D02*
X103633920Y51254080D01*
%TO.C,D3*%
X116887420Y37927900D02*
X120132420Y37927900D01*
X120132420Y37927900D02*
X120132420Y30067900D01*
X120132420Y30067900D02*
X116887420Y30067900D01*
X113607420Y37927900D02*
X110362420Y37927900D01*
X110362420Y37927900D02*
X110362420Y30067900D01*
X110362420Y30067900D02*
X113607420Y30067900D01*
X120132420Y36664900D02*
X110362420Y36664900D01*
X120132420Y36544900D02*
X110362420Y36544900D01*
X120132420Y36784900D02*
X110362420Y36784900D01*
%TO.C,D2*%
X33967420Y86949280D02*
X40215820Y86949280D01*
X33967420Y96855280D02*
X33967420Y86949280D01*
X40215820Y96855280D02*
X33967420Y96855280D01*
X40215820Y86949280D02*
X40215820Y96855280D01*
D12*
X37345620Y98582480D02*
G75*
G03*
X37345620Y98582480I-228600J0D01*
G01*
D11*
%TO.C,D1*%
X138032920Y121791080D02*
X141277920Y121791080D01*
X141277920Y121791080D02*
X141277920Y113931080D01*
X141277920Y113931080D02*
X138032920Y113931080D01*
X134752920Y121791080D02*
X131507920Y121791080D01*
X131507920Y121791080D02*
X131507920Y113931080D01*
X131507920Y113931080D02*
X134752920Y113931080D01*
X141277920Y120528080D02*
X131507920Y120528080D01*
X141277920Y120408080D02*
X131507920Y120408080D01*
X141277920Y120648080D02*
X131507920Y120648080D01*
%TO.C,C13*%
X64693920Y37569080D02*
G75*
G03*
X64693920Y37569080I-4120000J0D01*
G01*
X56493920Y37569080D02*
X64653920Y37569080D01*
X56493920Y37609080D02*
X64653920Y37609080D01*
X56493920Y37649080D02*
X64653920Y37649080D01*
X56494920Y37689080D02*
X64652920Y37689080D01*
X56496920Y37729080D02*
X64650920Y37729080D01*
X56497920Y37769080D02*
X64649920Y37769080D01*
X56499920Y37809080D02*
X64647920Y37809080D01*
X56502920Y37849080D02*
X64644920Y37849080D01*
X56505920Y37889080D02*
X64641920Y37889080D01*
X56508920Y37929080D02*
X64638920Y37929080D01*
X56512920Y37969080D02*
X64634920Y37969080D01*
X56516920Y38009080D02*
X64630920Y38009080D01*
X56521920Y38049080D02*
X64625920Y38049080D01*
X56525920Y38089080D02*
X64621920Y38089080D01*
X56531920Y38129080D02*
X64615920Y38129080D01*
X56536920Y38169080D02*
X64610920Y38169080D01*
X56543920Y38209080D02*
X64603920Y38209080D01*
X56549920Y38249080D02*
X64597920Y38249080D01*
X56556920Y38290080D02*
X59533920Y38290080D01*
X61613920Y38290080D02*
X64590920Y38290080D01*
X56563920Y38330080D02*
X59533920Y38330080D01*
X61613920Y38330080D02*
X64583920Y38330080D01*
X56571920Y38370080D02*
X59533920Y38370080D01*
X61613920Y38370080D02*
X64575920Y38370080D01*
X56579920Y38410080D02*
X59533920Y38410080D01*
X61613920Y38410080D02*
X64567920Y38410080D01*
X56588920Y38450080D02*
X59533920Y38450080D01*
X61613920Y38450080D02*
X64558920Y38450080D01*
X56597920Y38490080D02*
X59533920Y38490080D01*
X61613920Y38490080D02*
X64549920Y38490080D01*
X56606920Y38530080D02*
X59533920Y38530080D01*
X61613920Y38530080D02*
X64540920Y38530080D01*
X56616920Y38570080D02*
X59533920Y38570080D01*
X61613920Y38570080D02*
X64530920Y38570080D01*
X56626920Y38610080D02*
X59533920Y38610080D01*
X61613920Y38610080D02*
X64520920Y38610080D01*
X56637920Y38650080D02*
X59533920Y38650080D01*
X61613920Y38650080D02*
X64509920Y38650080D01*
X56648920Y38690080D02*
X59533920Y38690080D01*
X61613920Y38690080D02*
X64498920Y38690080D01*
X56659920Y38730080D02*
X59533920Y38730080D01*
X61613920Y38730080D02*
X64487920Y38730080D01*
X56671920Y38770080D02*
X59533920Y38770080D01*
X61613920Y38770080D02*
X64475920Y38770080D01*
X56684920Y38810080D02*
X59533920Y38810080D01*
X61613920Y38810080D02*
X64462920Y38810080D01*
X56696920Y38850080D02*
X59533920Y38850080D01*
X61613920Y38850080D02*
X64450920Y38850080D01*
X56710920Y38890080D02*
X59533920Y38890080D01*
X61613920Y38890080D02*
X64436920Y38890080D01*
X56723920Y38930080D02*
X59533920Y38930080D01*
X61613920Y38930080D02*
X64423920Y38930080D01*
X56738920Y38970080D02*
X59533920Y38970080D01*
X61613920Y38970080D02*
X64408920Y38970080D01*
X56752920Y39010080D02*
X59533920Y39010080D01*
X61613920Y39010080D02*
X64394920Y39010080D01*
X56768920Y39050080D02*
X59533920Y39050080D01*
X61613920Y39050080D02*
X64378920Y39050080D01*
X56783920Y39090080D02*
X59533920Y39090080D01*
X61613920Y39090080D02*
X64363920Y39090080D01*
X56799920Y39130080D02*
X59533920Y39130080D01*
X61613920Y39130080D02*
X64347920Y39130080D01*
X56816920Y39170080D02*
X59533920Y39170080D01*
X61613920Y39170080D02*
X64330920Y39170080D01*
X56833920Y39210080D02*
X59533920Y39210080D01*
X61613920Y39210080D02*
X64313920Y39210080D01*
X56851920Y39250080D02*
X59533920Y39250080D01*
X61613920Y39250080D02*
X64295920Y39250080D01*
X56869920Y39290080D02*
X59533920Y39290080D01*
X61613920Y39290080D02*
X64277920Y39290080D01*
X56887920Y39330080D02*
X59533920Y39330080D01*
X61613920Y39330080D02*
X64259920Y39330080D01*
X56907920Y39370080D02*
X59533920Y39370080D01*
X61613920Y39370080D02*
X64239920Y39370080D01*
X56926920Y39410080D02*
X59533920Y39410080D01*
X61613920Y39410080D02*
X64220920Y39410080D01*
X56946920Y39450080D02*
X59533920Y39450080D01*
X61613920Y39450080D02*
X64200920Y39450080D01*
X56967920Y39490080D02*
X59533920Y39490080D01*
X61613920Y39490080D02*
X64179920Y39490080D01*
X56989920Y39530080D02*
X59533920Y39530080D01*
X61613920Y39530080D02*
X64157920Y39530080D01*
X57011920Y39570080D02*
X59533920Y39570080D01*
X61613920Y39570080D02*
X64135920Y39570080D01*
X57033920Y39610080D02*
X59533920Y39610080D01*
X61613920Y39610080D02*
X64113920Y39610080D01*
X57056920Y39650080D02*
X59533920Y39650080D01*
X61613920Y39650080D02*
X64090920Y39650080D01*
X57080920Y39690080D02*
X59533920Y39690080D01*
X61613920Y39690080D02*
X64066920Y39690080D01*
X57104920Y39730080D02*
X59533920Y39730080D01*
X61613920Y39730080D02*
X64042920Y39730080D01*
X57129920Y39770080D02*
X59533920Y39770080D01*
X61613920Y39770080D02*
X64017920Y39770080D01*
X57155920Y39810080D02*
X59533920Y39810080D01*
X61613920Y39810080D02*
X63991920Y39810080D01*
X57181920Y39850080D02*
X59533920Y39850080D01*
X61613920Y39850080D02*
X63965920Y39850080D01*
X57208920Y39890080D02*
X59533920Y39890080D01*
X61613920Y39890080D02*
X63938920Y39890080D01*
X57235920Y39930080D02*
X59533920Y39930080D01*
X61613920Y39930080D02*
X63911920Y39930080D01*
X57264920Y39970080D02*
X59533920Y39970080D01*
X61613920Y39970080D02*
X63882920Y39970080D01*
X57293920Y40010080D02*
X59533920Y40010080D01*
X61613920Y40010080D02*
X63853920Y40010080D01*
X57323920Y40050080D02*
X59533920Y40050080D01*
X61613920Y40050080D02*
X63823920Y40050080D01*
X57353920Y40090080D02*
X59533920Y40090080D01*
X61613920Y40090080D02*
X63793920Y40090080D01*
X57384920Y40130080D02*
X59533920Y40130080D01*
X61613920Y40130080D02*
X63762920Y40130080D01*
X57417920Y40170080D02*
X59533920Y40170080D01*
X61613920Y40170080D02*
X63729920Y40170080D01*
X57449920Y40210080D02*
X59533920Y40210080D01*
X61613920Y40210080D02*
X63697920Y40210080D01*
X57483920Y40250080D02*
X59533920Y40250080D01*
X61613920Y40250080D02*
X63663920Y40250080D01*
X57518920Y40290080D02*
X59533920Y40290080D01*
X61613920Y40290080D02*
X63628920Y40290080D01*
X57554920Y40330080D02*
X59533920Y40330080D01*
X61613920Y40330080D02*
X63592920Y40330080D01*
X57590920Y40370080D02*
X63556920Y40370080D01*
X57628920Y40410080D02*
X63518920Y40410080D01*
X57666920Y40450080D02*
X63480920Y40450080D01*
X57706920Y40490080D02*
X63440920Y40490080D01*
X57747920Y40530080D02*
X63399920Y40530080D01*
X57789920Y40570080D02*
X63357920Y40570080D01*
X57832920Y40610080D02*
X63314920Y40610080D01*
X57876920Y40650080D02*
X63270920Y40650080D01*
X57922920Y40690080D02*
X63224920Y40690080D01*
X57969920Y40730080D02*
X63177920Y40730080D01*
X58017920Y40770080D02*
X63129920Y40770080D01*
X58068920Y40810080D02*
X63078920Y40810080D01*
X58119920Y40850080D02*
X63027920Y40850080D01*
X58173920Y40890080D02*
X62973920Y40890080D01*
X58228920Y40930080D02*
X62918920Y40930080D01*
X58286920Y40970080D02*
X62860920Y40970080D01*
X58345920Y41010080D02*
X62801920Y41010080D01*
X58407920Y41050080D02*
X62739920Y41050080D01*
X58471920Y41090080D02*
X62675920Y41090080D01*
X58539920Y41130080D02*
X62607920Y41130080D01*
X58609920Y41170080D02*
X62537920Y41170080D01*
X58683920Y41210080D02*
X62463920Y41210080D01*
X58760920Y41250080D02*
X62386920Y41250080D01*
X58842920Y41290080D02*
X62304920Y41290080D01*
X58928920Y41330080D02*
X62218920Y41330080D01*
X59021920Y41370080D02*
X62125920Y41370080D01*
X59120920Y41410080D02*
X62026920Y41410080D01*
X59227920Y41450080D02*
X61919920Y41450080D01*
X59344920Y41490080D02*
X61802920Y41490080D01*
X59475920Y41530080D02*
X61671920Y41530080D01*
X59625920Y41570080D02*
X61521920Y41570080D01*
X59805920Y41610080D02*
X61341920Y41610080D01*
X60040920Y41650080D02*
X61106920Y41650080D01*
X58258920Y33159382D02*
X58258920Y33959382D01*
X57858920Y33559382D02*
X58658920Y33559382D01*
%TO.C,C12*%
X17668920Y52423144D02*
X17668920Y51219016D01*
X15848920Y52423144D02*
X15848920Y51219016D01*
%TO.C,C11*%
X15260780Y57245760D02*
G75*
G03*
X15260780Y57245760I-2620000J0D01*
G01*
X13680780Y57245760D02*
X15220780Y57245760D01*
X10060780Y57245760D02*
X11600780Y57245760D01*
X13680780Y57285760D02*
X15220780Y57285760D01*
X10060780Y57285760D02*
X11600780Y57285760D01*
X10061780Y57325760D02*
X11600780Y57325760D01*
X13680780Y57325760D02*
X15219780Y57325760D01*
X10062780Y57365760D02*
X11600780Y57365760D01*
X13680780Y57365760D02*
X15218780Y57365760D01*
X10064780Y57405760D02*
X11600780Y57405760D01*
X13680780Y57405760D02*
X15216780Y57405760D01*
X10067780Y57445760D02*
X11600780Y57445760D01*
X13680780Y57445760D02*
X15213780Y57445760D01*
X10071780Y57485760D02*
X11600780Y57485760D01*
X13680780Y57485760D02*
X15209780Y57485760D01*
X10075780Y57525760D02*
X11600780Y57525760D01*
X13680780Y57525760D02*
X15205780Y57525760D01*
X10079780Y57565760D02*
X11600780Y57565760D01*
X13680780Y57565760D02*
X15201780Y57565760D01*
X10084780Y57605760D02*
X11600780Y57605760D01*
X13680780Y57605760D02*
X15196780Y57605760D01*
X10090780Y57645760D02*
X11600780Y57645760D01*
X13680780Y57645760D02*
X15190780Y57645760D01*
X10097780Y57685760D02*
X11600780Y57685760D01*
X13680780Y57685760D02*
X15183780Y57685760D01*
X10104780Y57725760D02*
X11600780Y57725760D01*
X13680780Y57725760D02*
X15176780Y57725760D01*
X10112780Y57765760D02*
X11600780Y57765760D01*
X13680780Y57765760D02*
X15168780Y57765760D01*
X10120780Y57805760D02*
X11600780Y57805760D01*
X13680780Y57805760D02*
X15160780Y57805760D01*
X10129780Y57845760D02*
X11600780Y57845760D01*
X13680780Y57845760D02*
X15151780Y57845760D01*
X10139780Y57885760D02*
X11600780Y57885760D01*
X13680780Y57885760D02*
X15141780Y57885760D01*
X10149780Y57925760D02*
X11600780Y57925760D01*
X13680780Y57925760D02*
X15131780Y57925760D01*
X10160780Y57966760D02*
X11600780Y57966760D01*
X13680780Y57966760D02*
X15120780Y57966760D01*
X10172780Y58006760D02*
X11600780Y58006760D01*
X13680780Y58006760D02*
X15108780Y58006760D01*
X10185780Y58046760D02*
X11600780Y58046760D01*
X13680780Y58046760D02*
X15095780Y58046760D01*
X10198780Y58086760D02*
X11600780Y58086760D01*
X13680780Y58086760D02*
X15082780Y58086760D01*
X10212780Y58126760D02*
X11600780Y58126760D01*
X13680780Y58126760D02*
X15068780Y58126760D01*
X10226780Y58166760D02*
X11600780Y58166760D01*
X13680780Y58166760D02*
X15054780Y58166760D01*
X10242780Y58206760D02*
X11600780Y58206760D01*
X13680780Y58206760D02*
X15038780Y58206760D01*
X10258780Y58246760D02*
X11600780Y58246760D01*
X13680780Y58246760D02*
X15022780Y58246760D01*
X10275780Y58286760D02*
X11600780Y58286760D01*
X13680780Y58286760D02*
X15005780Y58286760D01*
X10292780Y58326760D02*
X11600780Y58326760D01*
X13680780Y58326760D02*
X14988780Y58326760D01*
X10311780Y58366760D02*
X11600780Y58366760D01*
X13680780Y58366760D02*
X14969780Y58366760D01*
X10330780Y58406760D02*
X11600780Y58406760D01*
X13680780Y58406760D02*
X14950780Y58406760D01*
X10350780Y58446760D02*
X11600780Y58446760D01*
X13680780Y58446760D02*
X14930780Y58446760D01*
X10372780Y58486760D02*
X11600780Y58486760D01*
X13680780Y58486760D02*
X14908780Y58486760D01*
X10393780Y58526760D02*
X11600780Y58526760D01*
X13680780Y58526760D02*
X14887780Y58526760D01*
X10416780Y58566760D02*
X11600780Y58566760D01*
X13680780Y58566760D02*
X14864780Y58566760D01*
X10440780Y58606760D02*
X11600780Y58606760D01*
X13680780Y58606760D02*
X14840780Y58606760D01*
X10465780Y58646760D02*
X11600780Y58646760D01*
X13680780Y58646760D02*
X14815780Y58646760D01*
X10491780Y58686760D02*
X11600780Y58686760D01*
X13680780Y58686760D02*
X14789780Y58686760D01*
X10518780Y58726760D02*
X11600780Y58726760D01*
X13680780Y58726760D02*
X14762780Y58726760D01*
X10545780Y58766760D02*
X11600780Y58766760D01*
X13680780Y58766760D02*
X14735780Y58766760D01*
X10575780Y58806760D02*
X11600780Y58806760D01*
X13680780Y58806760D02*
X14705780Y58806760D01*
X10605780Y58846760D02*
X11600780Y58846760D01*
X13680780Y58846760D02*
X14675780Y58846760D01*
X10636780Y58886760D02*
X11600780Y58886760D01*
X13680780Y58886760D02*
X14644780Y58886760D01*
X10669780Y58926760D02*
X11600780Y58926760D01*
X13680780Y58926760D02*
X14611780Y58926760D01*
X10703780Y58966760D02*
X11600780Y58966760D01*
X13680780Y58966760D02*
X14577780Y58966760D01*
X10739780Y59006760D02*
X11600780Y59006760D01*
X13680780Y59006760D02*
X14541780Y59006760D01*
X10776780Y59046760D02*
X11600780Y59046760D01*
X13680780Y59046760D02*
X14504780Y59046760D01*
X10814780Y59086760D02*
X11600780Y59086760D01*
X13680780Y59086760D02*
X14466780Y59086760D01*
X10855780Y59126760D02*
X11600780Y59126760D01*
X13680780Y59126760D02*
X14425780Y59126760D01*
X10897780Y59166760D02*
X11600780Y59166760D01*
X13680780Y59166760D02*
X14383780Y59166760D01*
X10941780Y59206760D02*
X11600780Y59206760D01*
X13680780Y59206760D02*
X14339780Y59206760D01*
X10987780Y59246760D02*
X11600780Y59246760D01*
X13680780Y59246760D02*
X14293780Y59246760D01*
X11035780Y59286760D02*
X14245780Y59286760D01*
X11086780Y59326760D02*
X14194780Y59326760D01*
X11140780Y59366760D02*
X14140780Y59366760D01*
X11197780Y59406760D02*
X14083780Y59406760D01*
X11257780Y59446760D02*
X14023780Y59446760D01*
X11321780Y59486760D02*
X13959780Y59486760D01*
X11389780Y59526760D02*
X13891780Y59526760D01*
X11462780Y59566760D02*
X13818780Y59566760D01*
X11542780Y59606760D02*
X13738780Y59606760D01*
X11629780Y59646760D02*
X13651780Y59646760D01*
X11725780Y59686760D02*
X13555780Y59686760D01*
X11835780Y59726760D02*
X13445780Y59726760D01*
X11963780Y59766760D02*
X13317780Y59766760D01*
X12122780Y59806760D02*
X13158780Y59806760D01*
X12356780Y59846760D02*
X12924780Y59846760D01*
X11165780Y54440985D02*
X11165780Y54940985D01*
X10915780Y54690985D02*
X11415780Y54690985D01*
%TO.C,C10*%
X24075380Y57245760D02*
G75*
G03*
X24075380Y57245760I-2620000J0D01*
G01*
X22495380Y57245760D02*
X24035380Y57245760D01*
X18875380Y57245760D02*
X20415380Y57245760D01*
X22495380Y57285760D02*
X24035380Y57285760D01*
X18875380Y57285760D02*
X20415380Y57285760D01*
X18876380Y57325760D02*
X20415380Y57325760D01*
X22495380Y57325760D02*
X24034380Y57325760D01*
X18877380Y57365760D02*
X20415380Y57365760D01*
X22495380Y57365760D02*
X24033380Y57365760D01*
X18879380Y57405760D02*
X20415380Y57405760D01*
X22495380Y57405760D02*
X24031380Y57405760D01*
X18882380Y57445760D02*
X20415380Y57445760D01*
X22495380Y57445760D02*
X24028380Y57445760D01*
X18886380Y57485760D02*
X20415380Y57485760D01*
X22495380Y57485760D02*
X24024380Y57485760D01*
X18890380Y57525760D02*
X20415380Y57525760D01*
X22495380Y57525760D02*
X24020380Y57525760D01*
X18894380Y57565760D02*
X20415380Y57565760D01*
X22495380Y57565760D02*
X24016380Y57565760D01*
X18899380Y57605760D02*
X20415380Y57605760D01*
X22495380Y57605760D02*
X24011380Y57605760D01*
X18905380Y57645760D02*
X20415380Y57645760D01*
X22495380Y57645760D02*
X24005380Y57645760D01*
X18912380Y57685760D02*
X20415380Y57685760D01*
X22495380Y57685760D02*
X23998380Y57685760D01*
X18919380Y57725760D02*
X20415380Y57725760D01*
X22495380Y57725760D02*
X23991380Y57725760D01*
X18927380Y57765760D02*
X20415380Y57765760D01*
X22495380Y57765760D02*
X23983380Y57765760D01*
X18935380Y57805760D02*
X20415380Y57805760D01*
X22495380Y57805760D02*
X23975380Y57805760D01*
X18944380Y57845760D02*
X20415380Y57845760D01*
X22495380Y57845760D02*
X23966380Y57845760D01*
X18954380Y57885760D02*
X20415380Y57885760D01*
X22495380Y57885760D02*
X23956380Y57885760D01*
X18964380Y57925760D02*
X20415380Y57925760D01*
X22495380Y57925760D02*
X23946380Y57925760D01*
X18975380Y57966760D02*
X20415380Y57966760D01*
X22495380Y57966760D02*
X23935380Y57966760D01*
X18987380Y58006760D02*
X20415380Y58006760D01*
X22495380Y58006760D02*
X23923380Y58006760D01*
X19000380Y58046760D02*
X20415380Y58046760D01*
X22495380Y58046760D02*
X23910380Y58046760D01*
X19013380Y58086760D02*
X20415380Y58086760D01*
X22495380Y58086760D02*
X23897380Y58086760D01*
X19027380Y58126760D02*
X20415380Y58126760D01*
X22495380Y58126760D02*
X23883380Y58126760D01*
X19041380Y58166760D02*
X20415380Y58166760D01*
X22495380Y58166760D02*
X23869380Y58166760D01*
X19057380Y58206760D02*
X20415380Y58206760D01*
X22495380Y58206760D02*
X23853380Y58206760D01*
X19073380Y58246760D02*
X20415380Y58246760D01*
X22495380Y58246760D02*
X23837380Y58246760D01*
X19090380Y58286760D02*
X20415380Y58286760D01*
X22495380Y58286760D02*
X23820380Y58286760D01*
X19107380Y58326760D02*
X20415380Y58326760D01*
X22495380Y58326760D02*
X23803380Y58326760D01*
X19126380Y58366760D02*
X20415380Y58366760D01*
X22495380Y58366760D02*
X23784380Y58366760D01*
X19145380Y58406760D02*
X20415380Y58406760D01*
X22495380Y58406760D02*
X23765380Y58406760D01*
X19165380Y58446760D02*
X20415380Y58446760D01*
X22495380Y58446760D02*
X23745380Y58446760D01*
X19187380Y58486760D02*
X20415380Y58486760D01*
X22495380Y58486760D02*
X23723380Y58486760D01*
X19208380Y58526760D02*
X20415380Y58526760D01*
X22495380Y58526760D02*
X23702380Y58526760D01*
X19231380Y58566760D02*
X20415380Y58566760D01*
X22495380Y58566760D02*
X23679380Y58566760D01*
X19255380Y58606760D02*
X20415380Y58606760D01*
X22495380Y58606760D02*
X23655380Y58606760D01*
X19280380Y58646760D02*
X20415380Y58646760D01*
X22495380Y58646760D02*
X23630380Y58646760D01*
X19306380Y58686760D02*
X20415380Y58686760D01*
X22495380Y58686760D02*
X23604380Y58686760D01*
X19333380Y58726760D02*
X20415380Y58726760D01*
X22495380Y58726760D02*
X23577380Y58726760D01*
X19360380Y58766760D02*
X20415380Y58766760D01*
X22495380Y58766760D02*
X23550380Y58766760D01*
X19390380Y58806760D02*
X20415380Y58806760D01*
X22495380Y58806760D02*
X23520380Y58806760D01*
X19420380Y58846760D02*
X20415380Y58846760D01*
X22495380Y58846760D02*
X23490380Y58846760D01*
X19451380Y58886760D02*
X20415380Y58886760D01*
X22495380Y58886760D02*
X23459380Y58886760D01*
X19484380Y58926760D02*
X20415380Y58926760D01*
X22495380Y58926760D02*
X23426380Y58926760D01*
X19518380Y58966760D02*
X20415380Y58966760D01*
X22495380Y58966760D02*
X23392380Y58966760D01*
X19554380Y59006760D02*
X20415380Y59006760D01*
X22495380Y59006760D02*
X23356380Y59006760D01*
X19591380Y59046760D02*
X20415380Y59046760D01*
X22495380Y59046760D02*
X23319380Y59046760D01*
X19629380Y59086760D02*
X20415380Y59086760D01*
X22495380Y59086760D02*
X23281380Y59086760D01*
X19670380Y59126760D02*
X20415380Y59126760D01*
X22495380Y59126760D02*
X23240380Y59126760D01*
X19712380Y59166760D02*
X20415380Y59166760D01*
X22495380Y59166760D02*
X23198380Y59166760D01*
X19756380Y59206760D02*
X20415380Y59206760D01*
X22495380Y59206760D02*
X23154380Y59206760D01*
X19802380Y59246760D02*
X20415380Y59246760D01*
X22495380Y59246760D02*
X23108380Y59246760D01*
X19850380Y59286760D02*
X23060380Y59286760D01*
X19901380Y59326760D02*
X23009380Y59326760D01*
X19955380Y59366760D02*
X22955380Y59366760D01*
X20012380Y59406760D02*
X22898380Y59406760D01*
X20072380Y59446760D02*
X22838380Y59446760D01*
X20136380Y59486760D02*
X22774380Y59486760D01*
X20204380Y59526760D02*
X22706380Y59526760D01*
X20277380Y59566760D02*
X22633380Y59566760D01*
X20357380Y59606760D02*
X22553380Y59606760D01*
X20444380Y59646760D02*
X22466380Y59646760D01*
X20540380Y59686760D02*
X22370380Y59686760D01*
X20650380Y59726760D02*
X22260380Y59726760D01*
X20778380Y59766760D02*
X22132380Y59766760D01*
X20937380Y59806760D02*
X21973380Y59806760D01*
X21171380Y59846760D02*
X21739380Y59846760D01*
X19980380Y54440985D02*
X19980380Y54940985D01*
X19730380Y54690985D02*
X20230380Y54690985D01*
%TO.C,C9*%
X104727420Y29880644D02*
X104727420Y28676516D01*
X102907420Y29880644D02*
X102907420Y28676516D01*
%TO.C,C8*%
X136933856Y90323080D02*
X138137984Y90323080D01*
X136933856Y88503080D02*
X138137984Y88503080D01*
%TO.C,C7*%
X74075920Y86024080D02*
G75*
G03*
X74075920Y86024080I-5120000J0D01*
G01*
X74035920Y86024080D02*
X63875920Y86024080D01*
X74035920Y85984080D02*
X63875920Y85984080D01*
X74035920Y85944080D02*
X63875920Y85944080D01*
X74034920Y85904080D02*
X63876920Y85904080D01*
X74033920Y85864080D02*
X63877920Y85864080D01*
X74032920Y85824080D02*
X63878920Y85824080D01*
X74030920Y85784080D02*
X63880920Y85784080D01*
X74028920Y85744080D02*
X63882920Y85744080D01*
X74025920Y85704080D02*
X63885920Y85704080D01*
X74023920Y85664080D02*
X63887920Y85664080D01*
X74020920Y85624080D02*
X63890920Y85624080D01*
X74017920Y85584080D02*
X63893920Y85584080D01*
X74013920Y85544080D02*
X63897920Y85544080D01*
X74009920Y85504080D02*
X63901920Y85504080D01*
X74005920Y85464080D02*
X63905920Y85464080D01*
X74000920Y85424080D02*
X63910920Y85424080D01*
X73995920Y85384080D02*
X63915920Y85384080D01*
X73990920Y85344080D02*
X63920920Y85344080D01*
X73985920Y85303080D02*
X63925920Y85303080D01*
X73979920Y85263080D02*
X63931920Y85263080D01*
X73973920Y85223080D02*
X63937920Y85223080D01*
X73966920Y85183080D02*
X63944920Y85183080D01*
X73959920Y85143080D02*
X63951920Y85143080D01*
X73952920Y85103080D02*
X63958920Y85103080D01*
X73945920Y85063080D02*
X63965920Y85063080D01*
X73937920Y85023080D02*
X63973920Y85023080D01*
X73929920Y84983080D02*
X63981920Y84983080D01*
X73920920Y84943080D02*
X63990920Y84943080D01*
X73911920Y84903080D02*
X63999920Y84903080D01*
X73902920Y84863080D02*
X64008920Y84863080D01*
X73893920Y84823080D02*
X64017920Y84823080D01*
X73883920Y84783080D02*
X64027920Y84783080D01*
X73873920Y84743080D02*
X70196920Y84743080D01*
X67714920Y84743080D02*
X64037920Y84743080D01*
X73862920Y84703080D02*
X70196920Y84703080D01*
X67714920Y84703080D02*
X64048920Y84703080D01*
X73852920Y84663080D02*
X70196920Y84663080D01*
X67714920Y84663080D02*
X64058920Y84663080D01*
X73840920Y84623080D02*
X70196920Y84623080D01*
X67714920Y84623080D02*
X64070920Y84623080D01*
X73829920Y84583080D02*
X70196920Y84583080D01*
X67714920Y84583080D02*
X64081920Y84583080D01*
X73817920Y84543080D02*
X70196920Y84543080D01*
X67714920Y84543080D02*
X64093920Y84543080D01*
X73805920Y84503080D02*
X70196920Y84503080D01*
X67714920Y84503080D02*
X64105920Y84503080D01*
X73792920Y84463080D02*
X70196920Y84463080D01*
X67714920Y84463080D02*
X64118920Y84463080D01*
X73779920Y84423080D02*
X70196920Y84423080D01*
X67714920Y84423080D02*
X64131920Y84423080D01*
X73766920Y84383080D02*
X70196920Y84383080D01*
X67714920Y84383080D02*
X64144920Y84383080D01*
X73752920Y84343080D02*
X70196920Y84343080D01*
X67714920Y84343080D02*
X64158920Y84343080D01*
X73738920Y84303080D02*
X70196920Y84303080D01*
X67714920Y84303080D02*
X64172920Y84303080D01*
X73723920Y84263080D02*
X70196920Y84263080D01*
X67714920Y84263080D02*
X64187920Y84263080D01*
X73709920Y84223080D02*
X70196920Y84223080D01*
X67714920Y84223080D02*
X64201920Y84223080D01*
X73693920Y84183080D02*
X70196920Y84183080D01*
X67714920Y84183080D02*
X64217920Y84183080D01*
X73678920Y84143080D02*
X70196920Y84143080D01*
X67714920Y84143080D02*
X64232920Y84143080D01*
X73662920Y84103080D02*
X70196920Y84103080D01*
X67714920Y84103080D02*
X64248920Y84103080D01*
X73645920Y84063080D02*
X70196920Y84063080D01*
X67714920Y84063080D02*
X64265920Y84063080D01*
X73629920Y84023080D02*
X70196920Y84023080D01*
X67714920Y84023080D02*
X64281920Y84023080D01*
X73612920Y83983080D02*
X70196920Y83983080D01*
X67714920Y83983080D02*
X64298920Y83983080D01*
X73594920Y83943080D02*
X70196920Y83943080D01*
X67714920Y83943080D02*
X64316920Y83943080D01*
X73576920Y83903080D02*
X70196920Y83903080D01*
X67714920Y83903080D02*
X64334920Y83903080D01*
X73558920Y83863080D02*
X70196920Y83863080D01*
X67714920Y83863080D02*
X64352920Y83863080D01*
X73539920Y83823080D02*
X70196920Y83823080D01*
X67714920Y83823080D02*
X64371920Y83823080D01*
X73519920Y83783080D02*
X70196920Y83783080D01*
X67714920Y83783080D02*
X64391920Y83783080D01*
X73500920Y83743080D02*
X70196920Y83743080D01*
X67714920Y83743080D02*
X64410920Y83743080D01*
X73480920Y83703080D02*
X70196920Y83703080D01*
X67714920Y83703080D02*
X64430920Y83703080D01*
X73459920Y83663080D02*
X70196920Y83663080D01*
X67714920Y83663080D02*
X64451920Y83663080D01*
X73438920Y83623080D02*
X70196920Y83623080D01*
X67714920Y83623080D02*
X64472920Y83623080D01*
X73417920Y83583080D02*
X70196920Y83583080D01*
X67714920Y83583080D02*
X64493920Y83583080D01*
X73395920Y83543080D02*
X70196920Y83543080D01*
X67714920Y83543080D02*
X64515920Y83543080D01*
X73372920Y83503080D02*
X70196920Y83503080D01*
X67714920Y83503080D02*
X64538920Y83503080D01*
X73350920Y83463080D02*
X70196920Y83463080D01*
X67714920Y83463080D02*
X64560920Y83463080D01*
X73326920Y83423080D02*
X70196920Y83423080D01*
X67714920Y83423080D02*
X64584920Y83423080D01*
X73302920Y83383080D02*
X70196920Y83383080D01*
X67714920Y83383080D02*
X64608920Y83383080D01*
X73278920Y83343080D02*
X70196920Y83343080D01*
X67714920Y83343080D02*
X64632920Y83343080D01*
X73253920Y83303080D02*
X70196920Y83303080D01*
X67714920Y83303080D02*
X64657920Y83303080D01*
X73228920Y83263080D02*
X70196920Y83263080D01*
X67714920Y83263080D02*
X64682920Y83263080D01*
X73202920Y83223080D02*
X70196920Y83223080D01*
X67714920Y83223080D02*
X64708920Y83223080D01*
X73176920Y83183080D02*
X70196920Y83183080D01*
X67714920Y83183080D02*
X64734920Y83183080D01*
X73149920Y83143080D02*
X70196920Y83143080D01*
X67714920Y83143080D02*
X64761920Y83143080D01*
X73121920Y83103080D02*
X70196920Y83103080D01*
X67714920Y83103080D02*
X64789920Y83103080D01*
X73093920Y83063080D02*
X70196920Y83063080D01*
X67714920Y83063080D02*
X64817920Y83063080D01*
X73065920Y83023080D02*
X70196920Y83023080D01*
X67714920Y83023080D02*
X64845920Y83023080D01*
X73035920Y82983080D02*
X70196920Y82983080D01*
X67714920Y82983080D02*
X64875920Y82983080D01*
X73005920Y82943080D02*
X70196920Y82943080D01*
X67714920Y82943080D02*
X64905920Y82943080D01*
X72975920Y82903080D02*
X70196920Y82903080D01*
X67714920Y82903080D02*
X64935920Y82903080D01*
X72944920Y82863080D02*
X70196920Y82863080D01*
X67714920Y82863080D02*
X64966920Y82863080D01*
X72912920Y82823080D02*
X70196920Y82823080D01*
X67714920Y82823080D02*
X64998920Y82823080D01*
X72880920Y82783080D02*
X70196920Y82783080D01*
X67714920Y82783080D02*
X65030920Y82783080D01*
X72847920Y82743080D02*
X70196920Y82743080D01*
X67714920Y82743080D02*
X65063920Y82743080D01*
X72813920Y82703080D02*
X70196920Y82703080D01*
X67714920Y82703080D02*
X65097920Y82703080D01*
X72779920Y82663080D02*
X70196920Y82663080D01*
X67714920Y82663080D02*
X65131920Y82663080D01*
X72744920Y82623080D02*
X70196920Y82623080D01*
X67714920Y82623080D02*
X65166920Y82623080D01*
X72708920Y82583080D02*
X70196920Y82583080D01*
X67714920Y82583080D02*
X65202920Y82583080D01*
X72671920Y82543080D02*
X70196920Y82543080D01*
X67714920Y82543080D02*
X65239920Y82543080D01*
X72634920Y82503080D02*
X70196920Y82503080D01*
X67714920Y82503080D02*
X65276920Y82503080D01*
X72595920Y82463080D02*
X70196920Y82463080D01*
X67714920Y82463080D02*
X65315920Y82463080D01*
X72556920Y82423080D02*
X70196920Y82423080D01*
X67714920Y82423080D02*
X65354920Y82423080D01*
X72516920Y82383080D02*
X70196920Y82383080D01*
X67714920Y82383080D02*
X65394920Y82383080D01*
X72475920Y82343080D02*
X70196920Y82343080D01*
X67714920Y82343080D02*
X65435920Y82343080D01*
X72433920Y82303080D02*
X70196920Y82303080D01*
X67714920Y82303080D02*
X65477920Y82303080D01*
X72391920Y82263080D02*
X65519920Y82263080D01*
X72347920Y82223080D02*
X65563920Y82223080D01*
X72302920Y82183080D02*
X65608920Y82183080D01*
X72256920Y82143080D02*
X65654920Y82143080D01*
X72209920Y82103080D02*
X65701920Y82103080D01*
X72161920Y82063080D02*
X65749920Y82063080D01*
X72111920Y82023080D02*
X65799920Y82023080D01*
X72061920Y81983080D02*
X65849920Y81983080D01*
X72009920Y81943080D02*
X65901920Y81943080D01*
X71955920Y81903080D02*
X65955920Y81903080D01*
X71900920Y81863080D02*
X66010920Y81863080D01*
X71844920Y81823080D02*
X66066920Y81823080D01*
X71785920Y81783080D02*
X66125920Y81783080D01*
X71725920Y81743080D02*
X66185920Y81743080D01*
X71664920Y81703080D02*
X66246920Y81703080D01*
X71600920Y81663080D02*
X66310920Y81663080D01*
X71534920Y81623080D02*
X66376920Y81623080D01*
X71465920Y81583080D02*
X66445920Y81583080D01*
X71394920Y81543080D02*
X66516920Y81543080D01*
X71320920Y81503080D02*
X66590920Y81503080D01*
X71244920Y81463080D02*
X66666920Y81463080D01*
X71164920Y81423080D02*
X66746920Y81423080D01*
X71080920Y81383080D02*
X66830920Y81383080D01*
X70992920Y81343080D02*
X66918920Y81343080D01*
X70899920Y81303080D02*
X67011920Y81303080D01*
X70801920Y81263080D02*
X67109920Y81263080D01*
X70697920Y81223080D02*
X67213920Y81223080D01*
X70585920Y81183080D02*
X67325920Y81183080D01*
X70465920Y81143080D02*
X67445920Y81143080D01*
X70333920Y81103080D02*
X67577920Y81103080D01*
X70185920Y81063080D02*
X67725920Y81063080D01*
X70017920Y81023080D02*
X67893920Y81023080D01*
X69817920Y80983080D02*
X68093920Y80983080D01*
X69554920Y80943080D02*
X68356920Y80943080D01*
X71830920Y91503726D02*
X71830920Y90503726D01*
X72330920Y91003726D02*
X71330920Y91003726D01*
%TO.C,C6*%
X61645920Y127651016D02*
X61645920Y128855144D01*
X63465920Y127651016D02*
X63465920Y128855144D01*
%TO.C,C5*%
X25924500Y99331020D02*
G75*
G03*
X25924500Y99331020I-2620000J0D01*
G01*
X24344500Y99331020D02*
X25884500Y99331020D01*
X20724500Y99331020D02*
X22264500Y99331020D01*
X24344500Y99371020D02*
X25884500Y99371020D01*
X20724500Y99371020D02*
X22264500Y99371020D01*
X20725500Y99411020D02*
X22264500Y99411020D01*
X24344500Y99411020D02*
X25883500Y99411020D01*
X20726500Y99451020D02*
X22264500Y99451020D01*
X24344500Y99451020D02*
X25882500Y99451020D01*
X20728500Y99491020D02*
X22264500Y99491020D01*
X24344500Y99491020D02*
X25880500Y99491020D01*
X20731500Y99531020D02*
X22264500Y99531020D01*
X24344500Y99531020D02*
X25877500Y99531020D01*
X20735500Y99571020D02*
X22264500Y99571020D01*
X24344500Y99571020D02*
X25873500Y99571020D01*
X20739500Y99611020D02*
X22264500Y99611020D01*
X24344500Y99611020D02*
X25869500Y99611020D01*
X20743500Y99651020D02*
X22264500Y99651020D01*
X24344500Y99651020D02*
X25865500Y99651020D01*
X20748500Y99691020D02*
X22264500Y99691020D01*
X24344500Y99691020D02*
X25860500Y99691020D01*
X20754500Y99731020D02*
X22264500Y99731020D01*
X24344500Y99731020D02*
X25854500Y99731020D01*
X20761500Y99771020D02*
X22264500Y99771020D01*
X24344500Y99771020D02*
X25847500Y99771020D01*
X20768500Y99811020D02*
X22264500Y99811020D01*
X24344500Y99811020D02*
X25840500Y99811020D01*
X20776500Y99851020D02*
X22264500Y99851020D01*
X24344500Y99851020D02*
X25832500Y99851020D01*
X20784500Y99891020D02*
X22264500Y99891020D01*
X24344500Y99891020D02*
X25824500Y99891020D01*
X20793500Y99931020D02*
X22264500Y99931020D01*
X24344500Y99931020D02*
X25815500Y99931020D01*
X20803500Y99971020D02*
X22264500Y99971020D01*
X24344500Y99971020D02*
X25805500Y99971020D01*
X20813500Y100011020D02*
X22264500Y100011020D01*
X24344500Y100011020D02*
X25795500Y100011020D01*
X20824500Y100052020D02*
X22264500Y100052020D01*
X24344500Y100052020D02*
X25784500Y100052020D01*
X20836500Y100092020D02*
X22264500Y100092020D01*
X24344500Y100092020D02*
X25772500Y100092020D01*
X20849500Y100132020D02*
X22264500Y100132020D01*
X24344500Y100132020D02*
X25759500Y100132020D01*
X20862500Y100172020D02*
X22264500Y100172020D01*
X24344500Y100172020D02*
X25746500Y100172020D01*
X20876500Y100212020D02*
X22264500Y100212020D01*
X24344500Y100212020D02*
X25732500Y100212020D01*
X20890500Y100252020D02*
X22264500Y100252020D01*
X24344500Y100252020D02*
X25718500Y100252020D01*
X20906500Y100292020D02*
X22264500Y100292020D01*
X24344500Y100292020D02*
X25702500Y100292020D01*
X20922500Y100332020D02*
X22264500Y100332020D01*
X24344500Y100332020D02*
X25686500Y100332020D01*
X20939500Y100372020D02*
X22264500Y100372020D01*
X24344500Y100372020D02*
X25669500Y100372020D01*
X20956500Y100412020D02*
X22264500Y100412020D01*
X24344500Y100412020D02*
X25652500Y100412020D01*
X20975500Y100452020D02*
X22264500Y100452020D01*
X24344500Y100452020D02*
X25633500Y100452020D01*
X20994500Y100492020D02*
X22264500Y100492020D01*
X24344500Y100492020D02*
X25614500Y100492020D01*
X21014500Y100532020D02*
X22264500Y100532020D01*
X24344500Y100532020D02*
X25594500Y100532020D01*
X21036500Y100572020D02*
X22264500Y100572020D01*
X24344500Y100572020D02*
X25572500Y100572020D01*
X21057500Y100612020D02*
X22264500Y100612020D01*
X24344500Y100612020D02*
X25551500Y100612020D01*
X21080500Y100652020D02*
X22264500Y100652020D01*
X24344500Y100652020D02*
X25528500Y100652020D01*
X21104500Y100692020D02*
X22264500Y100692020D01*
X24344500Y100692020D02*
X25504500Y100692020D01*
X21129500Y100732020D02*
X22264500Y100732020D01*
X24344500Y100732020D02*
X25479500Y100732020D01*
X21155500Y100772020D02*
X22264500Y100772020D01*
X24344500Y100772020D02*
X25453500Y100772020D01*
X21182500Y100812020D02*
X22264500Y100812020D01*
X24344500Y100812020D02*
X25426500Y100812020D01*
X21209500Y100852020D02*
X22264500Y100852020D01*
X24344500Y100852020D02*
X25399500Y100852020D01*
X21239500Y100892020D02*
X22264500Y100892020D01*
X24344500Y100892020D02*
X25369500Y100892020D01*
X21269500Y100932020D02*
X22264500Y100932020D01*
X24344500Y100932020D02*
X25339500Y100932020D01*
X21300500Y100972020D02*
X22264500Y100972020D01*
X24344500Y100972020D02*
X25308500Y100972020D01*
X21333500Y101012020D02*
X22264500Y101012020D01*
X24344500Y101012020D02*
X25275500Y101012020D01*
X21367500Y101052020D02*
X22264500Y101052020D01*
X24344500Y101052020D02*
X25241500Y101052020D01*
X21403500Y101092020D02*
X22264500Y101092020D01*
X24344500Y101092020D02*
X25205500Y101092020D01*
X21440500Y101132020D02*
X22264500Y101132020D01*
X24344500Y101132020D02*
X25168500Y101132020D01*
X21478500Y101172020D02*
X22264500Y101172020D01*
X24344500Y101172020D02*
X25130500Y101172020D01*
X21519500Y101212020D02*
X22264500Y101212020D01*
X24344500Y101212020D02*
X25089500Y101212020D01*
X21561500Y101252020D02*
X22264500Y101252020D01*
X24344500Y101252020D02*
X25047500Y101252020D01*
X21605500Y101292020D02*
X22264500Y101292020D01*
X24344500Y101292020D02*
X25003500Y101292020D01*
X21651500Y101332020D02*
X22264500Y101332020D01*
X24344500Y101332020D02*
X24957500Y101332020D01*
X21699500Y101372020D02*
X24909500Y101372020D01*
X21750500Y101412020D02*
X24858500Y101412020D01*
X21804500Y101452020D02*
X24804500Y101452020D01*
X21861500Y101492020D02*
X24747500Y101492020D01*
X21921500Y101532020D02*
X24687500Y101532020D01*
X21985500Y101572020D02*
X24623500Y101572020D01*
X22053500Y101612020D02*
X24555500Y101612020D01*
X22126500Y101652020D02*
X24482500Y101652020D01*
X22206500Y101692020D02*
X24402500Y101692020D01*
X22293500Y101732020D02*
X24315500Y101732020D01*
X22389500Y101772020D02*
X24219500Y101772020D01*
X22499500Y101812020D02*
X24109500Y101812020D01*
X22627500Y101852020D02*
X23981500Y101852020D01*
X22786500Y101892020D02*
X23822500Y101892020D01*
X23020500Y101932020D02*
X23588500Y101932020D01*
X21829500Y96526245D02*
X21829500Y97026245D01*
X21579500Y96776245D02*
X22079500Y96776245D01*
%TO.C,C4*%
X17034500Y99331020D02*
G75*
G03*
X17034500Y99331020I-2620000J0D01*
G01*
X15454500Y99331020D02*
X16994500Y99331020D01*
X11834500Y99331020D02*
X13374500Y99331020D01*
X15454500Y99371020D02*
X16994500Y99371020D01*
X11834500Y99371020D02*
X13374500Y99371020D01*
X11835500Y99411020D02*
X13374500Y99411020D01*
X15454500Y99411020D02*
X16993500Y99411020D01*
X11836500Y99451020D02*
X13374500Y99451020D01*
X15454500Y99451020D02*
X16992500Y99451020D01*
X11838500Y99491020D02*
X13374500Y99491020D01*
X15454500Y99491020D02*
X16990500Y99491020D01*
X11841500Y99531020D02*
X13374500Y99531020D01*
X15454500Y99531020D02*
X16987500Y99531020D01*
X11845500Y99571020D02*
X13374500Y99571020D01*
X15454500Y99571020D02*
X16983500Y99571020D01*
X11849500Y99611020D02*
X13374500Y99611020D01*
X15454500Y99611020D02*
X16979500Y99611020D01*
X11853500Y99651020D02*
X13374500Y99651020D01*
X15454500Y99651020D02*
X16975500Y99651020D01*
X11858500Y99691020D02*
X13374500Y99691020D01*
X15454500Y99691020D02*
X16970500Y99691020D01*
X11864500Y99731020D02*
X13374500Y99731020D01*
X15454500Y99731020D02*
X16964500Y99731020D01*
X11871500Y99771020D02*
X13374500Y99771020D01*
X15454500Y99771020D02*
X16957500Y99771020D01*
X11878500Y99811020D02*
X13374500Y99811020D01*
X15454500Y99811020D02*
X16950500Y99811020D01*
X11886500Y99851020D02*
X13374500Y99851020D01*
X15454500Y99851020D02*
X16942500Y99851020D01*
X11894500Y99891020D02*
X13374500Y99891020D01*
X15454500Y99891020D02*
X16934500Y99891020D01*
X11903500Y99931020D02*
X13374500Y99931020D01*
X15454500Y99931020D02*
X16925500Y99931020D01*
X11913500Y99971020D02*
X13374500Y99971020D01*
X15454500Y99971020D02*
X16915500Y99971020D01*
X11923500Y100011020D02*
X13374500Y100011020D01*
X15454500Y100011020D02*
X16905500Y100011020D01*
X11934500Y100052020D02*
X13374500Y100052020D01*
X15454500Y100052020D02*
X16894500Y100052020D01*
X11946500Y100092020D02*
X13374500Y100092020D01*
X15454500Y100092020D02*
X16882500Y100092020D01*
X11959500Y100132020D02*
X13374500Y100132020D01*
X15454500Y100132020D02*
X16869500Y100132020D01*
X11972500Y100172020D02*
X13374500Y100172020D01*
X15454500Y100172020D02*
X16856500Y100172020D01*
X11986500Y100212020D02*
X13374500Y100212020D01*
X15454500Y100212020D02*
X16842500Y100212020D01*
X12000500Y100252020D02*
X13374500Y100252020D01*
X15454500Y100252020D02*
X16828500Y100252020D01*
X12016500Y100292020D02*
X13374500Y100292020D01*
X15454500Y100292020D02*
X16812500Y100292020D01*
X12032500Y100332020D02*
X13374500Y100332020D01*
X15454500Y100332020D02*
X16796500Y100332020D01*
X12049500Y100372020D02*
X13374500Y100372020D01*
X15454500Y100372020D02*
X16779500Y100372020D01*
X12066500Y100412020D02*
X13374500Y100412020D01*
X15454500Y100412020D02*
X16762500Y100412020D01*
X12085500Y100452020D02*
X13374500Y100452020D01*
X15454500Y100452020D02*
X16743500Y100452020D01*
X12104500Y100492020D02*
X13374500Y100492020D01*
X15454500Y100492020D02*
X16724500Y100492020D01*
X12124500Y100532020D02*
X13374500Y100532020D01*
X15454500Y100532020D02*
X16704500Y100532020D01*
X12146500Y100572020D02*
X13374500Y100572020D01*
X15454500Y100572020D02*
X16682500Y100572020D01*
X12167500Y100612020D02*
X13374500Y100612020D01*
X15454500Y100612020D02*
X16661500Y100612020D01*
X12190500Y100652020D02*
X13374500Y100652020D01*
X15454500Y100652020D02*
X16638500Y100652020D01*
X12214500Y100692020D02*
X13374500Y100692020D01*
X15454500Y100692020D02*
X16614500Y100692020D01*
X12239500Y100732020D02*
X13374500Y100732020D01*
X15454500Y100732020D02*
X16589500Y100732020D01*
X12265500Y100772020D02*
X13374500Y100772020D01*
X15454500Y100772020D02*
X16563500Y100772020D01*
X12292500Y100812020D02*
X13374500Y100812020D01*
X15454500Y100812020D02*
X16536500Y100812020D01*
X12319500Y100852020D02*
X13374500Y100852020D01*
X15454500Y100852020D02*
X16509500Y100852020D01*
X12349500Y100892020D02*
X13374500Y100892020D01*
X15454500Y100892020D02*
X16479500Y100892020D01*
X12379500Y100932020D02*
X13374500Y100932020D01*
X15454500Y100932020D02*
X16449500Y100932020D01*
X12410500Y100972020D02*
X13374500Y100972020D01*
X15454500Y100972020D02*
X16418500Y100972020D01*
X12443500Y101012020D02*
X13374500Y101012020D01*
X15454500Y101012020D02*
X16385500Y101012020D01*
X12477500Y101052020D02*
X13374500Y101052020D01*
X15454500Y101052020D02*
X16351500Y101052020D01*
X12513500Y101092020D02*
X13374500Y101092020D01*
X15454500Y101092020D02*
X16315500Y101092020D01*
X12550500Y101132020D02*
X13374500Y101132020D01*
X15454500Y101132020D02*
X16278500Y101132020D01*
X12588500Y101172020D02*
X13374500Y101172020D01*
X15454500Y101172020D02*
X16240500Y101172020D01*
X12629500Y101212020D02*
X13374500Y101212020D01*
X15454500Y101212020D02*
X16199500Y101212020D01*
X12671500Y101252020D02*
X13374500Y101252020D01*
X15454500Y101252020D02*
X16157500Y101252020D01*
X12715500Y101292020D02*
X13374500Y101292020D01*
X15454500Y101292020D02*
X16113500Y101292020D01*
X12761500Y101332020D02*
X13374500Y101332020D01*
X15454500Y101332020D02*
X16067500Y101332020D01*
X12809500Y101372020D02*
X16019500Y101372020D01*
X12860500Y101412020D02*
X15968500Y101412020D01*
X12914500Y101452020D02*
X15914500Y101452020D01*
X12971500Y101492020D02*
X15857500Y101492020D01*
X13031500Y101532020D02*
X15797500Y101532020D01*
X13095500Y101572020D02*
X15733500Y101572020D01*
X13163500Y101612020D02*
X15665500Y101612020D01*
X13236500Y101652020D02*
X15592500Y101652020D01*
X13316500Y101692020D02*
X15512500Y101692020D01*
X13403500Y101732020D02*
X15425500Y101732020D01*
X13499500Y101772020D02*
X15329500Y101772020D01*
X13609500Y101812020D02*
X15219500Y101812020D01*
X13737500Y101852020D02*
X15091500Y101852020D01*
X13896500Y101892020D02*
X14932500Y101892020D01*
X14130500Y101932020D02*
X14698500Y101932020D01*
X12939500Y96526245D02*
X12939500Y97026245D01*
X12689500Y96776245D02*
X13189500Y96776245D01*
%TO.C,C3*%
X25924500Y90981020D02*
G75*
G03*
X25924500Y90981020I-2620000J0D01*
G01*
X22264500Y90981020D02*
X20724500Y90981020D01*
X25884500Y90981020D02*
X24344500Y90981020D01*
X22264500Y90941020D02*
X20724500Y90941020D01*
X25884500Y90941020D02*
X24344500Y90941020D01*
X25883500Y90901020D02*
X24344500Y90901020D01*
X22264500Y90901020D02*
X20725500Y90901020D01*
X25882500Y90861020D02*
X24344500Y90861020D01*
X22264500Y90861020D02*
X20726500Y90861020D01*
X25880500Y90821020D02*
X24344500Y90821020D01*
X22264500Y90821020D02*
X20728500Y90821020D01*
X25877500Y90781020D02*
X24344500Y90781020D01*
X22264500Y90781020D02*
X20731500Y90781020D01*
X25873500Y90741020D02*
X24344500Y90741020D01*
X22264500Y90741020D02*
X20735500Y90741020D01*
X25869500Y90701020D02*
X24344500Y90701020D01*
X22264500Y90701020D02*
X20739500Y90701020D01*
X25865500Y90661020D02*
X24344500Y90661020D01*
X22264500Y90661020D02*
X20743500Y90661020D01*
X25860500Y90621020D02*
X24344500Y90621020D01*
X22264500Y90621020D02*
X20748500Y90621020D01*
X25854500Y90581020D02*
X24344500Y90581020D01*
X22264500Y90581020D02*
X20754500Y90581020D01*
X25847500Y90541020D02*
X24344500Y90541020D01*
X22264500Y90541020D02*
X20761500Y90541020D01*
X25840500Y90501020D02*
X24344500Y90501020D01*
X22264500Y90501020D02*
X20768500Y90501020D01*
X25832500Y90461020D02*
X24344500Y90461020D01*
X22264500Y90461020D02*
X20776500Y90461020D01*
X25824500Y90421020D02*
X24344500Y90421020D01*
X22264500Y90421020D02*
X20784500Y90421020D01*
X25815500Y90381020D02*
X24344500Y90381020D01*
X22264500Y90381020D02*
X20793500Y90381020D01*
X25805500Y90341020D02*
X24344500Y90341020D01*
X22264500Y90341020D02*
X20803500Y90341020D01*
X25795500Y90301020D02*
X24344500Y90301020D01*
X22264500Y90301020D02*
X20813500Y90301020D01*
X25784500Y90260020D02*
X24344500Y90260020D01*
X22264500Y90260020D02*
X20824500Y90260020D01*
X25772500Y90220020D02*
X24344500Y90220020D01*
X22264500Y90220020D02*
X20836500Y90220020D01*
X25759500Y90180020D02*
X24344500Y90180020D01*
X22264500Y90180020D02*
X20849500Y90180020D01*
X25746500Y90140020D02*
X24344500Y90140020D01*
X22264500Y90140020D02*
X20862500Y90140020D01*
X25732500Y90100020D02*
X24344500Y90100020D01*
X22264500Y90100020D02*
X20876500Y90100020D01*
X25718500Y90060020D02*
X24344500Y90060020D01*
X22264500Y90060020D02*
X20890500Y90060020D01*
X25702500Y90020020D02*
X24344500Y90020020D01*
X22264500Y90020020D02*
X20906500Y90020020D01*
X25686500Y89980020D02*
X24344500Y89980020D01*
X22264500Y89980020D02*
X20922500Y89980020D01*
X25669500Y89940020D02*
X24344500Y89940020D01*
X22264500Y89940020D02*
X20939500Y89940020D01*
X25652500Y89900020D02*
X24344500Y89900020D01*
X22264500Y89900020D02*
X20956500Y89900020D01*
X25633500Y89860020D02*
X24344500Y89860020D01*
X22264500Y89860020D02*
X20975500Y89860020D01*
X25614500Y89820020D02*
X24344500Y89820020D01*
X22264500Y89820020D02*
X20994500Y89820020D01*
X25594500Y89780020D02*
X24344500Y89780020D01*
X22264500Y89780020D02*
X21014500Y89780020D01*
X25572500Y89740020D02*
X24344500Y89740020D01*
X22264500Y89740020D02*
X21036500Y89740020D01*
X25551500Y89700020D02*
X24344500Y89700020D01*
X22264500Y89700020D02*
X21057500Y89700020D01*
X25528500Y89660020D02*
X24344500Y89660020D01*
X22264500Y89660020D02*
X21080500Y89660020D01*
X25504500Y89620020D02*
X24344500Y89620020D01*
X22264500Y89620020D02*
X21104500Y89620020D01*
X25479500Y89580020D02*
X24344500Y89580020D01*
X22264500Y89580020D02*
X21129500Y89580020D01*
X25453500Y89540020D02*
X24344500Y89540020D01*
X22264500Y89540020D02*
X21155500Y89540020D01*
X25426500Y89500020D02*
X24344500Y89500020D01*
X22264500Y89500020D02*
X21182500Y89500020D01*
X25399500Y89460020D02*
X24344500Y89460020D01*
X22264500Y89460020D02*
X21209500Y89460020D01*
X25369500Y89420020D02*
X24344500Y89420020D01*
X22264500Y89420020D02*
X21239500Y89420020D01*
X25339500Y89380020D02*
X24344500Y89380020D01*
X22264500Y89380020D02*
X21269500Y89380020D01*
X25308500Y89340020D02*
X24344500Y89340020D01*
X22264500Y89340020D02*
X21300500Y89340020D01*
X25275500Y89300020D02*
X24344500Y89300020D01*
X22264500Y89300020D02*
X21333500Y89300020D01*
X25241500Y89260020D02*
X24344500Y89260020D01*
X22264500Y89260020D02*
X21367500Y89260020D01*
X25205500Y89220020D02*
X24344500Y89220020D01*
X22264500Y89220020D02*
X21403500Y89220020D01*
X25168500Y89180020D02*
X24344500Y89180020D01*
X22264500Y89180020D02*
X21440500Y89180020D01*
X25130500Y89140020D02*
X24344500Y89140020D01*
X22264500Y89140020D02*
X21478500Y89140020D01*
X25089500Y89100020D02*
X24344500Y89100020D01*
X22264500Y89100020D02*
X21519500Y89100020D01*
X25047500Y89060020D02*
X24344500Y89060020D01*
X22264500Y89060020D02*
X21561500Y89060020D01*
X25003500Y89020020D02*
X24344500Y89020020D01*
X22264500Y89020020D02*
X21605500Y89020020D01*
X24957500Y88980020D02*
X24344500Y88980020D01*
X22264500Y88980020D02*
X21651500Y88980020D01*
X24909500Y88940020D02*
X21699500Y88940020D01*
X24858500Y88900020D02*
X21750500Y88900020D01*
X24804500Y88860020D02*
X21804500Y88860020D01*
X24747500Y88820020D02*
X21861500Y88820020D01*
X24687500Y88780020D02*
X21921500Y88780020D01*
X24623500Y88740020D02*
X21985500Y88740020D01*
X24555500Y88700020D02*
X22053500Y88700020D01*
X24482500Y88660020D02*
X22126500Y88660020D01*
X24402500Y88620020D02*
X22206500Y88620020D01*
X24315500Y88580020D02*
X22293500Y88580020D01*
X24219500Y88540020D02*
X22389500Y88540020D01*
X24109500Y88500020D02*
X22499500Y88500020D01*
X23981500Y88460020D02*
X22627500Y88460020D01*
X23822500Y88420020D02*
X22786500Y88420020D01*
X23588500Y88380020D02*
X23020500Y88380020D01*
X24779500Y93785795D02*
X24779500Y93285795D01*
X25029500Y93535795D02*
X24529500Y93535795D01*
%TO.C,C2*%
X17034500Y90981020D02*
G75*
G03*
X17034500Y90981020I-2620000J0D01*
G01*
X13374500Y90981020D02*
X11834500Y90981020D01*
X16994500Y90981020D02*
X15454500Y90981020D01*
X13374500Y90941020D02*
X11834500Y90941020D01*
X16994500Y90941020D02*
X15454500Y90941020D01*
X16993500Y90901020D02*
X15454500Y90901020D01*
X13374500Y90901020D02*
X11835500Y90901020D01*
X16992500Y90861020D02*
X15454500Y90861020D01*
X13374500Y90861020D02*
X11836500Y90861020D01*
X16990500Y90821020D02*
X15454500Y90821020D01*
X13374500Y90821020D02*
X11838500Y90821020D01*
X16987500Y90781020D02*
X15454500Y90781020D01*
X13374500Y90781020D02*
X11841500Y90781020D01*
X16983500Y90741020D02*
X15454500Y90741020D01*
X13374500Y90741020D02*
X11845500Y90741020D01*
X16979500Y90701020D02*
X15454500Y90701020D01*
X13374500Y90701020D02*
X11849500Y90701020D01*
X16975500Y90661020D02*
X15454500Y90661020D01*
X13374500Y90661020D02*
X11853500Y90661020D01*
X16970500Y90621020D02*
X15454500Y90621020D01*
X13374500Y90621020D02*
X11858500Y90621020D01*
X16964500Y90581020D02*
X15454500Y90581020D01*
X13374500Y90581020D02*
X11864500Y90581020D01*
X16957500Y90541020D02*
X15454500Y90541020D01*
X13374500Y90541020D02*
X11871500Y90541020D01*
X16950500Y90501020D02*
X15454500Y90501020D01*
X13374500Y90501020D02*
X11878500Y90501020D01*
X16942500Y90461020D02*
X15454500Y90461020D01*
X13374500Y90461020D02*
X11886500Y90461020D01*
X16934500Y90421020D02*
X15454500Y90421020D01*
X13374500Y90421020D02*
X11894500Y90421020D01*
X16925500Y90381020D02*
X15454500Y90381020D01*
X13374500Y90381020D02*
X11903500Y90381020D01*
X16915500Y90341020D02*
X15454500Y90341020D01*
X13374500Y90341020D02*
X11913500Y90341020D01*
X16905500Y90301020D02*
X15454500Y90301020D01*
X13374500Y90301020D02*
X11923500Y90301020D01*
X16894500Y90260020D02*
X15454500Y90260020D01*
X13374500Y90260020D02*
X11934500Y90260020D01*
X16882500Y90220020D02*
X15454500Y90220020D01*
X13374500Y90220020D02*
X11946500Y90220020D01*
X16869500Y90180020D02*
X15454500Y90180020D01*
X13374500Y90180020D02*
X11959500Y90180020D01*
X16856500Y90140020D02*
X15454500Y90140020D01*
X13374500Y90140020D02*
X11972500Y90140020D01*
X16842500Y90100020D02*
X15454500Y90100020D01*
X13374500Y90100020D02*
X11986500Y90100020D01*
X16828500Y90060020D02*
X15454500Y90060020D01*
X13374500Y90060020D02*
X12000500Y90060020D01*
X16812500Y90020020D02*
X15454500Y90020020D01*
X13374500Y90020020D02*
X12016500Y90020020D01*
X16796500Y89980020D02*
X15454500Y89980020D01*
X13374500Y89980020D02*
X12032500Y89980020D01*
X16779500Y89940020D02*
X15454500Y89940020D01*
X13374500Y89940020D02*
X12049500Y89940020D01*
X16762500Y89900020D02*
X15454500Y89900020D01*
X13374500Y89900020D02*
X12066500Y89900020D01*
X16743500Y89860020D02*
X15454500Y89860020D01*
X13374500Y89860020D02*
X12085500Y89860020D01*
X16724500Y89820020D02*
X15454500Y89820020D01*
X13374500Y89820020D02*
X12104500Y89820020D01*
X16704500Y89780020D02*
X15454500Y89780020D01*
X13374500Y89780020D02*
X12124500Y89780020D01*
X16682500Y89740020D02*
X15454500Y89740020D01*
X13374500Y89740020D02*
X12146500Y89740020D01*
X16661500Y89700020D02*
X15454500Y89700020D01*
X13374500Y89700020D02*
X12167500Y89700020D01*
X16638500Y89660020D02*
X15454500Y89660020D01*
X13374500Y89660020D02*
X12190500Y89660020D01*
X16614500Y89620020D02*
X15454500Y89620020D01*
X13374500Y89620020D02*
X12214500Y89620020D01*
X16589500Y89580020D02*
X15454500Y89580020D01*
X13374500Y89580020D02*
X12239500Y89580020D01*
X16563500Y89540020D02*
X15454500Y89540020D01*
X13374500Y89540020D02*
X12265500Y89540020D01*
X16536500Y89500020D02*
X15454500Y89500020D01*
X13374500Y89500020D02*
X12292500Y89500020D01*
X16509500Y89460020D02*
X15454500Y89460020D01*
X13374500Y89460020D02*
X12319500Y89460020D01*
X16479500Y89420020D02*
X15454500Y89420020D01*
X13374500Y89420020D02*
X12349500Y89420020D01*
X16449500Y89380020D02*
X15454500Y89380020D01*
X13374500Y89380020D02*
X12379500Y89380020D01*
X16418500Y89340020D02*
X15454500Y89340020D01*
X13374500Y89340020D02*
X12410500Y89340020D01*
X16385500Y89300020D02*
X15454500Y89300020D01*
X13374500Y89300020D02*
X12443500Y89300020D01*
X16351500Y89260020D02*
X15454500Y89260020D01*
X13374500Y89260020D02*
X12477500Y89260020D01*
X16315500Y89220020D02*
X15454500Y89220020D01*
X13374500Y89220020D02*
X12513500Y89220020D01*
X16278500Y89180020D02*
X15454500Y89180020D01*
X13374500Y89180020D02*
X12550500Y89180020D01*
X16240500Y89140020D02*
X15454500Y89140020D01*
X13374500Y89140020D02*
X12588500Y89140020D01*
X16199500Y89100020D02*
X15454500Y89100020D01*
X13374500Y89100020D02*
X12629500Y89100020D01*
X16157500Y89060020D02*
X15454500Y89060020D01*
X13374500Y89060020D02*
X12671500Y89060020D01*
X16113500Y89020020D02*
X15454500Y89020020D01*
X13374500Y89020020D02*
X12715500Y89020020D01*
X16067500Y88980020D02*
X15454500Y88980020D01*
X13374500Y88980020D02*
X12761500Y88980020D01*
X16019500Y88940020D02*
X12809500Y88940020D01*
X15968500Y88900020D02*
X12860500Y88900020D01*
X15914500Y88860020D02*
X12914500Y88860020D01*
X15857500Y88820020D02*
X12971500Y88820020D01*
X15797500Y88780020D02*
X13031500Y88780020D01*
X15733500Y88740020D02*
X13095500Y88740020D01*
X15665500Y88700020D02*
X13163500Y88700020D01*
X15592500Y88660020D02*
X13236500Y88660020D01*
X15512500Y88620020D02*
X13316500Y88620020D01*
X15425500Y88580020D02*
X13403500Y88580020D01*
X15329500Y88540020D02*
X13499500Y88540020D01*
X15219500Y88500020D02*
X13609500Y88500020D01*
X15091500Y88460020D02*
X13737500Y88460020D01*
X14932500Y88420020D02*
X13896500Y88420020D01*
X14698500Y88380020D02*
X14130500Y88380020D01*
X15889500Y93785795D02*
X15889500Y93285795D01*
X16139500Y93535795D02*
X15639500Y93535795D01*
%TO.C,C1*%
X61695920Y108877016D02*
X61695920Y110081144D01*
X63515920Y108877016D02*
X63515920Y110081144D01*
%TD*%
%TO.C,M3_3*%
D13*
X70512253Y77071700D02*
X70512253Y78071700D01*
X70845586Y77357414D01*
X71178920Y78071700D01*
X71178920Y77071700D01*
X71559872Y78071700D02*
X72178920Y78071700D01*
X71845586Y77690747D01*
X71988443Y77690747D01*
X72083681Y77643128D01*
X72131300Y77595509D01*
X72178920Y77500271D01*
X72178920Y77262176D01*
X72131300Y77166938D01*
X72083681Y77119319D01*
X71988443Y77071700D01*
X71702729Y77071700D01*
X71607491Y77119319D01*
X71559872Y77166938D01*
X72369396Y76976461D02*
X73131300Y76976461D01*
X73274158Y78071700D02*
X73893205Y78071700D01*
X73559872Y77690747D01*
X73702729Y77690747D01*
X73797967Y77643128D01*
X73845586Y77595509D01*
X73893205Y77500271D01*
X73893205Y77262176D01*
X73845586Y77166938D01*
X73797967Y77119319D01*
X73702729Y77071700D01*
X73417015Y77071700D01*
X73321777Y77119319D01*
X73274158Y77166938D01*
%TO.C,M3_5*%
X140314253Y12515700D02*
X140314253Y13515700D01*
X140647586Y12801414D01*
X140980920Y13515700D01*
X140980920Y12515700D01*
X141361872Y13515700D02*
X141980920Y13515700D01*
X141647586Y13134747D01*
X141790443Y13134747D01*
X141885681Y13087128D01*
X141933300Y13039509D01*
X141980920Y12944271D01*
X141980920Y12706176D01*
X141933300Y12610938D01*
X141885681Y12563319D01*
X141790443Y12515700D01*
X141504729Y12515700D01*
X141409491Y12563319D01*
X141361872Y12610938D01*
X142171396Y12420461D02*
X142933300Y12420461D01*
X143647586Y13515700D02*
X143171396Y13515700D01*
X143123777Y13039509D01*
X143171396Y13087128D01*
X143266634Y13134747D01*
X143504729Y13134747D01*
X143599967Y13087128D01*
X143647586Y13039509D01*
X143695205Y12944271D01*
X143695205Y12706176D01*
X143647586Y12610938D01*
X143599967Y12563319D01*
X143504729Y12515700D01*
X143266634Y12515700D01*
X143171396Y12563319D01*
X143123777Y12610938D01*
%TO.C,M3_4*%
X7091253Y12388700D02*
X7091253Y13388700D01*
X7424586Y12674414D01*
X7757920Y13388700D01*
X7757920Y12388700D01*
X8138872Y13388700D02*
X8757920Y13388700D01*
X8424586Y13007747D01*
X8567443Y13007747D01*
X8662681Y12960128D01*
X8710300Y12912509D01*
X8757920Y12817271D01*
X8757920Y12579176D01*
X8710300Y12483938D01*
X8662681Y12436319D01*
X8567443Y12388700D01*
X8281729Y12388700D01*
X8186491Y12436319D01*
X8138872Y12483938D01*
X8948396Y12293461D02*
X9710300Y12293461D01*
X10376967Y13055366D02*
X10376967Y12388700D01*
X10138872Y13436319D02*
X9900777Y12722033D01*
X10519824Y12722033D01*
%TO.C,M3_2*%
X140314253Y138880700D02*
X140314253Y139880700D01*
X140647586Y139166414D01*
X140980920Y139880700D01*
X140980920Y138880700D01*
X141361872Y139880700D02*
X141980920Y139880700D01*
X141647586Y139499747D01*
X141790443Y139499747D01*
X141885681Y139452128D01*
X141933300Y139404509D01*
X141980920Y139309271D01*
X141980920Y139071176D01*
X141933300Y138975938D01*
X141885681Y138928319D01*
X141790443Y138880700D01*
X141504729Y138880700D01*
X141409491Y138928319D01*
X141361872Y138975938D01*
X142171396Y138785461D02*
X142933300Y138785461D01*
X143123777Y139785461D02*
X143171396Y139833080D01*
X143266634Y139880700D01*
X143504729Y139880700D01*
X143599967Y139833080D01*
X143647586Y139785461D01*
X143695205Y139690223D01*
X143695205Y139594985D01*
X143647586Y139452128D01*
X143076158Y138880700D01*
X143695205Y138880700D01*
%TO.C,M3_1*%
X7091253Y138880700D02*
X7091253Y139880700D01*
X7424586Y139166414D01*
X7757920Y139880700D01*
X7757920Y138880700D01*
X8138872Y139880700D02*
X8757920Y139880700D01*
X8424586Y139499747D01*
X8567443Y139499747D01*
X8662681Y139452128D01*
X8710300Y139404509D01*
X8757920Y139309271D01*
X8757920Y139071176D01*
X8710300Y138975938D01*
X8662681Y138928319D01*
X8567443Y138880700D01*
X8281729Y138880700D01*
X8186491Y138928319D01*
X8138872Y138975938D01*
X8948396Y138785461D02*
X9710300Y138785461D01*
X10472205Y138880700D02*
X9900777Y138880700D01*
X10186491Y138880700D02*
X10186491Y139880700D01*
X10091253Y139737842D01*
X9996015Y139642604D01*
X9900777Y139594985D01*
%TO.C,F1*%
X20108586Y80425509D02*
X19775253Y80425509D01*
X19775253Y79901700D02*
X19775253Y80901700D01*
X20251443Y80901700D01*
X21156205Y79901700D02*
X20584777Y79901700D01*
X20870491Y79901700D02*
X20870491Y80901700D01*
X20775253Y80758842D01*
X20680015Y80663604D01*
X20584777Y80615985D01*
%TO.C,U5*%
X125727015Y13026700D02*
X125727015Y12217176D01*
X125774634Y12121938D01*
X125822253Y12074319D01*
X125917491Y12026700D01*
X126107967Y12026700D01*
X126203205Y12074319D01*
X126250824Y12121938D01*
X126298443Y12217176D01*
X126298443Y13026700D01*
X127250824Y13026700D02*
X126774634Y13026700D01*
X126727015Y12550509D01*
X126774634Y12598128D01*
X126869872Y12645747D01*
X127107967Y12645747D01*
X127203205Y12598128D01*
X127250824Y12550509D01*
X127298443Y12455271D01*
X127298443Y12217176D01*
X127250824Y12121938D01*
X127203205Y12074319D01*
X127107967Y12026700D01*
X126869872Y12026700D01*
X126774634Y12074319D01*
X126727015Y12121938D01*
%TO.C,U4*%
X33240015Y61053700D02*
X33240015Y60244176D01*
X33287634Y60148938D01*
X33335253Y60101319D01*
X33430491Y60053700D01*
X33620967Y60053700D01*
X33716205Y60101319D01*
X33763824Y60148938D01*
X33811443Y60244176D01*
X33811443Y61053700D01*
X34716205Y60720366D02*
X34716205Y60053700D01*
X34478110Y61101319D02*
X34240015Y60387033D01*
X34859062Y60387033D01*
%TO.C,R18*%
X131432062Y40340200D02*
X131098729Y40816390D01*
X130860634Y40340200D02*
X130860634Y41340200D01*
X131241586Y41340200D01*
X131336824Y41292580D01*
X131384443Y41244961D01*
X131432062Y41149723D01*
X131432062Y41006866D01*
X131384443Y40911628D01*
X131336824Y40864009D01*
X131241586Y40816390D01*
X130860634Y40816390D01*
X132384443Y40340200D02*
X131813015Y40340200D01*
X132098729Y40340200D02*
X132098729Y41340200D01*
X132003491Y41197342D01*
X131908253Y41102104D01*
X131813015Y41054485D01*
X132955872Y40911628D02*
X132860634Y40959247D01*
X132813015Y41006866D01*
X132765396Y41102104D01*
X132765396Y41149723D01*
X132813015Y41244961D01*
X132860634Y41292580D01*
X132955872Y41340200D01*
X133146348Y41340200D01*
X133241586Y41292580D01*
X133289205Y41244961D01*
X133336824Y41149723D01*
X133336824Y41102104D01*
X133289205Y41006866D01*
X133241586Y40959247D01*
X133146348Y40911628D01*
X132955872Y40911628D01*
X132860634Y40864009D01*
X132813015Y40816390D01*
X132765396Y40721152D01*
X132765396Y40530676D01*
X132813015Y40435438D01*
X132860634Y40387819D01*
X132955872Y40340200D01*
X133146348Y40340200D01*
X133241586Y40387819D01*
X133289205Y40435438D01*
X133336824Y40530676D01*
X133336824Y40721152D01*
X133289205Y40816390D01*
X133241586Y40864009D01*
X133146348Y40911628D01*
%TO.C,R17*%
X131432062Y47960200D02*
X131098729Y48436390D01*
X130860634Y47960200D02*
X130860634Y48960200D01*
X131241586Y48960200D01*
X131336824Y48912580D01*
X131384443Y48864961D01*
X131432062Y48769723D01*
X131432062Y48626866D01*
X131384443Y48531628D01*
X131336824Y48484009D01*
X131241586Y48436390D01*
X130860634Y48436390D01*
X132384443Y47960200D02*
X131813015Y47960200D01*
X132098729Y47960200D02*
X132098729Y48960200D01*
X132003491Y48817342D01*
X131908253Y48722104D01*
X131813015Y48674485D01*
X132717777Y48960200D02*
X133384443Y48960200D01*
X132955872Y47960200D01*
%TO.C,J3*%
X128364300Y79072147D02*
X129078586Y79072147D01*
X129221443Y79024528D01*
X129316681Y78929290D01*
X129364300Y78786433D01*
X129364300Y78691195D01*
X128364300Y79453100D02*
X128364300Y80072147D01*
X128745253Y79738814D01*
X128745253Y79881671D01*
X128792872Y79976909D01*
X128840491Y80024528D01*
X128935729Y80072147D01*
X129173824Y80072147D01*
X129269062Y80024528D01*
X129316681Y79976909D01*
X129364300Y79881671D01*
X129364300Y79595957D01*
X129316681Y79500719D01*
X129269062Y79453100D01*
X138582139Y81475604D02*
X138439281Y81666080D01*
X138582139Y81856557D01*
X138582139Y76395604D02*
X138439281Y76586080D01*
X138582139Y76776557D01*
X130683348Y81285128D02*
X130683348Y82047033D01*
X130683348Y76205128D02*
X130683348Y76967033D01*
X131064300Y76586080D02*
X130302396Y76586080D01*
%TO.C,D10*%
X130860634Y49865200D02*
X130860634Y50865200D01*
X131098729Y50865200D01*
X131241586Y50817580D01*
X131336824Y50722342D01*
X131384443Y50627104D01*
X131432062Y50436628D01*
X131432062Y50293771D01*
X131384443Y50103295D01*
X131336824Y50008057D01*
X131241586Y49912819D01*
X131098729Y49865200D01*
X130860634Y49865200D01*
X132384443Y49865200D02*
X131813015Y49865200D01*
X132098729Y49865200D02*
X132098729Y50865200D01*
X132003491Y50722342D01*
X131908253Y50627104D01*
X131813015Y50579485D01*
X133003491Y50865200D02*
X133098729Y50865200D01*
X133193967Y50817580D01*
X133241586Y50769961D01*
X133289205Y50674723D01*
X133336824Y50484247D01*
X133336824Y50246152D01*
X133289205Y50055676D01*
X133241586Y49960438D01*
X133193967Y49912819D01*
X133098729Y49865200D01*
X133003491Y49865200D01*
X132908253Y49912819D01*
X132860634Y49960438D01*
X132813015Y50055676D01*
X132765396Y50246152D01*
X132765396Y50484247D01*
X132813015Y50674723D01*
X132860634Y50769961D01*
X132908253Y50817580D01*
X133003491Y50865200D01*
X136893015Y53350200D02*
X136893015Y54350200D01*
X137464443Y53350200D02*
X137035872Y53921628D01*
X137464443Y54350200D02*
X136893015Y53778771D01*
%TO.C,D9*%
X131336824Y33695200D02*
X131336824Y34695200D01*
X131574920Y34695200D01*
X131717777Y34647580D01*
X131813015Y34552342D01*
X131860634Y34457104D01*
X131908253Y34266628D01*
X131908253Y34123771D01*
X131860634Y33933295D01*
X131813015Y33838057D01*
X131717777Y33742819D01*
X131574920Y33695200D01*
X131336824Y33695200D01*
X132384443Y33695200D02*
X132574920Y33695200D01*
X132670158Y33742819D01*
X132717777Y33790438D01*
X132813015Y33933295D01*
X132860634Y34123771D01*
X132860634Y34504723D01*
X132813015Y34599961D01*
X132765396Y34647580D01*
X132670158Y34695200D01*
X132479681Y34695200D01*
X132384443Y34647580D01*
X132336824Y34599961D01*
X132289205Y34504723D01*
X132289205Y34266628D01*
X132336824Y34171390D01*
X132384443Y34123771D01*
X132479681Y34076152D01*
X132670158Y34076152D01*
X132765396Y34123771D01*
X132813015Y34171390D01*
X132860634Y34266628D01*
X126733015Y30210200D02*
X126733015Y31210200D01*
X127304443Y30210200D02*
X126875872Y30781628D01*
X127304443Y31210200D02*
X126733015Y30638771D01*
%TO.C,C15*%
X139619062Y66688223D02*
X139666681Y66640604D01*
X139714300Y66497747D01*
X139714300Y66402509D01*
X139666681Y66259652D01*
X139571443Y66164414D01*
X139476205Y66116795D01*
X139285729Y66069176D01*
X139142872Y66069176D01*
X138952396Y66116795D01*
X138857158Y66164414D01*
X138761920Y66259652D01*
X138714300Y66402509D01*
X138714300Y66497747D01*
X138761920Y66640604D01*
X138809539Y66688223D01*
X139714300Y67640604D02*
X139714300Y67069176D01*
X139714300Y67354890D02*
X138714300Y67354890D01*
X138857158Y67259652D01*
X138952396Y67164414D01*
X139000015Y67069176D01*
X138714300Y68545366D02*
X138714300Y68069176D01*
X139190491Y68021557D01*
X139142872Y68069176D01*
X139095253Y68164414D01*
X139095253Y68402509D01*
X139142872Y68497747D01*
X139190491Y68545366D01*
X139285729Y68592985D01*
X139523824Y68592985D01*
X139619062Y68545366D01*
X139666681Y68497747D01*
X139714300Y68402509D01*
X139714300Y68164414D01*
X139666681Y68069176D01*
X139619062Y68021557D01*
%TO.C,C14*%
X119738662Y41912578D02*
X119691043Y41864959D01*
X119548186Y41817340D01*
X119452948Y41817340D01*
X119310091Y41864959D01*
X119214853Y41960197D01*
X119167234Y42055435D01*
X119119615Y42245911D01*
X119119615Y42388768D01*
X119167234Y42579244D01*
X119214853Y42674482D01*
X119310091Y42769720D01*
X119452948Y42817340D01*
X119548186Y42817340D01*
X119691043Y42769720D01*
X119738662Y42722101D01*
X120691043Y41817340D02*
X120119615Y41817340D01*
X120405329Y41817340D02*
X120405329Y42817340D01*
X120310091Y42674482D01*
X120214853Y42579244D01*
X120119615Y42531625D01*
X121548186Y42484006D02*
X121548186Y41817340D01*
X121310091Y42864959D02*
X121071996Y42150673D01*
X121691043Y42150673D01*
%TO.C,J1*%
X18993300Y72290347D02*
X19707586Y72290347D01*
X19850443Y72242728D01*
X19945681Y72147490D01*
X19993300Y72004633D01*
X19993300Y71909395D01*
X19993300Y73290347D02*
X19993300Y72718919D01*
X19993300Y73004633D02*
X18993300Y73004633D01*
X19136158Y72909395D01*
X19231396Y72814157D01*
X19279015Y72718919D01*
X9083300Y70553557D02*
X9226158Y70363080D01*
X9083300Y70172604D01*
X9083300Y75633557D02*
X9226158Y75443080D01*
X9083300Y75252604D01*
X17912348Y69982128D02*
X17912348Y70744033D01*
X17912348Y75062128D02*
X17912348Y75824033D01*
X18293300Y75443080D02*
X17531396Y75443080D01*
%TO.C,R12*%
X74832380Y50649903D02*
X74356190Y50316570D01*
X74832380Y50078475D02*
X73832380Y50078475D01*
X73832380Y50459427D01*
X73880000Y50554665D01*
X73927619Y50602284D01*
X74022857Y50649903D01*
X74165714Y50649903D01*
X74260952Y50602284D01*
X74308571Y50554665D01*
X74356190Y50459427D01*
X74356190Y50078475D01*
X74832380Y51602284D02*
X74832380Y51030856D01*
X74832380Y51316570D02*
X73832380Y51316570D01*
X73975238Y51221332D01*
X74070476Y51126094D01*
X74118095Y51030856D01*
X73927619Y51983237D02*
X73880000Y52030856D01*
X73832380Y52126094D01*
X73832380Y52364189D01*
X73880000Y52459427D01*
X73927619Y52507046D01*
X74022857Y52554665D01*
X74118095Y52554665D01*
X74260952Y52507046D01*
X74832380Y51935618D01*
X74832380Y52554665D01*
%TO.C,U3*%
X102005015Y75436700D02*
X102005015Y74627176D01*
X102052634Y74531938D01*
X102100253Y74484319D01*
X102195491Y74436700D01*
X102385967Y74436700D01*
X102481205Y74484319D01*
X102528824Y74531938D01*
X102576443Y74627176D01*
X102576443Y75436700D01*
X102957396Y75436700D02*
X103576443Y75436700D01*
X103243110Y75055747D01*
X103385967Y75055747D01*
X103481205Y75008128D01*
X103528824Y74960509D01*
X103576443Y74865271D01*
X103576443Y74627176D01*
X103528824Y74531938D01*
X103481205Y74484319D01*
X103385967Y74436700D01*
X103100253Y74436700D01*
X103005015Y74484319D01*
X102957396Y74531938D01*
%TO.C,U2*%
X102030415Y119861300D02*
X102030415Y119051776D01*
X102078034Y118956538D01*
X102125653Y118908919D01*
X102220891Y118861300D01*
X102411367Y118861300D01*
X102506605Y118908919D01*
X102554224Y118956538D01*
X102601843Y119051776D01*
X102601843Y119861300D01*
X103030415Y119766061D02*
X103078034Y119813680D01*
X103173272Y119861300D01*
X103411367Y119861300D01*
X103506605Y119813680D01*
X103554224Y119766061D01*
X103601843Y119670823D01*
X103601843Y119575585D01*
X103554224Y119432728D01*
X102982796Y118861300D01*
X103601843Y118861300D01*
%TO.C,U1*%
X34510015Y123280700D02*
X34510015Y122471176D01*
X34557634Y122375938D01*
X34605253Y122328319D01*
X34700491Y122280700D01*
X34890967Y122280700D01*
X34986205Y122328319D01*
X35033824Y122375938D01*
X35081443Y122471176D01*
X35081443Y123280700D01*
X36081443Y122280700D02*
X35510015Y122280700D01*
X35795729Y122280700D02*
X35795729Y123280700D01*
X35700491Y123137842D01*
X35605253Y123042604D01*
X35510015Y122994985D01*
%TO.C,SW1*%
X29589586Y78982319D02*
X29732443Y78934700D01*
X29970539Y78934700D01*
X30065777Y78982319D01*
X30113396Y79029938D01*
X30161015Y79125176D01*
X30161015Y79220414D01*
X30113396Y79315652D01*
X30065777Y79363271D01*
X29970539Y79410890D01*
X29780062Y79458509D01*
X29684824Y79506128D01*
X29637205Y79553747D01*
X29589586Y79648985D01*
X29589586Y79744223D01*
X29637205Y79839461D01*
X29684824Y79887080D01*
X29780062Y79934700D01*
X30018158Y79934700D01*
X30161015Y79887080D01*
X30494348Y79934700D02*
X30732443Y78934700D01*
X30922920Y79648985D01*
X31113396Y78934700D01*
X31351491Y79934700D01*
X32256253Y78934700D02*
X31684824Y78934700D01*
X31970539Y78934700D02*
X31970539Y79934700D01*
X31875300Y79791842D01*
X31780062Y79696604D01*
X31684824Y79648985D01*
X34387205Y74839461D02*
X34434824Y74887080D01*
X34530062Y74934700D01*
X34768158Y74934700D01*
X34863396Y74887080D01*
X34911015Y74839461D01*
X34958634Y74744223D01*
X34958634Y74648985D01*
X34911015Y74506128D01*
X34339586Y73934700D01*
X34958634Y73934700D01*
X27458634Y73934700D02*
X26887205Y73934700D01*
X27172920Y73934700D02*
X27172920Y74934700D01*
X27077681Y74791842D01*
X26982443Y74696604D01*
X26887205Y74648985D01*
%TO.C,RV4*%
X69518800Y55567342D02*
X69042610Y55234009D01*
X69518800Y54995914D02*
X68518800Y54995914D01*
X68518800Y55376866D01*
X68566420Y55472104D01*
X68614039Y55519723D01*
X68709277Y55567342D01*
X68852134Y55567342D01*
X68947372Y55519723D01*
X68994991Y55472104D01*
X69042610Y55376866D01*
X69042610Y54995914D01*
X68518800Y55853057D02*
X69518800Y56186390D01*
X68518800Y56519723D01*
X68852134Y57281628D02*
X69518800Y57281628D01*
X68471181Y57043533D02*
X69185467Y56805438D01*
X69185467Y57424485D01*
X65518800Y53329247D02*
X65518800Y53948295D01*
X65899753Y53614961D01*
X65899753Y53757819D01*
X65947372Y53853057D01*
X65994991Y53900676D01*
X66090229Y53948295D01*
X66328324Y53948295D01*
X66423562Y53900676D01*
X66471181Y53853057D01*
X66518800Y53757819D01*
X66518800Y53472104D01*
X66471181Y53376866D01*
X66423562Y53329247D01*
X63614039Y55876866D02*
X63566420Y55924485D01*
X63518800Y56019723D01*
X63518800Y56257819D01*
X63566420Y56353057D01*
X63614039Y56400676D01*
X63709277Y56448295D01*
X63804515Y56448295D01*
X63947372Y56400676D01*
X64518800Y55829247D01*
X64518800Y56448295D01*
X66518800Y58948295D02*
X66518800Y58376866D01*
X66518800Y58662580D02*
X65518800Y58662580D01*
X65661658Y58567342D01*
X65756896Y58472104D01*
X65804515Y58376866D01*
%TO.C,RV3*%
X69455300Y20087342D02*
X68979110Y19754009D01*
X69455300Y19515914D02*
X68455300Y19515914D01*
X68455300Y19896866D01*
X68502920Y19992104D01*
X68550539Y20039723D01*
X68645777Y20087342D01*
X68788634Y20087342D01*
X68883872Y20039723D01*
X68931491Y19992104D01*
X68979110Y19896866D01*
X68979110Y19515914D01*
X68455300Y20373057D02*
X69455300Y20706390D01*
X68455300Y21039723D01*
X68455300Y21277819D02*
X68455300Y21896866D01*
X68836253Y21563533D01*
X68836253Y21706390D01*
X68883872Y21801628D01*
X68931491Y21849247D01*
X69026729Y21896866D01*
X69264824Y21896866D01*
X69360062Y21849247D01*
X69407681Y21801628D01*
X69455300Y21706390D01*
X69455300Y21420676D01*
X69407681Y21325438D01*
X69360062Y21277819D01*
X65455300Y17849247D02*
X65455300Y18468295D01*
X65836253Y18134961D01*
X65836253Y18277819D01*
X65883872Y18373057D01*
X65931491Y18420676D01*
X66026729Y18468295D01*
X66264824Y18468295D01*
X66360062Y18420676D01*
X66407681Y18373057D01*
X66455300Y18277819D01*
X66455300Y17992104D01*
X66407681Y17896866D01*
X66360062Y17849247D01*
X63550539Y20396866D02*
X63502920Y20444485D01*
X63455300Y20539723D01*
X63455300Y20777819D01*
X63502920Y20873057D01*
X63550539Y20920676D01*
X63645777Y20968295D01*
X63741015Y20968295D01*
X63883872Y20920676D01*
X64455300Y20349247D01*
X64455300Y20968295D01*
X66455300Y23468295D02*
X66455300Y22896866D01*
X66455300Y23182580D02*
X65455300Y23182580D01*
X65598158Y23087342D01*
X65693396Y22992104D01*
X65741015Y22896866D01*
%TO.C,RV2*%
X84362681Y32953700D02*
X84029348Y33429890D01*
X83791253Y32953700D02*
X83791253Y33953700D01*
X84172205Y33953700D01*
X84267443Y33906080D01*
X84315062Y33858461D01*
X84362681Y33763223D01*
X84362681Y33620366D01*
X84315062Y33525128D01*
X84267443Y33477509D01*
X84172205Y33429890D01*
X83791253Y33429890D01*
X84648396Y33953700D02*
X84981729Y32953700D01*
X85315062Y33953700D01*
X85600777Y33858461D02*
X85648396Y33906080D01*
X85743634Y33953700D01*
X85981729Y33953700D01*
X86076967Y33906080D01*
X86124586Y33858461D01*
X86172205Y33763223D01*
X86172205Y33667985D01*
X86124586Y33525128D01*
X85553158Y32953700D01*
X86172205Y32953700D01*
X77117586Y25106700D02*
X77736634Y25106700D01*
X77403300Y24725747D01*
X77546158Y24725747D01*
X77641396Y24678128D01*
X77689015Y24630509D01*
X77736634Y24535271D01*
X77736634Y24297176D01*
X77689015Y24201938D01*
X77641396Y24154319D01*
X77546158Y24106700D01*
X77260443Y24106700D01*
X77165205Y24154319D01*
X77117586Y24201938D01*
X84665205Y25011461D02*
X84712824Y25059080D01*
X84808062Y25106700D01*
X85046158Y25106700D01*
X85141396Y25059080D01*
X85189015Y25011461D01*
X85236634Y24916223D01*
X85236634Y24820985D01*
X85189015Y24678128D01*
X84617586Y24106700D01*
X85236634Y24106700D01*
X92736634Y24106700D02*
X92165205Y24106700D01*
X92450920Y24106700D02*
X92450920Y25106700D01*
X92355681Y24963842D01*
X92260443Y24868604D01*
X92165205Y24820985D01*
%TO.C,RV1*%
X84355681Y47050700D02*
X84022348Y47526890D01*
X83784253Y47050700D02*
X83784253Y48050700D01*
X84165205Y48050700D01*
X84260443Y48003080D01*
X84308062Y47955461D01*
X84355681Y47860223D01*
X84355681Y47717366D01*
X84308062Y47622128D01*
X84260443Y47574509D01*
X84165205Y47526890D01*
X83784253Y47526890D01*
X84641396Y48050700D02*
X84974729Y47050700D01*
X85308062Y48050700D01*
X86165205Y47050700D02*
X85593777Y47050700D01*
X85879491Y47050700D02*
X85879491Y48050700D01*
X85784253Y47907842D01*
X85689015Y47812604D01*
X85593777Y47764985D01*
X77117586Y39076700D02*
X77736634Y39076700D01*
X77403300Y38695747D01*
X77546158Y38695747D01*
X77641396Y38648128D01*
X77689015Y38600509D01*
X77736634Y38505271D01*
X77736634Y38267176D01*
X77689015Y38171938D01*
X77641396Y38124319D01*
X77546158Y38076700D01*
X77260443Y38076700D01*
X77165205Y38124319D01*
X77117586Y38171938D01*
X84665205Y38981461D02*
X84712824Y39029080D01*
X84808062Y39076700D01*
X85046158Y39076700D01*
X85141396Y39029080D01*
X85189015Y38981461D01*
X85236634Y38886223D01*
X85236634Y38790985D01*
X85189015Y38648128D01*
X84617586Y38076700D01*
X85236634Y38076700D01*
X92736634Y38076700D02*
X92165205Y38076700D01*
X92450920Y38076700D02*
X92450920Y39076700D01*
X92355681Y38933842D01*
X92260443Y38838604D01*
X92165205Y38790985D01*
%TO.C,R16*%
X22483780Y44537603D02*
X22007590Y44204270D01*
X22483780Y43966175D02*
X21483780Y43966175D01*
X21483780Y44347127D01*
X21531400Y44442365D01*
X21579019Y44489984D01*
X21674257Y44537603D01*
X21817114Y44537603D01*
X21912352Y44489984D01*
X21959971Y44442365D01*
X22007590Y44347127D01*
X22007590Y43966175D01*
X22483780Y45489984D02*
X22483780Y44918556D01*
X22483780Y45204270D02*
X21483780Y45204270D01*
X21626638Y45109032D01*
X21721876Y45013794D01*
X21769495Y44918556D01*
X21483780Y46347127D02*
X21483780Y46156651D01*
X21531400Y46061413D01*
X21579019Y46013794D01*
X21721876Y45918556D01*
X21912352Y45870937D01*
X22293304Y45870937D01*
X22388542Y45918556D01*
X22436161Y45966175D01*
X22483780Y46061413D01*
X22483780Y46251889D01*
X22436161Y46347127D01*
X22388542Y46394746D01*
X22293304Y46442365D01*
X22055209Y46442365D01*
X21959971Y46394746D01*
X21912352Y46347127D01*
X21864733Y46251889D01*
X21864733Y46061413D01*
X21912352Y45966175D01*
X21959971Y45918556D01*
X22055209Y45870937D01*
%TO.C,R15*%
X21704062Y48024700D02*
X21370729Y48500890D01*
X21132634Y48024700D02*
X21132634Y49024700D01*
X21513586Y49024700D01*
X21608824Y48977080D01*
X21656443Y48929461D01*
X21704062Y48834223D01*
X21704062Y48691366D01*
X21656443Y48596128D01*
X21608824Y48548509D01*
X21513586Y48500890D01*
X21132634Y48500890D01*
X22656443Y48024700D02*
X22085015Y48024700D01*
X22370729Y48024700D02*
X22370729Y49024700D01*
X22275491Y48881842D01*
X22180253Y48786604D01*
X22085015Y48738985D01*
X23561205Y49024700D02*
X23085015Y49024700D01*
X23037396Y48548509D01*
X23085015Y48596128D01*
X23180253Y48643747D01*
X23418348Y48643747D01*
X23513586Y48596128D01*
X23561205Y48548509D01*
X23608824Y48453271D01*
X23608824Y48215176D01*
X23561205Y48119938D01*
X23513586Y48072319D01*
X23418348Y48024700D01*
X23180253Y48024700D01*
X23085015Y48072319D01*
X23037396Y48119938D01*
%TO.C,R14*%
X48383540Y51846243D02*
X47907350Y51512910D01*
X48383540Y51274815D02*
X47383540Y51274815D01*
X47383540Y51655767D01*
X47431160Y51751005D01*
X47478779Y51798624D01*
X47574017Y51846243D01*
X47716874Y51846243D01*
X47812112Y51798624D01*
X47859731Y51751005D01*
X47907350Y51655767D01*
X47907350Y51274815D01*
X48383540Y52798624D02*
X48383540Y52227196D01*
X48383540Y52512910D02*
X47383540Y52512910D01*
X47526398Y52417672D01*
X47621636Y52322434D01*
X47669255Y52227196D01*
X47716874Y53655767D02*
X48383540Y53655767D01*
X47335921Y53417672D02*
X48050207Y53179577D01*
X48050207Y53798624D01*
%TO.C,R13*%
X50636340Y51795443D02*
X50160150Y51462110D01*
X50636340Y51224015D02*
X49636340Y51224015D01*
X49636340Y51604967D01*
X49683960Y51700205D01*
X49731579Y51747824D01*
X49826817Y51795443D01*
X49969674Y51795443D01*
X50064912Y51747824D01*
X50112531Y51700205D01*
X50160150Y51604967D01*
X50160150Y51224015D01*
X50636340Y52747824D02*
X50636340Y52176396D01*
X50636340Y52462110D02*
X49636340Y52462110D01*
X49779198Y52366872D01*
X49874436Y52271634D01*
X49922055Y52176396D01*
X49636340Y53081158D02*
X49636340Y53700205D01*
X50017293Y53366872D01*
X50017293Y53509729D01*
X50064912Y53604967D01*
X50112531Y53652586D01*
X50207769Y53700205D01*
X50445864Y53700205D01*
X50541102Y53652586D01*
X50588721Y53604967D01*
X50636340Y53509729D01*
X50636340Y53224015D01*
X50588721Y53128777D01*
X50541102Y53081158D01*
%TO.C,R11*%
X73868300Y127550223D02*
X73392110Y127216890D01*
X73868300Y126978795D02*
X72868300Y126978795D01*
X72868300Y127359747D01*
X72915920Y127454985D01*
X72963539Y127502604D01*
X73058777Y127550223D01*
X73201634Y127550223D01*
X73296872Y127502604D01*
X73344491Y127454985D01*
X73392110Y127359747D01*
X73392110Y126978795D01*
X73868300Y128502604D02*
X73868300Y127931176D01*
X73868300Y128216890D02*
X72868300Y128216890D01*
X73011158Y128121652D01*
X73106396Y128026414D01*
X73154015Y127931176D01*
X73868300Y129454985D02*
X73868300Y128883557D01*
X73868300Y129169271D02*
X72868300Y129169271D01*
X73011158Y129074033D01*
X73106396Y128978795D01*
X73154015Y128883557D01*
%TO.C,R10*%
X67448300Y127570223D02*
X66972110Y127236890D01*
X67448300Y126998795D02*
X66448300Y126998795D01*
X66448300Y127379747D01*
X66495920Y127474985D01*
X66543539Y127522604D01*
X66638777Y127570223D01*
X66781634Y127570223D01*
X66876872Y127522604D01*
X66924491Y127474985D01*
X66972110Y127379747D01*
X66972110Y126998795D01*
X67448300Y128522604D02*
X67448300Y127951176D01*
X67448300Y128236890D02*
X66448300Y128236890D01*
X66591158Y128141652D01*
X66686396Y128046414D01*
X66734015Y127951176D01*
X66448300Y129141652D02*
X66448300Y129236890D01*
X66495920Y129332128D01*
X66543539Y129379747D01*
X66638777Y129427366D01*
X66829253Y129474985D01*
X67067348Y129474985D01*
X67257824Y129427366D01*
X67353062Y129379747D01*
X67400681Y129332128D01*
X67448300Y129236890D01*
X67448300Y129141652D01*
X67400681Y129046414D01*
X67353062Y128998795D01*
X67257824Y128951176D01*
X67067348Y128903557D01*
X66829253Y128903557D01*
X66638777Y128951176D01*
X66543539Y128998795D01*
X66495920Y129046414D01*
X66448300Y129141652D01*
%TO.C,R9*%
X106089800Y37784414D02*
X105613610Y37451080D01*
X106089800Y37212985D02*
X105089800Y37212985D01*
X105089800Y37593938D01*
X105137420Y37689176D01*
X105185039Y37736795D01*
X105280277Y37784414D01*
X105423134Y37784414D01*
X105518372Y37736795D01*
X105565991Y37689176D01*
X105613610Y37593938D01*
X105613610Y37212985D01*
X106089800Y38260604D02*
X106089800Y38451080D01*
X106042181Y38546319D01*
X105994562Y38593938D01*
X105851705Y38689176D01*
X105661229Y38736795D01*
X105280277Y38736795D01*
X105185039Y38689176D01*
X105137420Y38641557D01*
X105089800Y38546319D01*
X105089800Y38355842D01*
X105137420Y38260604D01*
X105185039Y38212985D01*
X105280277Y38165366D01*
X105518372Y38165366D01*
X105613610Y38212985D01*
X105661229Y38260604D01*
X105708848Y38355842D01*
X105708848Y38546319D01*
X105661229Y38641557D01*
X105613610Y38689176D01*
X105518372Y38736795D01*
%TO.C,R8*%
X91045300Y101438414D02*
X90569110Y101105080D01*
X91045300Y100866985D02*
X90045300Y100866985D01*
X90045300Y101247938D01*
X90092920Y101343176D01*
X90140539Y101390795D01*
X90235777Y101438414D01*
X90378634Y101438414D01*
X90473872Y101390795D01*
X90521491Y101343176D01*
X90569110Y101247938D01*
X90569110Y100866985D01*
X90473872Y102009842D02*
X90426253Y101914604D01*
X90378634Y101866985D01*
X90283396Y101819366D01*
X90235777Y101819366D01*
X90140539Y101866985D01*
X90092920Y101914604D01*
X90045300Y102009842D01*
X90045300Y102200319D01*
X90092920Y102295557D01*
X90140539Y102343176D01*
X90235777Y102390795D01*
X90283396Y102390795D01*
X90378634Y102343176D01*
X90426253Y102295557D01*
X90473872Y102200319D01*
X90473872Y102009842D01*
X90521491Y101914604D01*
X90569110Y101866985D01*
X90664348Y101819366D01*
X90854824Y101819366D01*
X90950062Y101866985D01*
X90997681Y101914604D01*
X91045300Y102009842D01*
X91045300Y102200319D01*
X90997681Y102295557D01*
X90950062Y102343176D01*
X90854824Y102390795D01*
X90664348Y102390795D01*
X90569110Y102343176D01*
X90521491Y102295557D01*
X90473872Y102200319D01*
%TO.C,R7*%
X97395300Y101438414D02*
X96919110Y101105080D01*
X97395300Y100866985D02*
X96395300Y100866985D01*
X96395300Y101247938D01*
X96442920Y101343176D01*
X96490539Y101390795D01*
X96585777Y101438414D01*
X96728634Y101438414D01*
X96823872Y101390795D01*
X96871491Y101343176D01*
X96919110Y101247938D01*
X96919110Y100866985D01*
X96395300Y101771747D02*
X96395300Y102438414D01*
X97395300Y102009842D01*
%TO.C,R6*%
X71004780Y109289554D02*
X70528590Y108956220D01*
X71004780Y108718125D02*
X70004780Y108718125D01*
X70004780Y109099078D01*
X70052400Y109194316D01*
X70100019Y109241935D01*
X70195257Y109289554D01*
X70338114Y109289554D01*
X70433352Y109241935D01*
X70480971Y109194316D01*
X70528590Y109099078D01*
X70528590Y108718125D01*
X70004780Y110146697D02*
X70004780Y109956220D01*
X70052400Y109860982D01*
X70100019Y109813363D01*
X70242876Y109718125D01*
X70433352Y109670506D01*
X70814304Y109670506D01*
X70909542Y109718125D01*
X70957161Y109765744D01*
X71004780Y109860982D01*
X71004780Y110051459D01*
X70957161Y110146697D01*
X70909542Y110194316D01*
X70814304Y110241935D01*
X70576209Y110241935D01*
X70480971Y110194316D01*
X70433352Y110146697D01*
X70385733Y110051459D01*
X70385733Y109860982D01*
X70433352Y109765744D01*
X70480971Y109718125D01*
X70576209Y109670506D01*
%TO.C,R5*%
X77527500Y109312414D02*
X77051310Y108979080D01*
X77527500Y108740985D02*
X76527500Y108740985D01*
X76527500Y109121938D01*
X76575120Y109217176D01*
X76622739Y109264795D01*
X76717977Y109312414D01*
X76860834Y109312414D01*
X76956072Y109264795D01*
X77003691Y109217176D01*
X77051310Y109121938D01*
X77051310Y108740985D01*
X76527500Y110217176D02*
X76527500Y109740985D01*
X77003691Y109693366D01*
X76956072Y109740985D01*
X76908453Y109836223D01*
X76908453Y110074319D01*
X76956072Y110169557D01*
X77003691Y110217176D01*
X77098929Y110264795D01*
X77337024Y110264795D01*
X77432262Y110217176D01*
X77479881Y110169557D01*
X77527500Y110074319D01*
X77527500Y109836223D01*
X77479881Y109740985D01*
X77432262Y109693366D01*
%TO.C,R4*%
X103745300Y101438414D02*
X103269110Y101105080D01*
X103745300Y100866985D02*
X102745300Y100866985D01*
X102745300Y101247938D01*
X102792920Y101343176D01*
X102840539Y101390795D01*
X102935777Y101438414D01*
X103078634Y101438414D01*
X103173872Y101390795D01*
X103221491Y101343176D01*
X103269110Y101247938D01*
X103269110Y100866985D01*
X103078634Y102295557D02*
X103745300Y102295557D01*
X102697681Y102057461D02*
X103411967Y101819366D01*
X103411967Y102438414D01*
%TO.C,R3*%
X61179880Y117821414D02*
X60703690Y117488080D01*
X61179880Y117249985D02*
X60179880Y117249985D01*
X60179880Y117630938D01*
X60227500Y117726176D01*
X60275119Y117773795D01*
X60370357Y117821414D01*
X60513214Y117821414D01*
X60608452Y117773795D01*
X60656071Y117726176D01*
X60703690Y117630938D01*
X60703690Y117249985D01*
X60179880Y118154747D02*
X60179880Y118773795D01*
X60560833Y118440461D01*
X60560833Y118583319D01*
X60608452Y118678557D01*
X60656071Y118726176D01*
X60751309Y118773795D01*
X60989404Y118773795D01*
X61084642Y118726176D01*
X61132261Y118678557D01*
X61179880Y118583319D01*
X61179880Y118297604D01*
X61132261Y118202366D01*
X61084642Y118154747D01*
%TO.C,R2*%
X110095300Y101438414D02*
X109619110Y101105080D01*
X110095300Y100866985D02*
X109095300Y100866985D01*
X109095300Y101247938D01*
X109142920Y101343176D01*
X109190539Y101390795D01*
X109285777Y101438414D01*
X109428634Y101438414D01*
X109523872Y101390795D01*
X109571491Y101343176D01*
X109619110Y101247938D01*
X109619110Y100866985D01*
X109190539Y101819366D02*
X109142920Y101866985D01*
X109095300Y101962223D01*
X109095300Y102200319D01*
X109142920Y102295557D01*
X109190539Y102343176D01*
X109285777Y102390795D01*
X109381015Y102390795D01*
X109523872Y102343176D01*
X110095300Y101771747D01*
X110095300Y102390795D01*
%TO.C,R1*%
X73879880Y118103354D02*
X73403690Y117770020D01*
X73879880Y117531925D02*
X72879880Y117531925D01*
X72879880Y117912878D01*
X72927500Y118008116D01*
X72975119Y118055735D01*
X73070357Y118103354D01*
X73213214Y118103354D01*
X73308452Y118055735D01*
X73356071Y118008116D01*
X73403690Y117912878D01*
X73403690Y117531925D01*
X73879880Y119055735D02*
X73879880Y118484306D01*
X73879880Y118770020D02*
X72879880Y118770020D01*
X73022738Y118674782D01*
X73117976Y118579544D01*
X73165595Y118484306D01*
%TO.C,Q3*%
X74575681Y55631461D02*
X74480443Y55679080D01*
X74385205Y55774319D01*
X74242348Y55917176D01*
X74147110Y55964795D01*
X74051872Y55964795D01*
X74099491Y55726700D02*
X74004253Y55774319D01*
X73909015Y55869557D01*
X73861396Y56060033D01*
X73861396Y56393366D01*
X73909015Y56583842D01*
X74004253Y56679080D01*
X74099491Y56726700D01*
X74289967Y56726700D01*
X74385205Y56679080D01*
X74480443Y56583842D01*
X74528062Y56393366D01*
X74528062Y56060033D01*
X74480443Y55869557D01*
X74385205Y55774319D01*
X74289967Y55726700D01*
X74099491Y55726700D01*
X74861396Y56726700D02*
X75480443Y56726700D01*
X75147110Y56345747D01*
X75289967Y56345747D01*
X75385205Y56298128D01*
X75432824Y56250509D01*
X75480443Y56155271D01*
X75480443Y55917176D01*
X75432824Y55821938D01*
X75385205Y55774319D01*
X75289967Y55726700D01*
X75004253Y55726700D01*
X74909015Y55774319D01*
X74861396Y55821938D01*
%TO.C,Q2*%
X74551681Y10271461D02*
X74456443Y10319080D01*
X74361205Y10414319D01*
X74218348Y10557176D01*
X74123110Y10604795D01*
X74027872Y10604795D01*
X74075491Y10366700D02*
X73980253Y10414319D01*
X73885015Y10509557D01*
X73837396Y10700033D01*
X73837396Y11033366D01*
X73885015Y11223842D01*
X73980253Y11319080D01*
X74075491Y11366700D01*
X74265967Y11366700D01*
X74361205Y11319080D01*
X74456443Y11223842D01*
X74504062Y11033366D01*
X74504062Y10700033D01*
X74456443Y10509557D01*
X74361205Y10414319D01*
X74265967Y10366700D01*
X74075491Y10366700D01*
X74885015Y11271461D02*
X74932634Y11319080D01*
X75027872Y11366700D01*
X75265967Y11366700D01*
X75361205Y11319080D01*
X75408824Y11271461D01*
X75456443Y11176223D01*
X75456443Y11080985D01*
X75408824Y10938128D01*
X74837396Y10366700D01*
X75456443Y10366700D01*
%TO.C,Q1*%
X66945119Y118174782D02*
X66897500Y118079544D01*
X66802261Y117984306D01*
X66659404Y117841449D01*
X66611785Y117746211D01*
X66611785Y117650973D01*
X66849880Y117698592D02*
X66802261Y117603354D01*
X66707023Y117508116D01*
X66516547Y117460497D01*
X66183214Y117460497D01*
X65992738Y117508116D01*
X65897500Y117603354D01*
X65849880Y117698592D01*
X65849880Y117889068D01*
X65897500Y117984306D01*
X65992738Y118079544D01*
X66183214Y118127163D01*
X66516547Y118127163D01*
X66707023Y118079544D01*
X66802261Y117984306D01*
X66849880Y117889068D01*
X66849880Y117698592D01*
X66849880Y119079544D02*
X66849880Y118508116D01*
X66849880Y118793830D02*
X65849880Y118793830D01*
X65992738Y118698592D01*
X66087976Y118603354D01*
X66135595Y118508116D01*
%TO.C,L2*%
X50295300Y24984414D02*
X50295300Y24508223D01*
X49295300Y24508223D01*
X49390539Y25270128D02*
X49342920Y25317747D01*
X49295300Y25412985D01*
X49295300Y25651080D01*
X49342920Y25746319D01*
X49390539Y25793938D01*
X49485777Y25841557D01*
X49581015Y25841557D01*
X49723872Y25793938D01*
X50295300Y25222509D01*
X50295300Y25841557D01*
%TO.C,L1*%
X59185300Y82388414D02*
X59185300Y81912223D01*
X58185300Y81912223D01*
X59185300Y83245557D02*
X59185300Y82674128D01*
X59185300Y82959842D02*
X58185300Y82959842D01*
X58328158Y82864604D01*
X58423396Y82769366D01*
X58471015Y82674128D01*
%TO.C,J2*%
X126091700Y99138147D02*
X126805986Y99138147D01*
X126948843Y99090528D01*
X127044081Y98995290D01*
X127091700Y98852433D01*
X127091700Y98757195D01*
X126186939Y99566719D02*
X126139320Y99614338D01*
X126091700Y99709576D01*
X126091700Y99947671D01*
X126139320Y100042909D01*
X126186939Y100090528D01*
X126282177Y100138147D01*
X126377415Y100138147D01*
X126520272Y100090528D01*
X127091700Y99519100D01*
X127091700Y100138147D01*
X138582139Y101541604D02*
X138439281Y101732080D01*
X138582139Y101922557D01*
X138582139Y96461604D02*
X138439281Y96652080D01*
X138582139Y96842557D01*
X128387148Y101351128D02*
X128387148Y102113033D01*
X128412548Y96271128D02*
X128412548Y97033033D01*
X128793500Y96652080D02*
X128031596Y96652080D01*
%TO.C,D8*%
X23688300Y35284185D02*
X22688300Y35284185D01*
X22688300Y35522280D01*
X22735920Y35665138D01*
X22831158Y35760376D01*
X22926396Y35807995D01*
X23116872Y35855614D01*
X23259729Y35855614D01*
X23450205Y35807995D01*
X23545443Y35760376D01*
X23640681Y35665138D01*
X23688300Y35522280D01*
X23688300Y35284185D01*
X23116872Y36427042D02*
X23069253Y36331804D01*
X23021634Y36284185D01*
X22926396Y36236566D01*
X22878777Y36236566D01*
X22783539Y36284185D01*
X22735920Y36331804D01*
X22688300Y36427042D01*
X22688300Y36617519D01*
X22735920Y36712757D01*
X22783539Y36760376D01*
X22878777Y36807995D01*
X22926396Y36807995D01*
X23021634Y36760376D01*
X23069253Y36712757D01*
X23116872Y36617519D01*
X23116872Y36427042D01*
X23164491Y36331804D01*
X23212110Y36284185D01*
X23307348Y36236566D01*
X23497824Y36236566D01*
X23593062Y36284185D01*
X23640681Y36331804D01*
X23688300Y36427042D01*
X23688300Y36617519D01*
X23640681Y36712757D01*
X23593062Y36760376D01*
X23497824Y36807995D01*
X23307348Y36807995D01*
X23212110Y36760376D01*
X23164491Y36712757D01*
X23116872Y36617519D01*
%TO.C,D7*%
X108730824Y17481700D02*
X108730824Y18481700D01*
X108968920Y18481700D01*
X109111777Y18434080D01*
X109207015Y18338842D01*
X109254634Y18243604D01*
X109302253Y18053128D01*
X109302253Y17910271D01*
X109254634Y17719795D01*
X109207015Y17624557D01*
X109111777Y17529319D01*
X108968920Y17481700D01*
X108730824Y17481700D01*
X109635586Y18481700D02*
X110302253Y18481700D01*
X109873681Y17481700D01*
%TO.C,D6*%
X87902824Y17481700D02*
X87902824Y18481700D01*
X88140920Y18481700D01*
X88283777Y18434080D01*
X88379015Y18338842D01*
X88426634Y18243604D01*
X88474253Y18053128D01*
X88474253Y17910271D01*
X88426634Y17719795D01*
X88379015Y17624557D01*
X88283777Y17529319D01*
X88140920Y17481700D01*
X87902824Y17481700D01*
X89331396Y18481700D02*
X89140920Y18481700D01*
X89045681Y18434080D01*
X88998062Y18386461D01*
X88902824Y18243604D01*
X88855205Y18053128D01*
X88855205Y17672176D01*
X88902824Y17576938D01*
X88950443Y17529319D01*
X89045681Y17481700D01*
X89236158Y17481700D01*
X89331396Y17529319D01*
X89379015Y17576938D01*
X89426634Y17672176D01*
X89426634Y17910271D01*
X89379015Y18005509D01*
X89331396Y18053128D01*
X89236158Y18100747D01*
X89045681Y18100747D01*
X88950443Y18053128D01*
X88902824Y18005509D01*
X88855205Y17910271D01*
%TO.C,D5*%
X87902824Y61571700D02*
X87902824Y62571700D01*
X88140920Y62571700D01*
X88283777Y62524080D01*
X88379015Y62428842D01*
X88426634Y62333604D01*
X88474253Y62143128D01*
X88474253Y62000271D01*
X88426634Y61809795D01*
X88379015Y61714557D01*
X88283777Y61619319D01*
X88140920Y61571700D01*
X87902824Y61571700D01*
X89379015Y62571700D02*
X88902824Y62571700D01*
X88855205Y62095509D01*
X88902824Y62143128D01*
X88998062Y62190747D01*
X89236158Y62190747D01*
X89331396Y62143128D01*
X89379015Y62095509D01*
X89426634Y62000271D01*
X89426634Y61762176D01*
X89379015Y61666938D01*
X89331396Y61619319D01*
X89236158Y61571700D01*
X88998062Y61571700D01*
X88902824Y61619319D01*
X88855205Y61666938D01*
%TO.C,D4*%
X105682824Y61571700D02*
X105682824Y62571700D01*
X105920920Y62571700D01*
X106063777Y62524080D01*
X106159015Y62428842D01*
X106206634Y62333604D01*
X106254253Y62143128D01*
X106254253Y62000271D01*
X106206634Y61809795D01*
X106159015Y61714557D01*
X106063777Y61619319D01*
X105920920Y61571700D01*
X105682824Y61571700D01*
X107111396Y62238366D02*
X107111396Y61571700D01*
X106873300Y62619319D02*
X106635205Y61905033D01*
X107254253Y61905033D01*
%TO.C,D3*%
X121584800Y33259805D02*
X120584800Y33259805D01*
X120584800Y33497900D01*
X120632420Y33640758D01*
X120727658Y33735996D01*
X120822896Y33783615D01*
X121013372Y33831234D01*
X121156229Y33831234D01*
X121346705Y33783615D01*
X121441943Y33735996D01*
X121537181Y33640758D01*
X121584800Y33497900D01*
X121584800Y33259805D01*
X120584800Y34164567D02*
X120584800Y34783615D01*
X120965753Y34450281D01*
X120965753Y34593139D01*
X121013372Y34688377D01*
X121060991Y34735996D01*
X121156229Y34783615D01*
X121394324Y34783615D01*
X121489562Y34735996D01*
X121537181Y34688377D01*
X121584800Y34593139D01*
X121584800Y34307424D01*
X121537181Y34212186D01*
X121489562Y34164567D01*
%TO.C,D2*%
X42039800Y91087985D02*
X41039800Y91087985D01*
X41039800Y91326080D01*
X41087420Y91468938D01*
X41182658Y91564176D01*
X41277896Y91611795D01*
X41468372Y91659414D01*
X41611229Y91659414D01*
X41801705Y91611795D01*
X41896943Y91564176D01*
X41992181Y91468938D01*
X42039800Y91326080D01*
X42039800Y91087985D01*
X41135039Y92040366D02*
X41087420Y92087985D01*
X41039800Y92183223D01*
X41039800Y92421319D01*
X41087420Y92516557D01*
X41135039Y92564176D01*
X41230277Y92611795D01*
X41325515Y92611795D01*
X41468372Y92564176D01*
X42039800Y91992747D01*
X42039800Y92611795D01*
%TO.C,D1*%
X142730300Y117122985D02*
X141730300Y117122985D01*
X141730300Y117361080D01*
X141777920Y117503938D01*
X141873158Y117599176D01*
X141968396Y117646795D01*
X142158872Y117694414D01*
X142301729Y117694414D01*
X142492205Y117646795D01*
X142587443Y117599176D01*
X142682681Y117503938D01*
X142730300Y117361080D01*
X142730300Y117122985D01*
X142730300Y118646795D02*
X142730300Y118075366D01*
X142730300Y118361080D02*
X141730300Y118361080D01*
X141873158Y118265842D01*
X141968396Y118170604D01*
X142016015Y118075366D01*
%TO.C,C13*%
X55681062Y36926223D02*
X55728681Y36878604D01*
X55776300Y36735747D01*
X55776300Y36640509D01*
X55728681Y36497652D01*
X55633443Y36402414D01*
X55538205Y36354795D01*
X55347729Y36307176D01*
X55204872Y36307176D01*
X55014396Y36354795D01*
X54919158Y36402414D01*
X54823920Y36497652D01*
X54776300Y36640509D01*
X54776300Y36735747D01*
X54823920Y36878604D01*
X54871539Y36926223D01*
X55776300Y37878604D02*
X55776300Y37307176D01*
X55776300Y37592890D02*
X54776300Y37592890D01*
X54919158Y37497652D01*
X55014396Y37402414D01*
X55062015Y37307176D01*
X54776300Y38211938D02*
X54776300Y38830985D01*
X55157253Y38497652D01*
X55157253Y38640509D01*
X55204872Y38735747D01*
X55252491Y38783366D01*
X55347729Y38830985D01*
X55585824Y38830985D01*
X55681062Y38783366D01*
X55728681Y38735747D01*
X55776300Y38640509D01*
X55776300Y38354795D01*
X55728681Y38259557D01*
X55681062Y38211938D01*
%TO.C,C12*%
X18936062Y51178223D02*
X18983681Y51130604D01*
X19031300Y50987747D01*
X19031300Y50892509D01*
X18983681Y50749652D01*
X18888443Y50654414D01*
X18793205Y50606795D01*
X18602729Y50559176D01*
X18459872Y50559176D01*
X18269396Y50606795D01*
X18174158Y50654414D01*
X18078920Y50749652D01*
X18031300Y50892509D01*
X18031300Y50987747D01*
X18078920Y51130604D01*
X18126539Y51178223D01*
X19031300Y52130604D02*
X19031300Y51559176D01*
X19031300Y51844890D02*
X18031300Y51844890D01*
X18174158Y51749652D01*
X18269396Y51654414D01*
X18317015Y51559176D01*
X18126539Y52511557D02*
X18078920Y52559176D01*
X18031300Y52654414D01*
X18031300Y52892509D01*
X18078920Y52987747D01*
X18126539Y53035366D01*
X18221777Y53082985D01*
X18317015Y53082985D01*
X18459872Y53035366D01*
X19031300Y52463938D01*
X19031300Y53082985D01*
%TO.C,C11*%
X9247922Y56602903D02*
X9295541Y56555284D01*
X9343160Y56412427D01*
X9343160Y56317189D01*
X9295541Y56174332D01*
X9200303Y56079094D01*
X9105065Y56031475D01*
X8914589Y55983856D01*
X8771732Y55983856D01*
X8581256Y56031475D01*
X8486018Y56079094D01*
X8390780Y56174332D01*
X8343160Y56317189D01*
X8343160Y56412427D01*
X8390780Y56555284D01*
X8438399Y56602903D01*
X9343160Y57555284D02*
X9343160Y56983856D01*
X9343160Y57269570D02*
X8343160Y57269570D01*
X8486018Y57174332D01*
X8581256Y57079094D01*
X8628875Y56983856D01*
X9343160Y58507665D02*
X9343160Y57936237D01*
X9343160Y58221951D02*
X8343160Y58221951D01*
X8486018Y58126713D01*
X8581256Y58031475D01*
X8628875Y57936237D01*
%TO.C,C10*%
X18062522Y56602903D02*
X18110141Y56555284D01*
X18157760Y56412427D01*
X18157760Y56317189D01*
X18110141Y56174332D01*
X18014903Y56079094D01*
X17919665Y56031475D01*
X17729189Y55983856D01*
X17586332Y55983856D01*
X17395856Y56031475D01*
X17300618Y56079094D01*
X17205380Y56174332D01*
X17157760Y56317189D01*
X17157760Y56412427D01*
X17205380Y56555284D01*
X17252999Y56602903D01*
X18157760Y57555284D02*
X18157760Y56983856D01*
X18157760Y57269570D02*
X17157760Y57269570D01*
X17300618Y57174332D01*
X17395856Y57079094D01*
X17443475Y56983856D01*
X17157760Y58174332D02*
X17157760Y58269570D01*
X17205380Y58364808D01*
X17252999Y58412427D01*
X17348237Y58460046D01*
X17538713Y58507665D01*
X17776808Y58507665D01*
X17967284Y58460046D01*
X18062522Y58412427D01*
X18110141Y58364808D01*
X18157760Y58269570D01*
X18157760Y58174332D01*
X18110141Y58079094D01*
X18062522Y58031475D01*
X17967284Y57983856D01*
X17776808Y57936237D01*
X17538713Y57936237D01*
X17348237Y57983856D01*
X17252999Y58031475D01*
X17205380Y58079094D01*
X17157760Y58174332D01*
%TO.C,C9*%
X105994562Y29111914D02*
X106042181Y29064295D01*
X106089800Y28921438D01*
X106089800Y28826200D01*
X106042181Y28683342D01*
X105946943Y28588104D01*
X105851705Y28540485D01*
X105661229Y28492866D01*
X105518372Y28492866D01*
X105327896Y28540485D01*
X105232658Y28588104D01*
X105137420Y28683342D01*
X105089800Y28826200D01*
X105089800Y28921438D01*
X105137420Y29064295D01*
X105185039Y29111914D01*
X106089800Y29588104D02*
X106089800Y29778580D01*
X106042181Y29873819D01*
X105994562Y29921438D01*
X105851705Y30016676D01*
X105661229Y30064295D01*
X105280277Y30064295D01*
X105185039Y30016676D01*
X105137420Y29969057D01*
X105089800Y29873819D01*
X105089800Y29683342D01*
X105137420Y29588104D01*
X105185039Y29540485D01*
X105280277Y29492866D01*
X105518372Y29492866D01*
X105613610Y29540485D01*
X105661229Y29588104D01*
X105708848Y29683342D01*
X105708848Y29873819D01*
X105661229Y29969057D01*
X105613610Y30016676D01*
X105518372Y30064295D01*
%TO.C,C8*%
X137369253Y90875938D02*
X137321634Y90828319D01*
X137178777Y90780700D01*
X137083539Y90780700D01*
X136940681Y90828319D01*
X136845443Y90923557D01*
X136797824Y91018795D01*
X136750205Y91209271D01*
X136750205Y91352128D01*
X136797824Y91542604D01*
X136845443Y91637842D01*
X136940681Y91733080D01*
X137083539Y91780700D01*
X137178777Y91780700D01*
X137321634Y91733080D01*
X137369253Y91685461D01*
X137940681Y91352128D02*
X137845443Y91399747D01*
X137797824Y91447366D01*
X137750205Y91542604D01*
X137750205Y91590223D01*
X137797824Y91685461D01*
X137845443Y91733080D01*
X137940681Y91780700D01*
X138131158Y91780700D01*
X138226396Y91733080D01*
X138274015Y91685461D01*
X138321634Y91590223D01*
X138321634Y91542604D01*
X138274015Y91447366D01*
X138226396Y91399747D01*
X138131158Y91352128D01*
X137940681Y91352128D01*
X137845443Y91304509D01*
X137797824Y91256890D01*
X137750205Y91161652D01*
X137750205Y90971176D01*
X137797824Y90875938D01*
X137845443Y90828319D01*
X137940681Y90780700D01*
X138131158Y90780700D01*
X138226396Y90828319D01*
X138274015Y90875938D01*
X138321634Y90971176D01*
X138321634Y91161652D01*
X138274015Y91256890D01*
X138226396Y91304509D01*
X138131158Y91352128D01*
%TO.C,C7*%
X75563062Y85857414D02*
X75610681Y85809795D01*
X75658300Y85666938D01*
X75658300Y85571700D01*
X75610681Y85428842D01*
X75515443Y85333604D01*
X75420205Y85285985D01*
X75229729Y85238366D01*
X75086872Y85238366D01*
X74896396Y85285985D01*
X74801158Y85333604D01*
X74705920Y85428842D01*
X74658300Y85571700D01*
X74658300Y85666938D01*
X74705920Y85809795D01*
X74753539Y85857414D01*
X74658300Y86190747D02*
X74658300Y86857414D01*
X75658300Y86428842D01*
%TO.C,C6*%
X61093062Y128086414D02*
X61140681Y128038795D01*
X61188300Y127895938D01*
X61188300Y127800700D01*
X61140681Y127657842D01*
X61045443Y127562604D01*
X60950205Y127514985D01*
X60759729Y127467366D01*
X60616872Y127467366D01*
X60426396Y127514985D01*
X60331158Y127562604D01*
X60235920Y127657842D01*
X60188300Y127800700D01*
X60188300Y127895938D01*
X60235920Y128038795D01*
X60283539Y128086414D01*
X60188300Y128943557D02*
X60188300Y128753080D01*
X60235920Y128657842D01*
X60283539Y128610223D01*
X60426396Y128514985D01*
X60616872Y128467366D01*
X60997824Y128467366D01*
X61093062Y128514985D01*
X61140681Y128562604D01*
X61188300Y128657842D01*
X61188300Y128848319D01*
X61140681Y128943557D01*
X61093062Y128991176D01*
X60997824Y129038795D01*
X60759729Y129038795D01*
X60664491Y128991176D01*
X60616872Y128943557D01*
X60569253Y128848319D01*
X60569253Y128657842D01*
X60616872Y128562604D01*
X60664491Y128514985D01*
X60759729Y128467366D01*
%TO.C,C5*%
X19911642Y99164354D02*
X19959261Y99116735D01*
X20006880Y98973878D01*
X20006880Y98878640D01*
X19959261Y98735782D01*
X19864023Y98640544D01*
X19768785Y98592925D01*
X19578309Y98545306D01*
X19435452Y98545306D01*
X19244976Y98592925D01*
X19149738Y98640544D01*
X19054500Y98735782D01*
X19006880Y98878640D01*
X19006880Y98973878D01*
X19054500Y99116735D01*
X19102119Y99164354D01*
X19006880Y100069116D02*
X19006880Y99592925D01*
X19483071Y99545306D01*
X19435452Y99592925D01*
X19387833Y99688163D01*
X19387833Y99926259D01*
X19435452Y100021497D01*
X19483071Y100069116D01*
X19578309Y100116735D01*
X19816404Y100116735D01*
X19911642Y100069116D01*
X19959261Y100021497D01*
X20006880Y99926259D01*
X20006880Y99688163D01*
X19959261Y99592925D01*
X19911642Y99545306D01*
%TO.C,C4*%
X11021642Y99164354D02*
X11069261Y99116735D01*
X11116880Y98973878D01*
X11116880Y98878640D01*
X11069261Y98735782D01*
X10974023Y98640544D01*
X10878785Y98592925D01*
X10688309Y98545306D01*
X10545452Y98545306D01*
X10354976Y98592925D01*
X10259738Y98640544D01*
X10164500Y98735782D01*
X10116880Y98878640D01*
X10116880Y98973878D01*
X10164500Y99116735D01*
X10212119Y99164354D01*
X10450214Y100021497D02*
X11116880Y100021497D01*
X10069261Y99783401D02*
X10783547Y99545306D01*
X10783547Y100164354D01*
%TO.C,C3*%
X27411642Y90814354D02*
X27459261Y90766735D01*
X27506880Y90623878D01*
X27506880Y90528640D01*
X27459261Y90385782D01*
X27364023Y90290544D01*
X27268785Y90242925D01*
X27078309Y90195306D01*
X26935452Y90195306D01*
X26744976Y90242925D01*
X26649738Y90290544D01*
X26554500Y90385782D01*
X26506880Y90528640D01*
X26506880Y90623878D01*
X26554500Y90766735D01*
X26602119Y90814354D01*
X26506880Y91147687D02*
X26506880Y91766735D01*
X26887833Y91433401D01*
X26887833Y91576259D01*
X26935452Y91671497D01*
X26983071Y91719116D01*
X27078309Y91766735D01*
X27316404Y91766735D01*
X27411642Y91719116D01*
X27459261Y91671497D01*
X27506880Y91576259D01*
X27506880Y91290544D01*
X27459261Y91195306D01*
X27411642Y91147687D01*
%TO.C,C2*%
X18521642Y90814354D02*
X18569261Y90766735D01*
X18616880Y90623878D01*
X18616880Y90528640D01*
X18569261Y90385782D01*
X18474023Y90290544D01*
X18378785Y90242925D01*
X18188309Y90195306D01*
X18045452Y90195306D01*
X17854976Y90242925D01*
X17759738Y90290544D01*
X17664500Y90385782D01*
X17616880Y90528640D01*
X17616880Y90623878D01*
X17664500Y90766735D01*
X17712119Y90814354D01*
X17712119Y91195306D02*
X17664500Y91242925D01*
X17616880Y91338163D01*
X17616880Y91576259D01*
X17664500Y91671497D01*
X17712119Y91719116D01*
X17807357Y91766735D01*
X17902595Y91766735D01*
X18045452Y91719116D01*
X18616880Y91147687D01*
X18616880Y91766735D01*
%TO.C,C1*%
X61143062Y109312414D02*
X61190681Y109264795D01*
X61238300Y109121938D01*
X61238300Y109026700D01*
X61190681Y108883842D01*
X61095443Y108788604D01*
X61000205Y108740985D01*
X60809729Y108693366D01*
X60666872Y108693366D01*
X60476396Y108740985D01*
X60381158Y108788604D01*
X60285920Y108883842D01*
X60238300Y109026700D01*
X60238300Y109121938D01*
X60285920Y109264795D01*
X60333539Y109312414D01*
X61238300Y110264795D02*
X61238300Y109693366D01*
X61238300Y109979080D02*
X60238300Y109979080D01*
X60381158Y109883842D01*
X60476396Y109788604D01*
X60524015Y109693366D01*
%TD*%
M02*
