M48
; DRILL file {KiCad (5.1.6)-1} date 07/06/20 22:25:56
; FORMAT={-:-/ absolute / inch / decimal}
; #@! TF.CreationDate,2020-07-06T22:25:56+02:00
; #@! TF.GenerationSoftware,Kicad,Pcbnew,(5.1.6)-1
; #@! TF.FileFunction,Plated,1,2,PTH
FMAT,2
INCH
T1C0.0157
T2C0.0236
T3C0.0315
T4C0.0394
T5C0.0433
T6C0.0551
T7C0.0591
T8C0.0709
T9C0.0984
T10C0.1260
%
G90
G05
T1
X1.2448Y1.8602
X1.7398Y2.1252
X1.9548Y4.4652
X2.0448Y1.9352
X2.0848Y4.4652
X2.4598Y4.7752
X2.9598Y5.1802
X2.9632Y4.5206
X5.1872Y1.0934
T2
X5.3548Y2.6902
X5.3548Y2.6115
T3
X2.3848Y1.548
X2.3848Y1.4102
X4.9998Y1.5127
X5.3998Y1.5127
X0.9175Y3.95
X0.9175Y3.8713
X0.9175Y3.6213
X0.9175Y3.5426
X0.5675Y3.95
X0.5675Y3.8713
X4.9998Y1.8127
X5.3998Y1.8127
X0.4977Y2.2931
X0.4977Y2.2144
X0.5675Y3.6213
X0.5675Y3.5426
X0.8447Y2.2931
X0.8447Y2.2144
X4.7001Y1.8118
X4.7788Y1.8118
T4
X1.1348Y1.7902
X1.4598Y3.3802
X1.7348Y2.0052
X1.776Y2.518
X1.838Y1.7234
X1.8494Y2.2758
X1.9372Y2.0248
X2.2162Y2.185
X2.2368Y0.791
X2.3846Y1.9402
X2.3862Y1.193
X2.5644Y0.4962
X2.657Y1.7258
X2.6608Y2.5134
X2.6732Y2.176
X2.7694Y0.8104
X2.8684Y1.9786
X3.1094Y1.8126
X3.125Y2.1514
X3.142Y0.6132
X3.1946Y1.3676
X3.2256Y0.918
X3.3222Y2.5074
X3.3366Y1.9554
X3.4936Y0.5082
X3.5706Y1.8964
X3.5754Y2.4648
X3.5918Y2.8652
X3.7248Y4.5342
X3.8296Y2.8592
X3.8896Y0.6154
X3.9126Y2.4818
X3.939Y1.3702
X4.0876Y1.0064
X4.1444Y2.9686
X4.2026Y2.2122
X4.4232Y0.9664
X4.4238Y1.7162
X4.4362Y2.0456
X5.5644Y3.52
X2.7148Y3.4852
X2.7148Y3.2883
T5
X1.2548Y4.3202
X1.3217Y4.4659
X1.3887Y4.3202
X1.4556Y4.4659
X1.5225Y4.3202
X1.5391Y0.9902
X1.8698Y0.9902
X4.8799Y0.6594
X4.9799Y0.6594
X5.0799Y0.6594
X1.2048Y2.0152
X1.2717Y2.1609
X1.3387Y2.0152
X1.4056Y2.1609
X1.4725Y2.0152
X3.9454Y5.0123
X4.0454Y5.0123
X4.1454Y5.0123
X3.9444Y3.2633
X4.0444Y3.2633
X4.1444Y3.2633
X1.8891Y3.2502
X2.2198Y3.2502
T6
X4.1098Y0.4744
X4.5098Y0.4744
X3.9898Y2.2102
X4.3898Y2.2102
X4.9998Y1.1127
X5.3998Y1.1127
X2.4214Y0.8143
X2.5198Y0.9127
X2.5198Y0.7158
X3.2898Y2.2102
X3.6898Y2.2102
X4.9998Y2.2127
X5.3998Y2.2127
X5.3698Y4.8402
X5.3698Y4.4402
X3.2898Y0.4744
X3.6898Y0.4744
X4.5373Y1.5385
X4.5373Y1.1385
X2.4239Y2.2111
X2.5223Y2.3096
X2.5223Y2.1127
T7
X5.3548Y4.0022
X5.3548Y3.8052
X5.3548Y3.2122
X5.3548Y3.0152
X0.4898Y2.9702
X0.4898Y2.7732
T8
X3.0492Y1.6153
X3.3445Y1.6153
X3.0492Y1.0653
X3.3445Y1.0653
X3.6398Y1.0653
X1.0698Y2.8302
X1.3651Y2.8302
X3.6398Y1.6153
T9
X0.8887Y4.6844
X1.8887Y4.6844
X3.5469Y4.845
X4.5469Y4.845
X3.5459Y3.096
X4.5459Y3.096
T10
X0.3448Y0.3402
X5.5898Y0.3452
X0.3448Y5.3202
X5.5898Y5.3202
X2.8417Y2.8868
T0
M30
